<svg width="1306" height="232" viewBox="0 0 1306 232" fill="none" xmlns="http://www.w3.org/2000/svg">
<g clip-path="url(#clip0_1954_1109)">
<g clip-path="url(#clip1_1954_1109)">
<g clip-path="url(#clip2_1954_1109)">
<path d="M470.364 26.1641H454.039V28.2047H470.364V26.1641Z" fill="#D9D9D9"/>
<path d="M487.754 33.3124H483.91V21.4397H487.876C489.039 21.4397 490.038 21.6774 490.873 22.1527C491.707 22.6242 492.347 23.3025 492.792 24.1876C493.24 25.0687 493.464 26.1258 493.464 27.3586C493.464 28.5954 493.238 29.6582 492.786 30.5471C492.338 31.436 491.689 32.1201 490.838 32.5993C489.988 33.0747 488.96 33.3124 487.754 33.3124ZM485.702 31.7471H487.656C488.56 31.7471 489.312 31.577 489.911 31.237C490.51 30.893 490.958 30.3964 491.255 29.7471C491.553 29.0939 491.702 28.2978 491.702 27.3586C491.702 26.4272 491.553 25.6369 491.255 24.9876C490.962 24.3383 490.523 23.8455 489.94 23.5093C489.357 23.173 488.631 23.0049 487.766 23.0049H485.702V31.7471ZM508.956 33.3124V21.4397H516.4V22.9817H510.747V26.5992H516.011V28.1355H510.747V31.7703H516.469V33.3124H508.956ZM538.532 24.5586C538.47 24.0098 538.215 23.5846 537.766 23.2832C537.318 22.9779 536.754 22.8252 536.074 22.8252C535.587 22.8252 535.166 22.9025 534.81 23.0571C534.454 23.2078 534.178 23.4165 533.981 23.6832C533.788 23.946 533.691 24.2455 533.691 24.5818C533.691 24.8639 533.757 25.1074 533.888 25.3122C534.024 25.5171 534.199 25.689 534.416 25.8282C534.636 25.9634 534.872 26.0774 535.124 26.1702C535.375 26.2591 535.617 26.3325 535.848 26.3905L537.007 26.692C537.386 26.7847 537.775 26.9103 538.172 27.0688C538.57 27.2272 538.94 27.4359 539.279 27.6949C539.62 27.9538 539.895 28.2746 540.103 28.6572C540.316 29.0398 540.422 29.4978 540.422 30.0312C540.422 30.7036 540.248 31.3007 539.9 31.8225C539.556 32.3442 539.056 32.7558 538.399 33.0573C537.746 33.3588 536.955 33.5095 536.028 33.5095C535.139 33.5095 534.37 33.3684 533.721 33.0863C533.071 32.8042 532.563 32.4041 532.195 31.8863C531.828 31.3645 531.626 30.7462 531.587 30.0312H533.384C533.419 30.4602 533.559 30.8176 533.801 31.1037C534.049 31.3857 534.364 31.5964 534.746 31.7355C535.133 31.8708 535.556 31.9384 536.016 31.9384C536.523 31.9384 536.972 31.8593 537.366 31.7008C537.765 31.5385 538.078 31.3143 538.306 31.0283C538.534 30.7384 538.648 30.4002 538.648 30.0138C538.648 29.6621 538.548 29.3741 538.347 29.15C538.15 28.9258 537.881 28.7403 537.541 28.5934C537.204 28.4466 536.824 28.3171 536.399 28.205L534.996 27.8224C534.045 27.5635 533.291 27.1828 532.735 26.6804C532.182 26.1779 531.906 25.5132 531.906 24.6861C531.906 24.002 532.091 23.4049 532.463 22.8948C532.833 22.3846 533.336 21.9885 533.97 21.7063C534.603 21.4203 535.319 21.2773 536.114 21.2773C536.918 21.2773 537.628 21.4184 538.242 21.7005C538.86 21.9827 539.348 22.3711 539.703 22.8658C540.059 23.3566 540.245 23.9209 540.26 24.5586H538.532ZM557.618 21.4397V33.3124H555.827V21.4397H557.618ZM581.525 25.1905C581.413 24.8388 581.263 24.5238 581.074 24.2455C580.888 23.9634 580.665 23.7238 580.407 23.5267C580.148 23.3257 579.852 23.173 579.52 23.0687C579.191 22.9643 578.83 22.9122 578.436 22.9122C577.768 22.9122 577.165 23.0841 576.627 23.4281C576.09 23.7721 575.665 24.2764 575.352 24.9412C575.042 25.6021 574.888 26.4118 574.888 27.3702C574.888 28.3326 575.044 29.1461 575.358 29.8109C575.671 30.4756 576.099 30.98 576.644 31.3239C577.189 31.668 577.809 31.8399 578.505 31.8399C579.151 31.8399 579.713 31.7085 580.192 31.4457C580.676 31.1829 581.048 30.8119 581.311 30.3326C581.578 29.8495 581.711 29.2814 581.711 28.6282L582.175 28.7152H578.778V27.2369H583.445V28.5877C583.445 29.5848 583.232 30.4505 582.807 31.1848C582.386 31.9153 581.802 32.4795 581.056 32.8776C580.314 33.2757 579.463 33.4747 578.505 33.4747C577.431 33.4747 576.488 33.2274 575.676 32.7327C574.869 32.238 574.238 31.5365 573.786 30.6283C573.334 29.7162 573.108 28.634 573.108 27.3818C573.108 26.4349 573.239 25.5847 573.503 24.831C573.765 24.0774 574.134 23.4378 574.61 22.9122C575.089 22.3827 575.652 21.9788 576.296 21.7005C576.946 21.4184 577.655 21.2773 578.425 21.2773C579.066 21.2773 579.663 21.372 580.215 21.5614C580.773 21.7508 581.266 22.0194 581.7 22.3672C582.137 22.7151 582.498 23.1286 582.784 23.6078C583.07 24.0832 583.263 24.6108 583.363 25.1905H581.525ZM608.566 21.4397V33.3124H606.919L600.884 24.605H600.774V33.3124H598.983V21.4397H600.641L606.681 30.1587H606.791V21.4397H608.566ZM643.03 33.3124H641.128L645.401 21.4397H647.47L651.743 33.3124H649.842L646.485 23.5962H646.393L643.03 33.3124ZM643.349 28.663H649.517V30.1703H643.349V28.663ZM666.722 33.3124V21.4397H670.954C671.877 21.4397 672.642 21.6078 673.25 21.944C673.857 22.2803 674.311 22.7402 674.612 23.3238C674.914 23.9035 675.064 24.5566 675.064 25.2832C675.064 26.0137 674.912 26.6707 674.607 27.2543C674.305 27.834 673.848 28.2939 673.238 28.634C672.631 28.9703 671.868 29.1384 670.948 29.1384H668.038V27.6195H670.785C671.369 27.6195 671.843 27.519 672.206 27.3181C672.569 27.1132 672.836 26.835 673.006 26.4833C673.176 26.1316 673.261 25.7316 673.261 25.2832C673.261 24.8349 673.176 24.4368 673.006 24.089C672.836 23.7412 672.567 23.4687 672.201 23.2716C671.837 23.0745 671.358 22.9759 670.763 22.9759H668.513V33.3124H666.722ZM690.429 33.3124V21.4397H694.66C695.584 21.4397 696.349 21.6078 696.955 21.944C697.563 22.2803 698.017 22.7402 698.319 23.3238C698.62 23.9035 698.771 24.5566 698.771 25.2832C698.771 26.0137 698.618 26.6707 698.312 27.2543C698.01 27.834 697.555 28.2939 696.944 28.634C696.337 28.9703 695.574 29.1384 694.655 29.1384H691.744V27.6195H694.492C695.076 27.6195 695.549 27.519 695.913 27.3181C696.276 27.1132 696.542 26.835 696.713 26.4833C696.882 26.1316 696.968 25.7316 696.968 25.2832C696.968 24.8349 696.882 24.4368 696.713 24.089C696.542 23.7412 696.274 23.4687 695.907 23.2716C695.543 23.0745 695.064 22.9759 694.469 22.9759H692.219V33.3124H690.429ZM714.134 33.3124V21.4397H718.367C719.286 21.4397 720.049 21.5981 720.656 21.915C721.267 22.232 721.724 22.6706 722.025 23.231C722.326 23.7875 722.477 24.431 722.477 25.1615C722.477 25.8881 722.325 26.5277 722.018 27.0804C721.717 27.6292 721.261 28.0562 720.65 28.3616C720.044 28.6669 719.281 28.8195 718.361 28.8195H715.155V27.2775H718.198C718.778 27.2775 719.249 27.1944 719.613 27.0282C719.98 26.862 720.248 26.6205 720.419 26.3035C720.589 25.9866 720.674 25.6059 720.674 25.1615C720.674 24.7132 720.587 24.3248 720.412 23.9962C720.243 23.6677 719.975 23.4165 719.607 23.2426C719.244 23.0648 718.767 22.9759 718.175 22.9759H715.926V33.3124H714.134ZM719.995 27.9558L722.929 33.3124H720.888L718.013 27.9558H719.995ZM748.233 27.376C748.233 28.6437 748.002 29.7336 747.539 30.6457C747.074 31.5539 746.439 32.2534 745.631 32.7443C744.827 33.2313 743.913 33.4747 742.889 33.4747C741.86 33.4747 740.943 33.2313 740.135 32.7443C739.331 32.2534 738.698 31.5519 738.233 30.6399C737.77 29.7278 737.538 28.6398 737.538 27.376C737.538 26.1084 737.77 25.0204 738.233 24.1122C738.698 23.2001 739.331 22.5006 740.135 22.0136C740.943 21.5228 741.86 21.2773 742.889 21.2773C743.913 21.2773 744.827 21.5228 745.631 22.0136C746.439 22.5006 747.074 23.2001 747.539 24.1122C748.002 25.0204 748.233 26.1084 748.233 27.376ZM746.46 27.376C746.46 26.4098 746.303 25.5963 745.991 24.9354C745.682 24.2706 745.256 23.7682 744.715 23.4281C744.178 23.0841 743.569 22.9122 742.889 22.9122C742.204 22.9122 741.594 23.0841 741.056 23.4281C740.52 23.7682 740.094 24.2706 739.781 24.9354C739.472 25.5963 739.318 26.4098 739.318 27.376C739.318 28.3422 739.472 29.1577 739.781 29.8225C740.094 30.4833 740.52 30.9858 741.056 31.3297C741.594 31.6699 742.204 31.8399 742.889 31.8399C743.569 31.8399 744.178 31.6699 744.715 31.3297C745.256 30.9858 745.682 30.4833 745.991 29.8225C746.303 29.1577 746.46 28.3422 746.46 27.376ZM764.144 33.3124H762.243L766.515 21.4397H768.586L772.858 33.3124H770.956L767.6 23.5962H767.507L764.144 33.3124ZM764.463 28.663H770.631V30.1703H764.463V28.663ZM797.139 25.3006H795.331C795.261 24.9141 795.132 24.574 794.942 24.2803C794.752 23.9866 794.521 23.7373 794.246 23.5325C793.972 23.3276 793.665 23.173 793.325 23.0687C792.988 22.9643 792.631 22.9122 792.253 22.9122C791.568 22.9122 790.956 23.0841 790.414 23.4281C789.877 23.7721 789.452 24.2764 789.139 24.9412C788.83 25.6059 788.675 26.4176 788.675 27.376C788.675 28.3422 788.83 29.1577 789.139 29.8225C789.452 30.4872 789.879 30.9896 790.42 31.3297C790.961 31.6699 791.57 31.8399 792.247 31.8399C792.621 31.8399 792.977 31.7897 793.313 31.6892C793.654 31.5848 793.961 31.4322 794.235 31.2312C794.51 31.0302 794.741 30.7848 794.931 30.4949C795.124 30.2012 795.258 29.865 795.331 29.4862L797.139 29.492C797.043 30.0756 796.855 30.6128 796.577 31.1037C796.302 31.5906 795.949 32.0119 795.516 32.3675C795.087 32.7192 794.596 32.9916 794.043 33.1849C793.491 33.3781 792.888 33.4747 792.234 33.4747C791.207 33.4747 790.291 33.2313 789.487 32.7443C788.683 32.2534 788.049 31.5519 787.586 30.6399C787.126 29.7278 786.896 28.6398 786.896 27.376C786.896 26.1084 787.128 25.0204 787.591 24.1122C788.055 23.2001 788.689 22.5006 789.493 22.0136C790.297 21.5228 791.211 21.2773 792.234 21.2773C792.865 21.2773 793.453 21.3682 793.997 21.5498C794.546 21.7276 795.039 21.9904 795.476 22.3382C795.913 22.6822 796.274 23.1035 796.559 23.602C796.845 24.0967 797.039 24.6629 797.139 25.3006ZM812.547 33.3124V21.4397H814.338V26.5992H820.257V21.4397H822.054V33.3124H820.257V28.1355H814.338V33.3124H812.547Z" fill="#656D72"/>
<path d="M851.962 26.1641H835.637V28.2047H851.962V26.1641Z" fill="#D9D9D9"/>
<path d="M470.364 26.375H454.039V28.4156H470.364V26.375Z" fill="#D9D9D9"/>
<path d="M487.373 33.3124H483.529V21.4397H487.495C488.658 21.4397 489.657 21.6774 490.492 22.1527C491.326 22.6242 491.966 23.3025 492.411 24.1876C492.859 25.0687 493.083 26.1258 493.083 27.3586C493.083 28.5954 492.857 29.6582 492.405 30.5471C491.957 31.436 491.308 32.1201 490.457 32.5993C489.607 33.0747 488.579 33.3124 487.373 33.3124ZM485.321 31.7471H487.275C488.179 31.7471 488.931 31.577 489.53 31.237C490.129 30.893 490.578 30.3964 490.875 29.7471C491.172 29.0939 491.321 28.2978 491.321 27.3586C491.321 26.4272 491.172 25.6369 490.875 24.9876C490.581 24.3383 490.142 23.8455 489.559 23.5093C488.976 23.173 488.25 23.0049 487.385 23.0049H485.321V31.7471ZM508.575 33.3124V21.4397H516.019V22.9817H510.367V26.5992H515.63V28.1355H510.367V31.7703H516.088V33.3124H508.575ZM538.151 24.5586C538.089 24.0098 537.834 23.5846 537.385 23.2832C536.938 22.9779 536.373 22.8252 535.693 22.8252C535.206 22.8252 534.785 22.9025 534.43 23.0571C534.074 23.2078 533.797 23.4165 533.6 23.6832C533.407 23.946 533.31 24.2455 533.31 24.5818C533.31 24.8639 533.377 25.1074 533.507 25.3122C533.643 25.5171 533.818 25.689 534.035 25.8282C534.255 25.9634 534.491 26.0774 534.743 26.1702C534.994 26.2591 535.236 26.3325 535.467 26.3905L536.626 26.692C537.005 26.7847 537.394 26.9103 537.792 27.0688C538.189 27.2272 538.559 27.4359 538.899 27.6949C539.239 27.9538 539.514 28.2746 539.722 28.6572C539.935 29.0398 540.041 29.4978 540.041 30.0312C540.041 30.7036 539.867 31.3007 539.519 31.8225C539.175 32.3442 538.675 32.7558 538.018 33.0573C537.365 33.3588 536.574 33.5095 535.647 33.5095C534.758 33.5095 533.989 33.3684 533.34 33.0863C532.69 32.8042 532.182 32.4041 531.815 31.8863C531.447 31.3645 531.245 30.7462 531.206 30.0312H533.003C533.038 30.4602 533.178 30.8176 533.421 31.1037C533.668 31.3857 533.983 31.5964 534.365 31.7355C534.752 31.8708 535.175 31.9384 535.636 31.9384C536.142 31.9384 536.592 31.8593 536.985 31.7008C537.384 31.5385 537.697 31.3143 537.925 31.0283C538.153 30.7384 538.267 30.4002 538.267 30.0138C538.267 29.6621 538.167 29.3741 537.966 29.15C537.769 28.9258 537.5 28.7403 537.16 28.5934C536.823 28.4466 536.443 28.3171 536.018 28.205L534.615 27.8224C533.664 27.5635 532.91 27.1828 532.354 26.6804C531.801 26.1779 531.525 25.5132 531.525 24.6861C531.525 24.002 531.71 23.4049 532.082 22.8948C532.452 22.3846 532.955 21.9885 533.589 21.7063C534.222 21.4203 534.938 21.2773 535.734 21.2773C536.538 21.2773 537.247 21.4184 537.861 21.7005C538.479 21.9827 538.967 22.3711 539.322 22.8658C539.678 23.3566 539.864 23.9209 539.879 24.5586H538.151ZM557.237 21.4397V33.3124H555.446V21.4397H557.237ZM581.145 25.1905C581.032 24.8388 580.882 24.5238 580.693 24.2455C580.507 23.9634 580.285 23.7238 580.026 23.5267C579.767 23.3257 579.471 23.173 579.139 23.0687C578.81 22.9643 578.449 22.9122 578.055 22.9122C577.387 22.9122 576.784 23.0841 576.246 23.4281C575.709 23.7721 575.284 24.2764 574.971 24.9412C574.662 25.6021 574.507 26.4118 574.507 27.3702C574.507 28.3326 574.664 29.1461 574.977 29.8109C575.29 30.4756 575.719 30.98 576.263 31.3239C576.808 31.668 577.429 31.8399 578.124 31.8399C578.77 31.8399 579.333 31.7085 579.811 31.4457C580.295 31.1829 580.667 30.8119 580.93 30.3326C581.197 29.8495 581.33 29.2814 581.33 28.6282L581.795 28.7152H578.397V27.2369H583.064V28.5877C583.064 29.5848 582.852 30.4505 582.426 31.1848C582.005 31.9153 581.421 32.4795 580.675 32.8776C579.934 33.2757 579.083 33.4747 578.124 33.4747C577.05 33.4747 576.107 33.2274 575.295 32.7327C574.488 32.238 573.858 31.5365 573.406 30.6283C572.954 29.7162 572.727 28.634 572.727 27.3818C572.727 26.4349 572.859 25.5847 573.122 24.831C573.384 24.0774 573.753 23.4378 574.229 22.9122C574.708 22.3827 575.271 21.9788 575.916 21.7005C576.565 21.4184 577.275 21.2773 578.044 21.2773C578.685 21.2773 579.283 21.372 579.835 21.5614C580.392 21.7508 580.885 22.0194 581.319 22.3672C581.756 22.7151 582.117 23.1286 582.403 23.6078C582.689 24.0832 582.882 24.6108 582.982 25.1905H581.145ZM608.185 21.4397V33.3124H606.538L600.503 24.605H600.393V33.3124H598.602V21.4397H600.26L606.3 30.1587H606.411V21.4397H608.185ZM642.649 33.3124H640.747L645.02 21.4397H647.089L651.363 33.3124H649.461L646.104 23.5962H646.012L642.649 33.3124ZM642.968 28.663H649.136V30.1703H642.968V28.663ZM666.341 33.3124V21.4397H670.573C671.496 21.4397 672.262 21.6078 672.869 21.944C673.476 22.2803 673.93 22.7402 674.231 23.3238C674.533 23.9035 674.683 24.5566 674.683 25.2832C674.683 26.0137 674.531 26.6707 674.226 27.2543C673.924 27.834 673.468 28.2939 672.857 28.634C672.25 28.9703 671.487 29.1384 670.567 29.1384H667.657V27.6195H670.405C670.988 27.6195 671.462 27.519 671.825 27.3181C672.188 27.1132 672.455 26.835 672.625 26.4833C672.795 26.1316 672.88 25.7316 672.88 25.2832C672.88 24.8349 672.795 24.4368 672.625 24.089C672.455 23.7412 672.186 23.4687 671.82 23.2716C671.457 23.0745 670.977 22.9759 670.382 22.9759H668.132V33.3124H666.341ZM690.048 33.3124V21.4397H694.279C695.203 21.4397 695.969 21.6078 696.575 21.944C697.182 22.2803 697.636 22.7402 697.938 23.3238C698.239 23.9035 698.39 24.5566 698.39 25.2832C698.39 26.0137 698.237 26.6707 697.932 27.2543C697.63 27.834 697.175 28.2939 696.563 28.634C695.956 28.9703 695.193 29.1384 694.274 29.1384H691.363V27.6195H694.112C694.695 27.6195 695.169 27.519 695.532 27.3181C695.895 27.1132 696.161 26.835 696.332 26.4833C696.501 26.1316 696.587 25.7316 696.587 25.2832C696.587 24.8349 696.501 24.4368 696.332 24.089C696.161 23.7412 695.893 23.4687 695.526 23.2716C695.163 23.0745 694.683 22.9759 694.088 22.9759H691.838V33.3124H690.048ZM713.754 33.3124V21.4397H717.986C718.905 21.4397 719.668 21.5981 720.275 21.915C720.887 22.232 721.343 22.6706 721.644 23.231C721.945 23.7875 722.096 24.431 722.096 25.1615C722.096 25.8881 721.944 26.5277 721.638 27.0804C721.337 27.6292 720.881 28.0562 720.269 28.3616C719.663 28.6669 718.9 28.8195 717.98 28.8195H714.774V27.2775H717.818C718.397 27.2775 718.868 27.1944 719.232 27.0282C719.599 26.862 719.867 26.6205 720.038 26.3035C720.208 25.9866 720.293 25.6059 720.293 25.1615C720.293 24.7132 720.206 24.3248 720.032 23.9962C719.862 23.6677 719.594 23.4165 719.227 23.2426C718.863 23.0648 718.386 22.9759 717.794 22.9759H715.545V33.3124H713.754ZM719.614 27.9558L722.548 33.3124H720.507L717.632 27.9558H719.614ZM747.852 27.376C747.852 28.6437 747.621 29.7336 747.158 30.6457C746.693 31.5539 746.058 32.2534 745.25 32.7443C744.446 33.2313 743.532 33.4747 742.508 33.4747C741.48 33.4747 740.562 33.2313 739.754 32.7443C738.95 32.2534 738.317 31.5519 737.852 30.6399C737.389 29.7278 737.158 28.6398 737.158 27.376C737.158 26.1084 737.389 25.0204 737.852 24.1122C738.317 23.2001 738.95 22.5006 739.754 22.0136C740.562 21.5228 741.48 21.2773 742.508 21.2773C743.532 21.2773 744.446 21.5228 745.25 22.0136C746.058 22.5006 746.693 23.2001 747.158 24.1122C747.621 25.0204 747.852 26.1084 747.852 27.376ZM746.079 27.376C746.079 26.4098 745.922 25.5963 745.61 24.9354C745.301 24.2706 744.875 23.7682 744.334 23.4281C743.797 23.0841 743.189 22.9122 742.508 22.9122C741.823 22.9122 741.213 23.0841 740.676 23.4281C740.139 23.7682 739.713 24.2706 739.4 24.9354C739.091 25.5963 738.937 26.4098 738.937 27.376C738.937 28.3422 739.091 29.1577 739.4 29.8225C739.713 30.4833 740.139 30.9858 740.676 31.3297C741.213 31.6699 741.823 31.8399 742.508 31.8399C743.189 31.8399 743.797 31.6699 744.334 31.3297C744.875 30.9858 745.301 30.4833 745.61 29.8225C745.922 29.1577 746.079 28.3422 746.079 27.376ZM763.763 33.3124H761.862L766.134 21.4397H768.205L772.477 33.3124H770.575L767.219 23.5962H767.126L763.763 33.3124ZM764.083 28.663H770.25V30.1703H764.083V28.663ZM796.758 25.3006H794.95C794.88 24.9141 794.751 24.574 794.561 24.2803C794.372 23.9866 794.14 23.7373 793.865 23.5325C793.591 23.3276 793.284 23.173 792.944 23.0687C792.607 22.9643 792.25 22.9122 791.872 22.9122C791.187 22.9122 790.575 23.0841 790.033 23.4281C789.497 23.7721 789.071 24.2764 788.758 24.9412C788.449 25.6059 788.295 26.4176 788.295 27.376C788.295 28.3422 788.449 29.1577 788.758 29.8225C789.071 30.4872 789.499 30.9896 790.039 31.3297C790.58 31.6699 791.189 31.8399 791.866 31.8399C792.24 31.8399 792.596 31.7897 792.932 31.6892C793.273 31.5848 793.58 31.4322 793.854 31.2312C794.129 31.0302 794.36 30.7848 794.55 30.4949C794.743 30.2012 794.877 29.865 794.95 29.4862L796.758 29.492C796.662 30.0756 796.474 30.6128 796.196 31.1037C795.921 31.5906 795.568 32.0119 795.135 32.3675C794.706 32.7192 794.215 32.9916 793.662 33.1849C793.11 33.3781 792.507 33.4747 791.853 33.4747C790.826 33.4747 789.91 33.2313 789.106 32.7443C788.302 32.2534 787.668 31.5519 787.205 30.6399C786.745 29.7278 786.515 28.6398 786.515 27.376C786.515 26.1084 786.747 25.0204 787.21 24.1122C787.674 23.2001 788.308 22.5006 789.112 22.0136C789.916 21.5228 790.83 21.2773 791.853 21.2773C792.484 21.2773 793.072 21.3682 793.617 21.5498C794.165 21.7276 794.658 21.9904 795.095 22.3382C795.532 22.6822 795.893 23.1035 796.179 23.602C796.464 24.0967 796.658 24.6629 796.758 25.3006ZM812.166 33.3124V21.4397H813.957V26.5992H819.876V21.4397H821.673V33.3124H819.876V28.1355H813.957V33.3124H812.166Z" fill="#656D72"/>
<path d="M851.163 26.375H834.838V28.4156H851.163V26.375Z" fill="#D9D9D9"/>
<path d="M86.1375 65.6291V71.0969H92.0981V72.857H86.1375V78.4891H92.8021V80.2492H84.002V63.8691H92.8021V65.6291H86.1375ZM105.871 67.1545C107.435 67.1545 108.702 67.6317 109.673 68.586C110.642 69.5246 111.127 70.8857 111.127 72.6692V80.2492H109.015V72.9743C109.015 71.6915 108.694 70.7136 108.053 70.0409C107.411 69.3525 106.535 69.0084 105.425 69.0084C104.299 69.0084 103.399 69.3604 102.726 70.0644C102.069 70.7684 101.74 71.7931 101.74 73.1386V80.2492H99.6046V67.3891H101.74V69.2196C102.163 68.5625 102.733 68.0541 103.454 67.6942C104.188 67.3343 104.994 67.1545 105.871 67.1545ZM122.739 80.4604C121.753 80.4604 120.869 80.2961 120.087 79.9675C119.305 79.6234 118.687 79.1541 118.233 78.5595C117.78 77.9494 117.529 77.2532 117.482 76.4709H119.688C119.751 77.1124 120.048 77.6364 120.58 78.0432C121.128 78.45 121.84 78.6534 122.715 78.6534C123.529 78.6534 124.17 78.4735 124.639 78.1136C125.109 77.7538 125.343 77.3001 125.343 76.7525C125.343 76.1893 125.094 75.7748 124.593 75.5088C124.093 75.2272 123.318 74.9534 122.269 74.6874C121.315 74.4371 120.533 74.1868 119.923 73.9365C119.329 73.6705 118.812 73.2873 118.374 72.7866C117.951 72.2703 117.74 71.5976 117.74 70.7684C117.74 70.1113 117.936 69.509 118.327 68.9614C118.719 68.4138 119.274 67.9837 119.993 67.6707C120.713 67.3422 121.535 67.1779 122.457 67.1779C123.881 67.1779 125.031 67.5378 125.907 68.2574C126.783 68.977 127.252 69.9627 127.315 71.2143H125.179C125.132 70.5416 124.859 70.0018 124.358 69.595C123.873 69.1882 123.216 68.9849 122.387 68.9849C121.62 68.9849 121.01 69.1492 120.556 69.4777C120.103 69.8063 119.876 70.2365 119.876 70.7684C119.876 71.1908 120.009 71.5428 120.275 71.8244C120.556 72.0904 120.901 72.3094 121.307 72.4815C121.73 72.6379 122.309 72.8179 123.044 73.0213C123.967 73.2715 124.718 73.5219 125.297 73.7722C125.876 74.0069 126.369 74.3667 126.775 74.8517C127.197 75.3367 127.417 75.9703 127.432 76.7525C127.432 77.4566 127.237 78.0902 126.845 78.6534C126.455 79.2166 125.9 79.6625 125.179 79.991C124.475 80.3039 123.662 80.4604 122.739 80.4604ZM145.423 67.3891V80.2492H143.288V78.3483C142.881 79.0054 142.31 79.5217 141.575 79.8971C140.855 80.257 140.057 80.4369 139.181 80.4369C138.18 80.4369 137.28 80.2335 136.482 79.8267C135.684 79.4043 135.051 78.7786 134.581 77.9494C134.127 77.1202 133.901 76.1111 133.901 74.9221V67.3891H136.013V74.6405C136.013 75.9077 136.333 76.8855 136.975 77.5739C137.617 78.2466 138.492 78.583 139.603 78.583C140.745 78.583 141.645 78.231 142.302 77.527C142.959 76.8229 143.288 75.7982 143.288 74.4528V67.3891H145.423ZM154.736 69.4777C155.111 68.7424 155.643 68.1714 156.331 67.7646C157.035 67.3578 157.888 67.1545 158.889 67.1545V69.3604H158.326C155.932 69.3604 154.736 70.6589 154.736 73.2559V80.2492H152.6V67.3891H154.736V69.4777ZM176.659 73.3263C176.659 73.7331 176.636 74.1633 176.589 74.617H166.31C166.389 75.8843 166.818 76.8777 167.601 77.5974C168.399 78.3014 169.361 78.6534 170.487 78.6534C171.411 78.6534 172.177 78.4422 172.787 78.0198C173.412 77.5817 173.851 77.0028 174.101 76.2832H176.401C176.057 77.5191 175.368 78.5282 174.336 79.3105C173.303 80.077 172.021 80.4604 170.487 80.4604C169.267 80.4604 168.172 80.1866 167.202 79.639C166.248 79.0914 165.497 78.317 164.949 77.3158C164.401 76.2988 164.128 75.1254 164.128 73.7957C164.128 72.4659 164.394 71.3003 164.925 70.2991C165.457 69.2978 166.201 68.5312 167.155 67.9993C168.125 67.4517 169.235 67.1779 170.487 67.1779C171.708 67.1779 172.787 67.4439 173.726 67.9758C174.664 68.5077 175.384 69.243 175.885 70.1817C176.401 71.1048 176.659 72.153 176.659 73.3263ZM174.453 72.8805C174.453 72.067 174.274 71.3707 173.913 70.7919C173.553 70.1973 173.06 69.7515 172.435 69.4542C171.825 69.1413 171.144 68.9849 170.393 68.9849C169.314 68.9849 168.39 69.3291 167.624 70.0175C166.873 70.7059 166.443 71.6602 166.334 72.8805H174.453ZM195.482 69.1492V76.7291C195.482 77.3548 195.614 77.8007 195.881 78.0667C196.146 78.317 196.608 78.4422 197.265 78.4422H198.838V80.2492H196.913C195.724 80.2492 194.832 79.9754 194.238 79.4278C193.643 78.8802 193.346 77.9807 193.346 76.7291V69.1492H191.68V67.3891H193.346V64.1507H195.482V67.3891H198.838V69.1492H195.482ZM211.378 67.1545C212.349 67.1545 213.225 67.3657 214.007 67.7881C214.789 68.1949 215.399 68.8128 215.837 69.642C216.291 70.4712 216.518 71.4803 216.518 72.6692V80.2492H214.406V72.9743C214.406 71.6915 214.085 70.7136 213.443 70.0409C212.803 69.3525 211.926 69.0084 210.815 69.0084C209.689 69.0084 208.79 69.3604 208.116 70.0644C207.459 70.7684 207.131 71.7931 207.131 73.1386V80.2492H204.995V62.8834H207.131V69.2196C207.553 68.5625 208.133 68.0541 208.867 67.6942C209.618 67.3343 210.456 67.1545 211.378 67.1545ZM235.311 73.3263C235.311 73.7331 235.287 74.1633 235.24 74.617H224.962C225.04 75.8843 225.471 76.8777 226.252 77.5974C227.05 78.3014 228.012 78.6534 229.139 78.6534C230.062 78.6534 230.828 78.4422 231.439 78.0198C232.065 77.5817 232.503 77.0028 232.753 76.2832H235.053C234.709 77.5191 234.02 78.5282 232.987 79.3105C231.955 80.077 230.672 80.4604 229.139 80.4604C227.919 80.4604 226.824 80.1866 225.853 79.639C224.899 79.0914 224.149 78.317 223.601 77.3158C223.054 76.2988 222.779 75.1254 222.779 73.7957C222.779 72.4659 223.046 71.3003 223.577 70.2991C224.11 69.2978 224.853 68.5312 225.807 67.9993C226.777 67.4517 227.888 67.1779 229.139 67.1779C230.359 67.1779 231.439 67.4439 232.377 67.9758C233.316 68.5077 234.036 69.243 234.536 70.1817C235.053 71.1048 235.311 72.153 235.311 73.3263ZM233.105 72.8805C233.105 72.067 232.925 71.3707 232.565 70.7919C232.206 70.1973 231.713 69.7515 231.087 69.4542C230.476 69.1413 229.796 68.9849 229.045 68.9849C227.966 68.9849 227.043 69.3291 226.276 70.0175C225.525 70.7059 225.095 71.6602 224.985 72.8805H233.105ZM253.664 69.7593C254.087 69.024 254.712 68.4138 255.542 67.9289C256.386 67.4282 257.364 67.1779 258.475 67.1779C259.617 67.1779 260.649 67.4517 261.573 67.9993C262.511 68.5469 263.247 69.3213 263.778 70.3225C264.31 71.3082 264.576 72.458 264.576 73.7722C264.576 75.0708 264.31 76.2284 263.778 77.2454C263.247 78.2623 262.511 79.0523 261.573 79.6155C260.649 80.1788 259.617 80.4604 258.475 80.4604C257.38 80.4604 256.41 80.2178 255.565 79.7329C254.735 79.2322 254.102 78.6143 253.664 77.879V86.3506H251.529V67.3891H253.664V69.7593ZM262.394 73.7722C262.394 72.8022 262.198 71.9574 261.807 71.2378C261.416 70.5181 260.884 69.9705 260.211 69.595C259.554 69.2196 258.827 69.0318 258.029 69.0318C257.246 69.0318 256.519 69.2274 255.847 69.6185C255.189 69.994 254.658 70.5493 254.251 71.2847C253.86 72.0043 253.664 72.8414 253.664 73.7957C253.664 74.7657 253.86 75.6183 254.251 76.3536C254.658 77.0732 255.189 77.6287 255.847 78.0198C256.519 78.3952 257.246 78.583 258.029 78.583C258.827 78.583 259.554 78.3952 260.211 78.0198C260.884 77.6287 261.416 77.0732 261.807 76.3536C262.198 75.6183 262.394 74.7578 262.394 73.7722ZM273.094 69.4777C273.469 68.7424 274.001 68.1714 274.69 67.7646C275.394 67.3578 276.247 67.1545 277.248 67.1545V69.3604H276.684C274.291 69.3604 273.094 70.6589 273.094 73.2559V80.2492H270.958V67.3891H273.094V69.4777ZM288.892 80.4604C287.687 80.4604 286.593 80.1866 285.607 79.639C284.637 79.0914 283.87 78.317 283.307 77.3158C282.759 76.2988 282.486 75.1254 282.486 73.7957C282.486 72.4815 282.768 71.3238 283.331 70.3225C283.909 69.3056 284.692 68.5312 285.677 67.9993C286.663 67.4517 287.766 67.1779 288.986 67.1779C290.207 67.1779 291.31 67.4517 292.295 67.9993C293.281 68.5312 294.055 69.2978 294.618 70.2991C295.197 71.3003 295.487 72.4659 295.487 73.7957C295.487 75.1254 295.19 76.2988 294.595 77.3158C294.016 78.317 293.226 79.0914 292.225 79.639C291.224 80.1866 290.113 80.4604 288.892 80.4604ZM288.892 78.583C289.659 78.583 290.379 78.4031 291.051 78.0432C291.724 77.6834 292.264 77.1436 292.671 76.424C293.093 75.7044 293.304 74.8282 293.304 73.7957C293.304 72.7631 293.101 71.887 292.694 71.1673C292.287 70.4477 291.755 69.9157 291.098 69.5716C290.441 69.2117 289.729 69.0318 288.963 69.0318C288.18 69.0318 287.461 69.2117 286.804 69.5716C286.162 69.9157 285.646 70.4477 285.255 71.1673C284.864 71.887 284.668 72.7631 284.668 73.7957C284.668 74.8438 284.856 75.7278 285.232 76.4475C285.622 77.1671 286.139 77.7068 286.78 78.0667C287.422 78.4109 288.126 78.583 288.892 78.583ZM301.068 73.7722C301.068 72.458 301.334 71.3082 301.866 70.3225C302.397 69.3213 303.125 68.5469 304.048 67.9993C304.987 67.4517 306.035 67.1779 307.193 67.1779C308.194 67.1779 309.125 67.4126 309.985 67.8819C310.845 68.3357 311.503 68.938 311.957 69.6889V62.8834H314.116V80.2492H311.957V77.832C311.534 78.5986 310.909 79.2322 310.079 79.7329C309.25 80.2178 308.28 80.4604 307.169 80.4604C306.028 80.4604 304.987 80.1788 304.048 79.6155C303.125 79.0523 302.397 78.2623 301.866 77.2454C301.334 76.2284 301.068 75.0708 301.068 73.7722ZM311.957 73.7957C311.957 72.8257 311.761 71.9808 311.37 71.2612C310.979 70.5416 310.447 69.994 309.774 69.6185C309.117 69.2274 308.39 69.0318 307.592 69.0318C306.794 69.0318 306.066 69.2196 305.409 69.595C304.752 69.9705 304.228 70.5181 303.837 71.2378C303.446 71.9574 303.25 72.8022 303.25 73.7722C303.25 74.7578 303.446 75.6183 303.837 76.3536C304.228 77.0732 304.752 77.6287 305.409 78.0198C306.066 78.3952 306.794 78.583 307.592 78.583C308.39 78.583 309.117 78.3952 309.774 78.0198C310.447 77.6287 310.979 77.0732 311.37 76.3536C311.761 75.6183 311.957 74.7657 311.957 73.7957ZM332.701 67.3891V80.2492H330.565V78.3483C330.158 79.0054 329.588 79.5217 328.852 79.8971C328.133 80.257 327.335 80.4369 326.458 80.4369C325.457 80.4369 324.557 80.2335 323.76 79.8267C322.962 79.4043 322.328 78.7786 321.859 77.9494C321.405 77.1202 321.178 76.1111 321.178 74.9221V67.3891H323.29V74.6405C323.29 75.9077 323.611 76.8855 324.252 77.5739C324.894 78.2466 325.77 78.583 326.881 78.583C328.022 78.583 328.922 78.231 329.579 77.527C330.237 76.8229 330.565 75.7982 330.565 74.4528V67.3891H332.701ZM339.08 73.7957C339.08 72.4659 339.345 71.3082 339.877 70.3225C340.409 69.3213 341.145 68.5469 342.083 67.9993C343.037 67.4517 344.125 67.1779 345.345 67.1779C346.925 67.1779 348.224 67.5613 349.241 68.3278C350.273 69.0944 350.954 70.1583 351.283 71.5194H348.983C348.763 70.7371 348.333 70.1192 347.692 69.6654C347.066 69.2117 346.284 68.9849 345.345 68.9849C344.125 68.9849 343.139 69.4073 342.388 70.2521C341.638 71.0813 341.262 72.2625 341.262 73.7957C341.262 75.3445 341.638 76.5413 342.388 77.3862C343.139 78.231 344.125 78.6534 345.345 78.6534C346.284 78.6534 347.066 78.4343 347.692 77.9963C348.318 77.5583 348.748 76.9324 348.983 76.1189H351.283C350.938 77.4331 350.25 78.4891 349.217 79.287C348.185 80.0693 346.894 80.4604 345.345 80.4604C344.125 80.4604 343.037 80.1866 342.083 79.639C341.145 79.0914 340.409 78.317 339.877 77.3158C339.345 76.3145 339.08 75.1412 339.08 73.7957ZM360.307 69.1492V76.7291C360.307 77.3548 360.441 77.8007 360.706 78.0667C360.972 78.317 361.434 78.4422 362.091 78.4422H363.663V80.2492H361.739C360.55 80.2492 359.658 79.9754 359.063 79.4278C358.47 78.8802 358.172 77.9807 358.172 76.7291V69.1492H356.506V67.3891H358.172V64.1507H360.307V67.3891H363.663V69.1492H360.307ZM380.752 65.3006C380.346 65.3006 380.001 65.1598 379.72 64.8781C379.438 64.5965 379.297 64.2524 379.297 63.8456C379.297 63.4388 379.438 63.0946 379.72 62.813C380.001 62.5314 380.346 62.3906 380.752 62.3906C381.144 62.3906 381.473 62.5314 381.738 62.813C382.019 63.0946 382.16 63.4388 382.16 63.8456C382.16 64.2524 382.019 64.5965 381.738 64.8781C381.473 65.1598 381.144 65.3006 380.752 65.3006ZM381.785 67.3891V80.2492H379.649V67.3891H381.785ZM393.548 80.4604C392.562 80.4604 391.679 80.2961 390.896 79.9675C390.115 79.6234 389.496 79.1541 389.042 78.5595C388.589 77.9494 388.338 77.2532 388.291 76.4709H390.497C390.56 77.1124 390.857 77.6364 391.389 78.0432C391.937 78.45 392.649 78.6534 393.524 78.6534C394.339 78.6534 394.979 78.4735 395.449 78.1136C395.918 77.7538 396.153 77.3001 396.153 76.7525C396.153 76.1893 395.903 75.7748 395.402 75.5088C394.902 75.2272 394.128 74.9534 393.079 74.6874C392.125 74.4371 391.342 74.1868 390.732 73.9365C390.138 73.6705 389.622 73.2873 389.183 72.7866C388.761 72.2703 388.549 71.5976 388.549 70.7684C388.549 70.1113 388.745 69.509 389.136 68.9614C389.528 68.4138 390.083 67.9837 390.802 67.6707C391.523 67.3422 392.344 67.1779 393.266 67.1779C394.691 67.1779 395.841 67.5378 396.716 68.2574C397.592 68.977 398.062 69.9627 398.124 71.2143H395.989C395.942 70.5416 395.668 70.0018 395.167 69.595C394.683 69.1882 394.025 68.9849 393.196 68.9849C392.43 68.9849 391.82 69.1492 391.366 69.4777C390.912 69.8063 390.685 70.2365 390.685 70.7684C390.685 71.1908 390.819 71.5428 391.084 71.8244C391.366 72.0904 391.71 72.3094 392.116 72.4815C392.539 72.6379 393.118 72.8179 393.853 73.0213C394.776 73.2715 395.527 73.5219 396.106 73.7722C396.685 74.0069 397.178 74.3667 397.584 74.8517C398.007 75.3367 398.226 75.9703 398.241 76.7525C398.241 77.4566 398.047 78.0902 397.655 78.6534C397.264 79.2166 396.709 79.6625 395.989 79.991C395.285 80.3039 394.471 80.4604 393.548 80.4604Z" fill="black"/>
<path d="M963.952 63.8925C965.735 63.8925 967.276 64.2289 968.575 64.9016C969.889 65.5587 970.89 66.5052 971.579 67.7411C972.283 68.977 972.635 70.432 972.635 72.106C972.635 73.7801 972.283 75.235 971.579 76.4709C970.89 77.6912 969.889 78.6299 968.575 79.287C967.276 79.9285 965.735 80.2492 963.952 80.2492H958.859V63.8925H963.952ZM963.952 78.4891C966.064 78.4891 967.675 77.9338 968.786 76.8229C969.897 75.6965 970.452 74.1242 970.452 72.106C970.452 70.0723 969.889 68.4842 968.763 67.3422C967.651 66.2002 966.049 65.6291 963.952 65.6291H960.995V78.4891H963.952ZM990.756 73.3263C990.756 73.7331 990.733 74.1633 990.686 74.617H980.407C980.485 75.8843 980.916 76.8777 981.698 77.5974C982.496 78.3014 983.458 78.6534 984.585 78.6534C985.507 78.6534 986.274 78.4422 986.884 78.0198C987.51 77.5817 987.947 77.0028 988.198 76.2832H990.498C990.153 77.5191 989.466 78.5282 988.433 79.3105C987.401 80.077 986.117 80.4604 984.585 80.4604C983.364 80.4604 982.268 80.1866 981.299 79.639C980.344 79.0914 979.593 78.317 979.046 77.3158C978.498 76.2988 978.225 75.1254 978.225 73.7957C978.225 72.4659 978.49 71.3003 979.023 70.2991C979.554 69.2978 980.297 68.5312 981.252 67.9993C982.221 67.4517 983.333 67.1779 984.585 67.1779C985.805 67.1779 986.884 67.4439 987.823 67.9758C988.762 68.5077 989.481 69.243 989.982 70.1817C990.498 71.1048 990.756 72.153 990.756 73.3263ZM988.55 72.8805C988.55 72.067 988.37 71.3707 988.011 70.7919C987.651 70.1973 987.158 69.7515 986.532 69.4542C985.922 69.1413 985.242 68.9849 984.491 68.9849C983.411 68.9849 982.488 69.3291 981.721 70.0175C980.971 70.7059 980.54 71.6602 980.431 72.8805H988.55ZM1001.7 80.4604C1000.71 80.4604 999.829 80.2961 999.046 79.9675C998.265 79.6234 997.647 79.1541 997.193 78.5595C996.74 77.9494 996.488 77.2532 996.442 76.4709H998.648C998.711 77.1124 999.008 77.6364 999.539 78.0432C1000.09 78.45 1000.8 78.6534 1001.67 78.6534C1002.49 78.6534 1003.13 78.4735 1003.6 78.1136C1004.07 77.7538 1004.3 77.3001 1004.3 76.7525C1004.3 76.1893 1004.05 75.7748 1003.55 75.5088C1003.05 75.2272 1002.28 74.9534 1001.23 74.6874C1000.27 74.4371 999.492 74.1868 998.882 73.9365C998.288 73.6705 997.772 73.2873 997.333 72.7866C996.911 72.2703 996.7 71.5976 996.7 70.7684C996.7 70.1113 996.896 69.509 997.286 68.9614C997.678 68.4138 998.233 67.9837 998.953 67.6707C999.673 67.3422 1000.49 67.1779 1001.42 67.1779C1002.84 67.1779 1003.99 67.5378 1004.87 68.2574C1005.74 68.977 1006.21 69.9627 1006.27 71.2143H1004.14C1004.09 70.5416 1003.82 70.0018 1003.32 69.595C1002.83 69.1882 1002.18 68.9849 1001.35 68.9849C1000.58 68.9849 999.97 69.1492 999.516 69.4777C999.063 69.8063 998.835 70.2365 998.835 70.7684C998.835 71.1908 998.969 71.5428 999.234 71.8244C999.516 72.0904 999.861 72.3094 1000.27 72.4815C1000.69 72.6379 1001.27 72.8179 1002 73.0213C1002.93 73.2715 1003.68 73.5219 1004.26 73.7722C1004.84 74.0069 1005.33 74.3667 1005.73 74.8517C1006.16 75.3367 1006.38 75.9703 1006.39 76.7525C1006.39 77.4566 1006.2 78.0902 1005.8 78.6534C1005.41 79.2166 1004.86 79.6625 1004.14 79.991C1003.43 80.3039 1002.62 80.4604 1001.7 80.4604ZM1014.08 65.3006C1013.67 65.3006 1013.33 65.1598 1013.05 64.8781C1012.77 64.5965 1012.63 64.2524 1012.63 63.8456C1012.63 63.4388 1012.77 63.0946 1013.05 62.813C1013.33 62.5314 1013.67 62.3906 1014.08 62.3906C1014.47 62.3906 1014.8 62.5314 1015.07 62.813C1015.35 63.0946 1015.49 63.4388 1015.49 63.8456C1015.49 64.2524 1015.35 64.5965 1015.07 64.8781C1014.8 65.1598 1014.47 65.3006 1014.08 65.3006ZM1015.11 67.3891V80.2492H1012.98V67.3891H1015.11ZM1027.63 67.1779C1028.74 67.1779 1029.71 67.4205 1030.54 67.9054C1031.38 68.3904 1032 69.0005 1032.41 69.7359V67.3891H1034.58V80.5308C1034.58 81.7041 1034.32 82.7445 1033.82 83.6519C1033.32 84.575 1032.61 85.2946 1031.67 85.8109C1030.74 86.3272 1029.66 86.5853 1028.42 86.5853C1026.74 86.5853 1025.33 86.1863 1024.2 85.3885C1023.08 84.5906 1022.41 83.5032 1022.21 82.1265H1024.32C1024.56 82.9088 1025.04 83.5346 1025.77 84.0039C1026.51 84.4889 1027.39 84.7314 1028.42 84.7314C1029.6 84.7314 1030.56 84.3638 1031.29 83.6284C1032.04 82.8931 1032.41 81.8605 1032.41 80.5308V77.832C1031.99 78.583 1031.36 79.2087 1030.54 79.7094C1029.71 80.2101 1028.74 80.4604 1027.63 80.4604C1026.48 80.4604 1025.44 80.1788 1024.51 79.6155C1023.59 79.0523 1022.85 78.2623 1022.32 77.2454C1021.79 76.2284 1021.53 75.0708 1021.53 73.7722C1021.53 72.458 1021.79 71.3082 1022.32 70.3225C1022.85 69.3213 1023.59 68.5469 1024.51 67.9993C1025.44 67.4517 1026.48 67.1779 1027.63 67.1779ZM1032.41 73.7957C1032.41 72.8257 1032.22 71.9808 1031.83 71.2612C1031.43 70.5416 1030.9 69.994 1030.23 69.6185C1029.58 69.2274 1028.85 69.0318 1028.05 69.0318C1027.25 69.0318 1026.53 69.2196 1025.87 69.595C1025.21 69.9705 1024.69 70.5181 1024.29 71.2378C1023.9 71.9574 1023.71 72.8022 1023.71 73.7722C1023.71 74.7578 1023.9 75.6183 1024.29 76.3536C1024.69 77.0732 1025.21 77.6287 1025.87 78.0198C1026.53 78.3952 1027.25 78.583 1028.05 78.583C1028.85 78.583 1029.58 78.3952 1030.23 78.0198C1030.9 77.6287 1031.43 77.0732 1031.83 76.3536C1032.22 75.6183 1032.41 74.7657 1032.41 73.7957ZM1048.02 67.1545C1049.58 67.1545 1050.85 67.6317 1051.82 68.586C1052.79 69.5246 1053.28 70.8857 1053.28 72.6692V80.2492H1051.17V72.9743C1051.17 71.6915 1050.84 70.7136 1050.21 70.0409C1049.56 69.3525 1048.69 69.0084 1047.57 69.0084C1046.45 69.0084 1045.54 69.3604 1044.87 70.0644C1044.22 70.7684 1043.89 71.7931 1043.89 73.1386V80.2492H1041.76V67.3891H1043.89V69.2196C1044.31 68.5625 1044.88 68.0541 1045.61 67.6942C1046.34 67.3343 1047.15 67.1545 1048.02 67.1545ZM1062.54 77.2923L1059.91 83.605H1058.48L1060.2 77.2923H1062.54Z" fill="black"/>
<path opacity="0.65" d="M182.013 104.856V112.436C182.013 113.062 182.146 113.508 182.412 113.774C182.678 114.024 183.139 114.149 183.796 114.149H185.368V115.956H183.444C182.255 115.956 181.364 115.682 180.769 115.135C180.175 114.587 179.877 113.688 179.877 112.436V104.856H178.211V103.096H179.877V99.8577H182.013V103.096H185.368V104.856H182.013ZM197.91 102.861C198.88 102.861 199.757 103.073 200.538 103.495C201.321 103.902 201.931 104.52 202.369 105.349C202.823 106.178 203.049 107.187 203.049 108.376V115.956H200.937V108.681C200.937 107.399 200.617 106.421 199.975 105.748C199.334 105.06 198.458 104.715 197.347 104.715C196.22 104.715 195.322 105.067 194.648 105.771C193.991 106.475 193.663 107.5 193.663 108.846V115.956H191.527V98.5905H193.663V104.927C194.085 104.27 194.665 103.761 195.399 103.401C196.15 103.041 196.988 102.861 197.91 102.861ZM209.311 109.479C209.311 108.165 209.577 107.015 210.109 106.03C210.642 105.028 211.369 104.254 212.291 103.706C213.23 103.159 214.271 102.885 215.413 102.885C216.539 102.885 217.517 103.127 218.346 103.612C219.175 104.097 219.794 104.708 220.2 105.443V103.096H222.359V115.956H220.2V113.563C219.777 114.313 219.144 114.939 218.299 115.44C217.471 115.925 216.5 116.167 215.389 116.167C214.247 116.167 213.215 115.886 212.291 115.323C211.369 114.759 210.642 113.969 210.109 112.952C209.577 111.935 209.311 110.778 209.311 109.479ZM220.2 109.503C220.2 108.533 220.005 107.688 219.613 106.968C219.222 106.249 218.691 105.701 218.017 105.326C217.36 104.934 216.633 104.739 215.835 104.739C215.037 104.739 214.31 104.927 213.653 105.302C212.995 105.678 212.472 106.225 212.08 106.945C211.689 107.664 211.494 108.509 211.494 109.479C211.494 110.465 211.689 111.325 212.08 112.061C212.472 112.78 212.995 113.336 213.653 113.727C214.31 114.102 215.037 114.29 215.835 114.29C216.633 114.29 217.36 114.102 218.017 113.727C218.691 113.336 219.222 112.78 219.613 112.061C220.005 111.325 220.2 110.473 220.2 109.503ZM232.144 104.856V112.436C232.144 113.062 232.277 113.508 232.543 113.774C232.809 114.024 233.27 114.149 233.927 114.149H235.499V115.956H233.575C232.386 115.956 231.495 115.682 230.9 115.135C230.306 114.587 230.008 113.688 230.008 112.436V104.856H228.342V103.096H230.008V99.8577H232.144V103.096H235.499V104.856H232.144ZM253.621 105.185C253.997 104.449 254.528 103.878 255.217 103.472C255.921 103.065 256.774 102.861 257.775 102.861V105.067H257.212C254.818 105.067 253.621 106.366 253.621 108.963V115.956H251.486V103.096H253.621V105.185ZM275.545 109.033C275.545 109.44 275.521 109.87 275.474 110.324H265.196C265.274 111.591 265.704 112.585 266.486 113.304C267.284 114.008 268.246 114.36 269.373 114.36C270.296 114.36 271.062 114.149 271.673 113.727C272.298 113.289 272.737 112.71 272.987 111.99H275.287C274.943 113.226 274.254 114.235 273.221 115.017C272.189 115.784 270.906 116.167 269.373 116.167C268.153 116.167 267.058 115.894 266.087 115.346C265.133 114.798 264.382 114.024 263.835 113.023C263.287 112.006 263.013 110.832 263.013 109.503C263.013 108.173 263.279 107.007 263.811 106.006C264.343 105.005 265.086 104.238 266.04 103.706C267.011 103.159 268.121 102.885 269.373 102.885C270.593 102.885 271.673 103.151 272.611 103.683C273.55 104.215 274.269 104.95 274.77 105.889C275.287 106.812 275.545 107.86 275.545 109.033ZM273.339 108.587C273.339 107.774 273.159 107.078 272.799 106.499C272.439 105.904 271.946 105.458 271.321 105.161C270.71 104.848 270.03 104.692 269.279 104.692C268.199 104.692 267.276 105.036 266.51 105.724C265.759 106.413 265.328 107.367 265.219 108.587H273.339ZM281.137 109.479C281.137 108.165 281.402 107.015 281.935 106.03C282.466 105.028 283.194 104.254 284.117 103.706C285.056 103.159 286.104 102.885 287.262 102.885C288.372 102.885 289.342 103.135 290.172 103.636C291.017 104.121 291.634 104.723 292.026 105.443V103.096H294.185V122.058H292.026V113.586C291.619 114.306 290.993 114.916 290.148 115.416C289.304 115.917 288.318 116.167 287.192 116.167C286.065 116.167 285.04 115.886 284.117 115.323C283.194 114.759 282.466 113.969 281.935 112.952C281.402 111.935 281.137 110.778 281.137 109.479ZM292.026 109.503C292.026 108.533 291.83 107.688 291.439 106.968C291.047 106.249 290.516 105.701 289.843 105.326C289.186 104.934 288.459 104.739 287.661 104.739C286.863 104.739 286.136 104.927 285.478 105.302C284.821 105.678 284.297 106.225 283.906 106.945C283.514 107.664 283.319 108.509 283.319 109.479C283.319 110.465 283.514 111.325 283.906 112.061C284.297 112.78 284.821 113.336 285.478 113.727C286.136 114.102 286.863 114.29 287.661 114.29C288.459 114.29 289.186 114.102 289.843 113.727C290.516 113.336 291.047 112.78 291.439 112.061C291.83 111.325 292.026 110.473 292.026 109.503ZM312.77 103.096V115.956H310.634V114.055C310.227 114.712 309.656 115.229 308.921 115.604C308.201 115.964 307.403 116.144 306.527 116.144C305.526 116.144 304.627 115.941 303.829 115.534C303.031 115.111 302.397 114.486 301.928 113.656C301.474 112.827 301.247 111.818 301.247 110.629V103.096H303.359V110.348C303.359 111.615 303.68 112.593 304.322 113.281C304.962 113.954 305.839 114.29 306.95 114.29C308.092 114.29 308.992 113.938 309.649 113.234C310.306 112.53 310.634 111.505 310.634 110.16V103.096H312.77ZM321.05 101.008C320.642 101.008 320.299 100.867 320.017 100.585C319.735 100.304 319.595 99.9594 319.595 99.5526C319.595 99.1458 319.735 98.8017 320.017 98.5201C320.299 98.2385 320.642 98.0977 321.05 98.0977C321.44 98.0977 321.769 98.2385 322.035 98.5201C322.317 98.8017 322.458 99.1458 322.458 99.5526C322.458 99.9594 322.317 100.304 322.035 100.585C321.769 100.867 321.44 101.008 321.05 101.008ZM322.082 103.096V115.956H319.947V103.096H322.082ZM331.428 105.185C331.804 104.449 332.335 103.878 333.024 103.472C333.728 103.065 334.58 102.861 335.582 102.861V105.067H335.019C332.625 105.067 331.428 106.366 331.428 108.963V115.956H329.293V103.096H331.428V105.185ZM353.352 109.033C353.352 109.44 353.328 109.87 353.281 110.324H343.003C343.081 111.591 343.511 112.585 344.293 113.304C345.091 114.008 346.053 114.36 347.18 114.36C348.103 114.36 348.869 114.149 349.48 113.727C350.105 113.289 350.544 112.71 350.794 111.99H353.094C352.75 113.226 352.061 114.235 351.028 115.017C349.996 115.784 348.713 116.167 347.18 116.167C345.959 116.167 344.865 115.894 343.894 115.346C342.94 114.798 342.189 114.024 341.642 113.023C341.094 112.006 340.82 110.832 340.82 109.503C340.82 108.173 341.086 107.007 341.618 106.006C342.15 105.005 342.893 104.238 343.847 103.706C344.818 103.159 345.928 102.885 347.18 102.885C348.4 102.885 349.48 103.151 350.418 103.683C351.357 104.215 352.076 104.95 352.577 105.889C353.094 106.812 353.352 107.86 353.352 109.033ZM351.146 108.587C351.146 107.774 350.966 107.078 350.606 106.499C350.246 105.904 349.753 105.458 349.128 105.161C348.517 104.848 347.837 104.692 347.086 104.692C346.006 104.692 345.083 105.036 344.317 105.724C343.566 106.413 343.135 107.367 343.026 108.587H351.146ZM364.294 116.167C363.309 116.167 362.424 116.003 361.643 115.675C360.86 115.33 360.242 114.861 359.789 114.267C359.335 113.656 359.085 112.96 359.038 112.178H361.244C361.306 112.819 361.603 113.343 362.136 113.75C362.682 114.157 363.395 114.36 364.271 114.36C365.084 114.36 365.726 114.181 366.195 113.821C366.665 113.461 366.899 113.007 366.899 112.46C366.899 111.896 366.648 111.482 366.148 111.216C365.647 110.934 364.873 110.66 363.825 110.394C362.87 110.144 362.089 109.894 361.478 109.644C360.884 109.378 360.367 108.994 359.93 108.494C359.507 107.977 359.296 107.305 359.296 106.475C359.296 105.818 359.491 105.216 359.883 104.668C360.273 104.121 360.829 103.691 361.549 103.378C362.268 103.049 363.09 102.885 364.013 102.885C365.436 102.885 366.586 103.245 367.463 103.964C368.338 104.684 368.807 105.67 368.871 106.921H366.735C366.688 106.249 366.414 105.709 365.914 105.302C365.428 104.895 364.771 104.692 363.942 104.692C363.175 104.692 362.565 104.856 362.112 105.185C361.658 105.513 361.431 105.944 361.431 106.475C361.431 106.898 361.564 107.25 361.83 107.531C362.112 107.797 362.456 108.016 362.863 108.189C363.285 108.345 363.864 108.525 364.6 108.728C365.522 108.979 366.273 109.229 366.852 109.479C367.431 109.714 367.924 110.074 368.331 110.559C368.753 111.044 368.972 111.677 368.988 112.46C368.988 113.164 368.792 113.797 368.401 114.36C368.009 114.924 367.454 115.37 366.735 115.698C366.031 116.011 365.217 116.167 364.294 116.167ZM384.603 109.479C384.603 108.165 384.869 107.015 385.401 106.03C385.932 105.028 386.66 104.254 387.583 103.706C388.522 103.159 389.563 102.885 390.704 102.885C391.831 102.885 392.808 103.127 393.638 103.612C394.467 104.097 395.084 104.708 395.492 105.443V103.096H397.651V115.956H395.492V113.563C395.069 114.313 394.436 114.939 393.591 115.44C392.761 115.925 391.792 116.167 390.681 116.167C389.539 116.167 388.507 115.886 387.583 115.323C386.66 114.759 385.932 113.969 385.401 112.952C384.869 111.935 384.603 110.778 384.603 109.479ZM395.492 109.503C395.492 108.533 395.296 107.688 394.905 106.968C394.514 106.249 393.982 105.701 393.309 105.326C392.652 104.934 391.925 104.739 391.127 104.739C390.329 104.739 389.601 104.927 388.944 105.302C388.287 105.678 387.763 106.225 387.372 106.945C386.981 107.664 386.785 108.509 386.785 109.479C386.785 110.465 386.981 111.325 387.372 112.061C387.763 112.78 388.287 113.336 388.944 113.727C389.601 114.102 390.329 114.29 391.127 114.29C391.925 114.29 392.652 114.102 393.309 113.727C393.982 113.336 394.514 112.78 394.905 112.061C395.296 111.325 395.492 110.473 395.492 109.503Z" fill="black"/>
<path opacity="0.4" d="M20.5673 140.571V148.151C20.5673 148.776 20.7003 149.222 20.9663 149.489C21.2322 149.739 21.6937 149.864 22.3508 149.864H23.9231V151.671H21.9988C20.8098 151.671 19.9181 151.398 19.3235 150.85C18.729 150.302 18.4318 149.403 18.4318 148.151V140.571H16.7656V138.811H18.4318V135.573H20.5673V138.811H23.9231V140.571H20.5673ZM35.6903 151.882C34.4856 151.882 33.3905 151.609 32.4049 151.061C31.4349 150.513 30.6683 149.739 30.1051 148.738C29.5575 147.72 29.2837 146.547 29.2837 145.218C29.2837 143.903 29.5653 142.745 30.1286 141.745C30.7074 140.727 31.4897 139.953 32.4753 139.421C33.4609 138.873 34.5639 138.6 35.7841 138.6C37.0044 138.6 38.1074 138.873 39.093 139.421C40.0786 139.953 40.8531 140.72 41.4163 141.721C41.9951 142.722 42.2846 143.888 42.2846 145.218C42.2846 146.547 41.9873 147.72 41.3928 148.738C40.814 149.739 40.0239 150.513 39.0226 151.061C38.0214 151.609 36.9106 151.882 35.6903 151.882ZM35.6903 150.005C36.4568 150.005 37.1766 149.825 37.8493 149.465C38.522 149.105 39.0617 148.565 39.4685 147.846C39.8909 147.127 40.1021 146.25 40.1021 145.218C40.1021 144.185 39.8988 143.309 39.492 142.589C39.0852 141.87 38.5533 141.337 37.8962 140.994C37.2391 140.633 36.5272 140.454 35.7607 140.454C34.9784 140.454 34.2588 140.633 33.6017 140.994C32.9602 141.337 32.444 141.87 32.0529 142.589C31.6618 143.309 31.4662 144.185 31.4662 145.218C31.4662 146.266 31.6539 147.15 32.0294 147.869C32.4205 148.589 32.9368 149.128 33.5782 149.489C34.2197 149.833 34.9237 150.005 35.6903 150.005ZM63.7242 140.571H61.0255V151.671H58.8899V140.571H57.2238V138.811H58.8899V137.896C58.8899 136.456 59.2576 135.408 59.9929 134.751C60.7438 134.079 61.9407 133.742 63.5834 133.742V135.526C62.6447 135.526 61.9798 135.713 61.5887 136.089C61.2132 136.449 61.0255 137.051 61.0255 137.896V138.811H63.7242V140.571ZM81.1902 138.811V151.671H79.0547V149.77C78.6479 150.427 78.0769 150.944 77.3416 151.319C76.622 151.679 75.8241 151.859 74.9479 151.859C73.9467 151.859 73.0471 151.656 72.2492 151.249C71.4513 150.826 70.8177 150.201 70.3484 149.371C69.8946 148.542 69.6678 147.533 69.6678 146.344V138.811H71.7798V146.062C71.7798 147.33 72.1005 148.307 72.742 148.996C73.3835 149.668 74.2595 150.005 75.3703 150.005C76.5124 150.005 77.412 149.653 78.0691 148.949C78.7261 148.245 79.0547 147.221 79.0547 145.875V138.811H81.1902ZM90.5025 134.305V151.671H88.367V134.305H90.5025ZM102.946 140.571H100.248V151.671H98.1122V140.571H96.446V138.811H98.1122V137.896C98.1122 136.456 98.4798 135.408 99.2151 134.751C99.9661 134.079 101.163 133.742 102.806 133.742V135.526C101.867 135.526 101.202 135.713 100.811 136.089C100.435 136.449 100.248 137.051 100.248 137.896V138.811H102.946V140.571ZM110.11 136.723C109.704 136.723 109.359 136.582 109.077 136.3C108.796 136.019 108.655 135.675 108.655 135.268C108.655 134.86 108.796 134.517 109.077 134.235C109.359 133.953 109.704 133.813 110.11 133.813C110.502 133.813 110.83 133.953 111.096 134.235C111.377 134.517 111.518 134.86 111.518 135.268C111.518 135.675 111.377 136.019 111.096 136.3C110.83 136.582 110.502 136.723 110.11 136.723ZM111.142 138.811V151.671H109.007V138.811H111.142ZM120.49 134.305V151.671H118.354V134.305H120.49ZM129.836 134.305V151.671H127.7V134.305H129.836ZM141.599 151.882C140.613 151.882 139.73 151.718 138.947 151.39C138.164 151.046 137.547 150.576 137.093 149.981C136.639 149.371 136.389 148.675 136.342 147.893H138.548C138.61 148.535 138.908 149.058 139.44 149.465C139.988 149.872 140.699 150.075 141.575 150.075C142.389 150.075 143.03 149.896 143.5 149.536C143.969 149.175 144.204 148.722 144.204 148.175C144.204 147.611 143.954 147.197 143.453 146.931C142.952 146.649 142.177 146.376 141.129 146.109C140.175 145.859 139.393 145.608 138.783 145.358C138.188 145.092 137.672 144.71 137.234 144.209C136.812 143.692 136.6 143.02 136.6 142.19C136.6 141.533 136.796 140.931 137.187 140.383C137.578 139.835 138.134 139.406 138.853 139.093C139.572 138.764 140.394 138.6 141.317 138.6C142.741 138.6 143.89 138.96 144.767 139.679C145.643 140.399 146.113 141.384 146.175 142.636H144.039C143.992 141.964 143.719 141.424 143.218 141.017C142.733 140.61 142.076 140.407 141.247 140.407C140.481 140.407 139.87 140.571 139.416 140.9C138.962 141.228 138.736 141.659 138.736 142.19C138.736 142.613 138.868 142.965 139.135 143.246C139.416 143.513 139.76 143.731 140.167 143.903C140.59 144.06 141.168 144.24 141.904 144.443C142.827 144.693 143.578 144.944 144.157 145.194C144.735 145.429 145.228 145.789 145.635 146.274C146.058 146.758 146.277 147.392 146.292 148.175C146.292 148.879 146.096 149.512 145.706 150.075C145.315 150.639 144.759 151.084 144.039 151.413C143.335 151.726 142.522 151.882 141.599 151.882ZM163.808 136.723C163.402 136.723 163.057 136.582 162.775 136.3C162.494 136.019 162.353 135.675 162.353 135.268C162.353 134.86 162.494 134.517 162.775 134.235C163.057 133.953 163.402 133.813 163.808 133.813C164.2 133.813 164.528 133.953 164.794 134.235C165.075 134.517 165.216 134.86 165.216 135.268C165.216 135.675 165.075 136.019 164.794 136.3C164.528 136.582 164.2 136.723 163.808 136.723ZM164.841 138.811V151.671H162.705V138.811H164.841ZM174.656 140.571V148.151C174.656 148.776 174.79 149.222 175.055 149.489C175.321 149.739 175.782 149.864 176.439 149.864H178.012V151.671H176.087C174.899 151.671 174.007 151.398 173.412 150.85C172.818 150.302 172.52 149.403 172.52 148.151V140.571H170.854V138.811H172.52V135.573H174.656V138.811H178.012V140.571H174.656ZM188.723 151.882C187.737 151.882 186.854 151.718 186.071 151.39C185.29 151.046 184.671 150.576 184.217 149.981C183.764 149.371 183.513 148.675 183.466 147.893H185.672C185.735 148.535 186.032 149.058 186.564 149.465C187.112 149.872 187.824 150.075 188.699 150.075C189.514 150.075 190.154 149.896 190.624 149.536C191.093 149.175 191.328 148.722 191.328 148.175C191.328 147.611 191.078 147.197 190.577 146.931C190.077 146.649 189.303 146.376 188.254 146.109C187.3 145.859 186.517 145.608 185.907 145.358C185.313 145.092 184.797 144.71 184.358 144.209C183.936 143.692 183.724 143.02 183.724 142.19C183.724 141.533 183.92 140.931 184.311 140.383C184.703 139.835 185.258 139.406 185.977 139.093C186.698 138.764 187.519 138.6 188.441 138.6C189.866 138.6 191.016 138.96 191.891 139.679C192.767 140.399 193.237 141.384 193.299 142.636H191.164C191.117 141.964 190.843 141.424 190.342 141.017C189.858 140.61 189.2 140.407 188.371 140.407C187.605 140.407 186.995 140.571 186.541 140.9C186.087 141.228 185.86 141.659 185.86 142.19C185.86 142.613 185.994 142.965 186.259 143.246C186.54 143.513 186.885 143.731 187.291 143.903C187.714 144.06 188.293 144.24 189.028 144.443C189.951 144.693 190.702 144.944 191.281 145.194C191.86 145.429 192.353 145.789 192.759 146.274C193.182 146.758 193.401 147.392 193.416 148.175C193.416 148.879 193.222 149.512 192.83 150.075C192.439 150.639 191.884 151.084 191.164 151.413C190.46 151.726 189.646 151.882 188.723 151.882ZM211.966 141.181C212.388 140.446 213.014 139.835 213.843 139.351C214.688 138.85 215.665 138.6 216.776 138.6C217.918 138.6 218.951 138.873 219.874 139.421C220.813 139.969 221.548 140.744 222.08 141.745C222.612 142.73 222.878 143.88 222.878 145.194C222.878 146.493 222.612 147.65 222.08 148.667C221.548 149.685 220.813 150.474 219.874 151.037C218.951 151.601 217.918 151.882 216.776 151.882C215.682 151.882 214.711 151.639 213.867 151.155C213.037 150.654 212.403 150.037 211.966 149.301V157.773H209.83V138.811H211.966V141.181ZM220.695 145.194C220.695 144.224 220.5 143.379 220.109 142.66C219.718 141.94 219.185 141.392 218.513 141.017C217.856 140.642 217.128 140.454 216.331 140.454C215.548 140.454 214.821 140.65 214.148 141.04C213.491 141.416 212.959 141.971 212.552 142.707C212.162 143.426 211.966 144.264 211.966 145.218C211.966 146.188 212.162 147.04 212.552 147.776C212.959 148.495 213.491 149.051 214.148 149.442C214.821 149.817 215.548 150.005 216.331 150.005C217.128 150.005 217.856 149.817 218.513 149.442C219.185 149.051 219.718 148.495 220.109 147.776C220.5 147.04 220.695 146.18 220.695 145.194ZM240.665 138.811V151.671H238.53V149.77C238.122 150.427 237.551 150.944 236.816 151.319C236.096 151.679 235.298 151.859 234.423 151.859C233.421 151.859 232.522 151.656 231.724 151.249C230.926 150.826 230.293 150.201 229.823 149.371C229.369 148.542 229.143 147.533 229.143 146.344V138.811H231.255V146.062C231.255 147.33 231.575 148.307 232.217 148.996C232.858 149.668 233.734 150.005 234.845 150.005C235.987 150.005 236.887 149.653 237.544 148.949C238.201 148.245 238.53 147.221 238.53 145.875V138.811H240.665ZM249.977 140.9C250.353 140.164 250.884 139.594 251.573 139.187C252.277 138.779 253.129 138.576 254.131 138.576V140.782H253.568C251.174 140.782 249.977 142.081 249.977 144.678V151.671H247.842V138.811H249.977V140.9ZM262.303 141.181C262.725 140.446 263.351 139.835 264.18 139.351C265.025 138.85 266.002 138.6 267.114 138.6C268.255 138.6 269.288 138.873 270.211 139.421C271.15 139.969 271.885 140.744 272.417 141.745C272.949 142.73 273.215 143.88 273.215 145.194C273.215 146.493 272.949 147.65 272.417 148.667C271.885 149.685 271.15 150.474 270.211 151.037C269.288 151.601 268.255 151.882 267.114 151.882C266.018 151.882 265.048 151.639 264.204 151.155C263.374 150.654 262.74 150.037 262.303 149.301V157.773H260.167V138.811H262.303V141.181ZM271.033 145.194C271.033 144.224 270.837 143.379 270.446 142.66C270.054 141.94 269.522 141.392 268.85 141.017C268.193 140.642 267.466 140.454 266.668 140.454C265.885 140.454 265.158 140.65 264.485 141.04C263.828 141.416 263.296 141.971 262.889 142.707C262.498 143.426 262.303 144.264 262.303 145.218C262.303 146.188 262.498 147.04 262.889 147.776C263.296 148.495 263.828 149.051 264.485 149.442C265.158 149.817 265.885 150.005 266.668 150.005C267.466 150.005 268.193 149.817 268.85 149.442C269.522 149.051 270.054 148.495 270.446 147.776C270.837 147.04 271.033 146.18 271.033 145.194ZM285.206 151.882C284.001 151.882 282.906 151.609 281.92 151.061C280.95 150.513 280.184 149.739 279.621 148.738C279.073 147.72 278.799 146.547 278.799 145.218C278.799 143.903 279.081 142.745 279.644 141.745C280.223 140.727 281.005 139.953 281.991 139.421C282.976 138.873 284.079 138.6 285.3 138.6C286.52 138.6 287.623 138.873 288.608 139.421C289.594 139.953 290.369 140.72 290.932 141.721C291.51 142.722 291.8 143.888 291.8 145.218C291.8 146.547 291.502 147.72 290.908 148.738C290.329 149.739 289.539 150.513 288.538 151.061C287.536 151.609 286.426 151.882 285.206 151.882ZM285.206 150.005C285.972 150.005 286.691 149.825 287.365 149.465C288.037 149.105 288.577 148.565 288.984 147.846C289.406 147.127 289.618 146.25 289.618 145.218C289.618 144.185 289.414 143.309 289.007 142.589C288.6 141.87 288.069 141.337 287.412 140.994C286.755 140.633 286.042 140.454 285.276 140.454C284.494 140.454 283.774 140.633 283.117 140.994C282.475 141.337 281.959 141.87 281.568 142.589C281.177 143.309 280.982 144.185 280.982 145.218C280.982 146.266 281.169 147.15 281.545 147.869C281.936 148.589 282.452 149.128 283.094 149.489C283.734 149.833 284.438 150.005 285.206 150.005ZM302.732 151.882C301.746 151.882 300.861 151.718 300.08 151.39C299.297 151.046 298.679 150.576 298.226 149.981C297.772 149.371 297.522 148.675 297.475 147.893H299.681C299.743 148.535 300.04 149.058 300.573 149.465C301.12 149.872 301.832 150.075 302.708 150.075C303.521 150.075 304.163 149.896 304.632 149.536C305.102 149.175 305.336 148.722 305.336 148.175C305.336 147.611 305.086 147.197 304.586 146.931C304.085 146.649 303.31 146.376 302.262 146.109C301.307 145.859 300.526 145.608 299.916 145.358C299.321 145.092 298.804 144.71 298.367 144.209C297.944 143.692 297.733 143.02 297.733 142.19C297.733 141.533 297.928 140.931 298.32 140.383C298.711 139.835 299.266 139.406 299.986 139.093C300.705 138.764 301.527 138.6 302.45 138.6C303.873 138.6 305.023 138.96 305.9 139.679C306.775 140.399 307.244 141.384 307.308 142.636H305.172C305.125 141.964 304.851 141.424 304.351 141.017C303.865 140.61 303.208 140.407 302.38 140.407C301.612 140.407 301.002 140.571 300.549 140.9C300.095 141.228 299.869 141.659 299.869 142.19C299.869 142.613 300.001 142.965 300.268 143.246C300.549 143.513 300.893 143.731 301.3 143.903C301.723 144.06 302.301 144.24 303.037 144.443C303.959 144.693 304.71 144.944 305.29 145.194C305.868 145.429 306.361 145.789 306.768 146.274C307.19 146.758 307.409 147.392 307.425 148.175C307.425 148.879 307.229 149.512 306.838 150.075C306.447 150.639 305.892 151.084 305.172 151.413C304.468 151.726 303.654 151.882 302.732 151.882ZM325.744 144.748C325.744 145.155 325.72 145.585 325.673 146.039H315.395C315.473 147.306 315.904 148.3 316.685 149.019C317.483 149.723 318.445 150.075 319.572 150.075C320.495 150.075 321.262 149.864 321.872 149.442C322.498 149.004 322.936 148.424 323.186 147.705H325.486C325.142 148.941 324.453 149.95 323.421 150.732C322.388 151.499 321.105 151.882 319.572 151.882C318.352 151.882 317.257 151.609 316.286 151.061C315.332 150.513 314.582 149.739 314.034 148.738C313.487 147.72 313.212 146.547 313.212 145.218C313.212 143.888 313.479 142.722 314.01 141.721C314.543 140.72 315.286 139.953 316.24 139.421C317.21 138.873 318.321 138.6 319.572 138.6C320.792 138.6 321.872 138.866 322.81 139.398C323.749 139.929 324.469 140.665 324.969 141.604C325.486 142.527 325.744 143.575 325.744 144.748ZM323.538 144.302C323.538 143.489 323.358 142.792 322.998 142.214C322.639 141.619 322.146 141.173 321.52 140.876C320.91 140.563 320.229 140.407 319.478 140.407C318.399 140.407 317.476 140.751 316.709 141.439C315.958 142.128 315.528 143.082 315.418 144.302H323.538ZM359.093 138.811L355.08 151.671H352.874L349.776 141.463L346.679 151.671H344.473L340.436 138.811H342.619L345.576 149.606L348.767 138.811H350.95L354.071 149.629L356.981 138.811H359.093ZM365.886 136.723C365.479 136.723 365.135 136.582 364.853 136.3C364.572 136.019 364.431 135.675 364.431 135.268C364.431 134.86 364.572 134.517 364.853 134.235C365.135 133.953 365.479 133.813 365.886 133.813C366.277 133.813 366.605 133.953 366.872 134.235C367.153 134.517 367.294 134.86 367.294 135.268C367.294 135.675 367.153 136.019 366.872 136.3C366.605 136.582 366.277 136.723 365.886 136.723ZM366.918 138.811V151.671H364.783V138.811H366.918ZM376.734 140.571V148.151C376.734 148.776 376.867 149.222 377.133 149.489C377.399 149.739 377.86 149.864 378.517 149.864H380.09V151.671H378.165C376.977 151.671 376.085 151.398 375.49 150.85C374.895 150.302 374.598 149.403 374.598 148.151V140.571H372.932V138.811H374.598V135.573H376.734V138.811H380.09V140.571H376.734ZM392.631 138.576C393.602 138.576 394.477 138.788 395.26 139.21C396.042 139.617 396.652 140.234 397.09 141.064C397.544 141.893 397.771 142.903 397.771 144.091V151.671H395.659V144.396C395.659 143.114 395.338 142.135 394.696 141.463C394.055 140.774 393.179 140.43 392.068 140.43C390.942 140.43 390.042 140.782 389.369 141.486C388.712 142.19 388.384 143.215 388.384 144.561V151.671H386.248V134.305H388.384V140.642C388.806 139.984 389.385 139.476 390.12 139.116C390.871 138.756 391.708 138.576 392.631 138.576Z" fill="black"/>
<path opacity="0.65" d="M960.995 114.22H966.721V115.956H958.859V99.5996H960.995V114.22ZM984.294 109.033C984.294 109.44 984.27 109.87 984.223 110.324H973.945C974.022 111.591 974.453 112.585 975.235 113.304C976.033 114.008 976.995 114.36 978.122 114.36C979.044 114.36 979.811 114.149 980.422 113.727C981.047 113.289 981.485 112.71 981.736 111.99H984.036C983.691 113.226 983.003 114.235 981.97 115.017C980.938 115.784 979.654 116.167 978.122 116.167C976.902 116.167 975.806 115.894 974.836 115.346C973.881 114.798 973.13 114.024 972.584 113.023C972.036 112.006 971.762 110.832 971.762 109.503C971.762 108.173 972.028 107.007 972.56 106.006C973.092 105.005 973.834 104.238 974.789 103.706C975.759 103.159 976.87 102.885 978.122 102.885C979.342 102.885 980.422 103.151 981.36 103.683C982.299 104.215 983.018 104.95 983.519 105.889C984.036 106.812 984.294 107.86 984.294 109.033ZM982.088 108.587C982.088 107.774 981.907 107.078 981.548 106.499C981.188 105.904 980.695 105.458 980.07 105.161C979.46 104.848 978.779 104.692 978.028 104.692C976.948 104.692 976.025 105.036 975.259 105.724C974.508 106.413 974.077 107.367 973.968 108.587H982.088ZM989.885 109.479C989.885 108.165 990.151 107.015 990.683 106.03C991.216 105.028 991.943 104.254 992.865 103.706C993.804 103.159 994.845 102.885 995.987 102.885C997.113 102.885 998.091 103.127 998.92 103.612C999.749 104.097 1000.37 104.708 1000.77 105.443V103.096H1002.93V115.956H1000.77V113.563C1000.35 114.313 999.718 114.939 998.873 115.44C998.044 115.925 997.074 116.167 995.963 116.167C994.821 116.167 993.789 115.886 992.865 115.323C991.943 114.759 991.216 113.969 990.683 112.952C990.151 111.935 989.885 110.778 989.885 109.479ZM1000.77 109.503C1000.77 108.533 1000.58 107.688 1000.19 106.968C999.796 106.249 999.265 105.701 998.591 105.326C997.934 104.934 997.207 104.739 996.409 104.739C995.611 104.739 994.884 104.927 994.226 105.302C993.569 105.678 993.046 106.225 992.654 106.945C992.263 107.664 992.067 108.509 992.067 109.479C992.067 110.465 992.263 111.325 992.654 112.061C993.046 112.78 993.569 113.336 994.226 113.727C994.884 114.102 995.611 114.29 996.409 114.29C997.207 114.29 997.934 114.102 998.591 113.727C999.265 113.336 999.796 112.78 1000.19 112.061C1000.58 111.325 1000.77 110.473 1000.77 109.503ZM1012.25 105.185C1012.62 104.449 1013.16 103.878 1013.84 103.472C1014.55 103.065 1015.4 102.861 1016.4 102.861V105.067H1015.84C1013.45 105.067 1012.25 106.366 1012.25 108.963V115.956H1010.11V103.096H1012.25V105.185ZM1028.71 102.861C1030.27 102.861 1031.54 103.339 1032.5 104.293C1033.47 105.232 1033.96 106.593 1033.96 108.376V115.956H1031.85V108.681C1031.85 107.399 1031.52 106.421 1030.88 105.748C1030.25 105.06 1029.37 104.715 1028.26 104.715C1027.13 104.715 1026.23 105.067 1025.56 105.771C1024.9 106.475 1024.58 107.5 1024.58 108.846V115.956H1022.43V103.096H1024.58V104.927C1025 104.27 1025.57 103.761 1026.29 103.401C1027.03 103.041 1027.83 102.861 1028.71 102.861ZM1042.13 101.008C1041.72 101.008 1041.37 100.867 1041.1 100.585C1040.81 100.304 1040.67 99.9594 1040.67 99.5526C1040.67 99.1458 1040.81 98.8017 1041.1 98.5201C1041.37 98.2385 1041.72 98.0977 1042.13 98.0977C1042.51 98.0977 1042.84 98.2385 1043.11 98.5201C1043.39 98.8017 1043.53 99.1458 1043.53 99.5526C1043.53 99.9594 1043.39 100.304 1043.11 100.585C1042.84 100.867 1042.51 101.008 1042.13 101.008ZM1043.16 103.096V115.956H1041.02V103.096H1043.16ZM1056.63 102.861C1058.2 102.861 1059.46 103.339 1060.43 104.293C1061.4 105.232 1061.89 106.593 1061.89 108.376V115.956H1059.78V108.681C1059.78 107.399 1059.46 106.421 1058.82 105.748C1058.18 105.06 1057.3 104.715 1056.19 104.715C1055.06 104.715 1054.16 105.067 1053.49 105.771C1052.83 106.475 1052.5 107.5 1052.5 108.846V115.956H1050.37V103.096H1052.5V104.927C1052.92 104.27 1053.49 103.761 1054.22 103.401C1054.95 103.041 1055.76 102.861 1056.63 102.861ZM1074.26 102.885C1075.37 102.885 1076.34 103.127 1077.16 103.612C1078.01 104.097 1078.63 104.708 1079.04 105.443V103.096H1081.19V116.238C1081.19 117.411 1080.95 118.452 1080.45 119.359C1079.95 120.282 1079.22 121.002 1078.29 121.518C1077.37 122.034 1076.29 122.292 1075.05 122.292C1073.36 122.292 1071.95 121.893 1070.83 121.095C1069.69 120.298 1069.03 119.21 1068.83 117.834H1070.94C1071.17 118.616 1071.66 119.242 1072.4 119.711C1073.13 120.196 1074.02 120.438 1075.05 120.438C1076.22 120.438 1077.17 120.071 1077.91 119.335C1078.66 118.6 1079.04 117.568 1079.04 116.238V113.539C1078.61 114.29 1077.99 114.916 1077.16 115.416C1076.34 115.917 1075.37 116.167 1074.26 116.167C1073.11 116.167 1072.07 115.886 1071.13 115.323C1070.21 114.759 1069.48 113.969 1068.95 112.952C1068.42 111.935 1068.15 110.778 1068.15 109.479C1068.15 108.165 1068.42 107.015 1068.95 106.03C1069.48 105.028 1070.21 104.254 1071.13 103.706C1072.07 103.159 1073.11 102.885 1074.26 102.885ZM1079.04 109.503C1079.04 108.533 1078.85 107.688 1078.45 106.968C1078.06 106.249 1077.53 105.701 1076.86 105.326C1076.2 104.934 1075.47 104.739 1074.67 104.739C1073.88 104.739 1073.15 104.927 1072.49 105.302C1071.84 105.678 1071.31 106.225 1070.92 106.945C1070.53 107.664 1070.34 108.509 1070.34 109.479C1070.34 110.465 1070.53 111.325 1070.92 112.061C1071.31 112.78 1071.84 113.336 1072.49 113.727C1073.15 114.102 1073.88 114.29 1074.67 114.29C1075.47 114.29 1076.2 114.102 1076.86 113.727C1077.53 113.336 1078.06 112.78 1078.45 112.061C1078.85 111.325 1079.04 110.473 1079.04 109.503ZM1097.41 109.503C1097.41 108.173 1097.67 107.015 1098.2 106.03C1098.73 105.028 1099.48 104.254 1100.42 103.706C1101.37 103.159 1102.46 102.885 1103.67 102.885C1105.25 102.885 1106.55 103.268 1107.57 104.035C1108.6 104.801 1109.28 105.865 1109.61 107.226H1107.31C1107.09 106.444 1106.66 105.826 1106.02 105.372C1105.4 104.919 1104.61 104.692 1103.67 104.692C1102.46 104.692 1101.47 105.114 1100.71 105.959C1099.97 106.788 1099.59 107.969 1099.59 109.503C1099.59 111.052 1099.97 112.248 1100.71 113.093C1101.47 113.938 1102.46 114.36 1103.67 114.36C1104.61 114.36 1105.4 114.141 1106.02 113.703C1106.65 113.265 1107.08 112.639 1107.31 111.826H1109.61C1109.26 113.14 1108.58 114.196 1107.55 114.994C1106.52 115.776 1105.22 116.167 1103.67 116.167C1102.46 116.167 1101.37 115.894 1100.42 115.346C1099.48 114.798 1098.73 114.024 1098.2 113.023C1097.67 112.022 1097.41 110.848 1097.41 109.503ZM1127.43 103.096V115.956H1125.3V114.055C1124.89 114.712 1124.32 115.229 1123.59 115.604C1122.86 115.964 1122.07 116.144 1121.19 116.144C1120.19 116.144 1119.29 115.941 1118.5 115.534C1117.7 115.111 1117.07 114.486 1116.6 113.656C1116.14 112.827 1115.92 111.818 1115.92 110.629V103.096H1118.03V110.348C1118.03 111.615 1118.34 112.593 1118.99 113.281C1119.63 113.954 1120.51 114.29 1121.62 114.29C1122.76 114.29 1123.66 113.938 1124.31 113.234C1124.98 112.53 1125.3 111.505 1125.3 110.16V103.096H1127.43ZM1136.75 105.185C1137.13 104.449 1137.66 103.878 1138.34 103.472C1139.05 103.065 1139.9 102.861 1140.9 102.861V105.067H1140.34C1137.94 105.067 1136.75 106.366 1136.75 108.963V115.956H1134.62V103.096H1136.75V105.185ZM1151.73 113.985L1155.72 103.096H1157.99L1152.94 115.956H1150.46L1145.41 103.096H1147.71L1151.73 113.985ZM1175.4 109.033C1175.4 109.44 1175.38 109.87 1175.33 110.324H1165.05C1165.12 111.591 1165.55 112.585 1166.34 113.304C1167.13 114.008 1168.1 114.36 1169.23 114.36C1170.14 114.36 1170.92 114.149 1171.52 113.727C1172.15 113.289 1172.59 112.71 1172.84 111.99H1175.14C1174.8 113.226 1174.1 114.235 1173.07 115.017C1172.04 115.784 1170.76 116.167 1169.23 116.167C1168 116.167 1166.91 115.894 1165.94 115.346C1164.98 114.798 1164.24 114.024 1163.69 113.023C1163.14 112.006 1162.87 110.832 1162.87 109.503C1162.87 108.173 1163.14 107.007 1163.67 106.006C1164.2 105.005 1164.94 104.238 1165.89 103.706C1166.86 103.159 1167.97 102.885 1169.23 102.885C1170.45 102.885 1171.52 103.151 1172.46 103.683C1173.4 104.215 1174.12 104.95 1174.62 105.889C1175.14 106.812 1175.4 107.86 1175.4 109.033ZM1173.2 108.587C1173.2 107.774 1173.01 107.078 1172.65 106.499C1172.29 105.904 1171.8 105.458 1171.18 105.161C1170.56 104.848 1169.88 104.692 1169.13 104.692C1168.05 104.692 1167.12 105.036 1166.36 105.724C1165.61 106.413 1165.19 107.367 1165.07 108.587H1173.2ZM1183.99 112.999L1181.37 119.312H1179.93L1181.64 112.999H1183.99Z" fill="black"/>
<path opacity="0.4" d="M960.995 137.051V142.519H966.956V144.279H960.995V149.911H967.66V151.671H958.859V135.291H967.66V137.051H960.995ZM979.695 140.571H976.996V151.671H974.861V140.571H973.195V138.811H974.861V137.896C974.861 136.456 975.228 135.408 975.964 134.751C976.715 134.079 977.912 133.742 979.554 133.742V135.526C978.616 135.526 977.95 135.713 977.56 136.089C977.184 136.449 976.996 137.051 976.996 137.896V138.811H979.695V140.571ZM990.989 140.571H988.29V151.671H986.155V140.571H984.489V138.811H986.155V137.896C986.155 136.456 986.523 135.408 987.258 134.751C988.009 134.079 989.205 133.742 990.848 133.742V135.526C989.91 135.526 989.245 135.713 988.854 136.089C988.478 136.449 988.29 137.051 988.29 137.896V138.811H990.989V140.571ZM1002.66 151.882C1001.45 151.882 1000.36 151.609 999.374 151.061C998.404 150.513 997.637 149.739 997.074 148.738C996.526 147.72 996.253 146.547 996.253 145.218C996.253 143.903 996.534 142.745 997.098 141.745C997.676 140.727 998.459 139.953 999.444 139.421C1000.43 138.873 1001.53 138.6 1002.75 138.6C1003.97 138.6 1005.08 138.873 1006.06 139.421C1007.05 139.953 1007.82 140.72 1008.39 141.721C1008.96 142.722 1009.25 143.888 1009.25 145.218C1009.25 146.547 1008.96 147.72 1008.36 148.738C1007.78 149.739 1006.99 150.513 1005.99 151.061C1004.99 151.609 1003.88 151.882 1002.66 151.882ZM1002.66 150.005C1003.43 150.005 1004.14 149.825 1004.82 149.465C1005.49 149.105 1006.03 148.565 1006.44 147.846C1006.86 147.127 1007.07 146.25 1007.07 145.218C1007.07 144.185 1006.87 143.309 1006.46 142.589C1006.05 141.87 1005.52 141.337 1004.87 140.994C1004.21 140.633 1003.5 140.454 1002.73 140.454C1001.95 140.454 1001.23 140.633 1000.57 140.994C999.929 141.337 999.413 141.87 999.022 142.589C998.63 143.309 998.435 144.185 998.435 145.218C998.435 146.266 998.623 147.15 998.998 147.869C999.389 148.589 999.906 149.128 1000.55 149.489C1001.19 149.833 1001.89 150.005 1002.66 150.005ZM1017.77 140.9C1018.14 140.164 1018.68 139.594 1019.36 139.187C1020.07 138.779 1020.92 138.576 1021.92 138.576V140.782H1021.36C1018.96 140.782 1017.77 142.081 1017.77 144.678V151.671H1015.63V138.811H1017.77V140.9ZM1030.57 140.571V148.151C1030.57 148.776 1030.7 149.222 1030.96 149.489C1031.23 149.739 1031.69 149.864 1032.34 149.864H1033.92V151.671H1031.99C1030.8 151.671 1029.91 151.398 1029.32 150.85C1028.72 150.302 1028.42 149.403 1028.42 148.151V140.571H1026.76V138.811H1028.42V135.573H1030.57V138.811H1033.92V140.571H1030.57ZM1044.63 151.882C1043.65 151.882 1042.76 151.718 1041.97 151.39C1041.2 151.046 1040.58 150.576 1040.13 149.981C1039.67 149.371 1039.42 148.675 1039.37 147.893H1041.58C1041.64 148.535 1041.94 149.058 1042.47 149.465C1043.01 149.872 1043.73 150.075 1044.61 150.075C1045.42 150.075 1046.06 149.896 1046.53 149.536C1047 149.175 1047.24 148.722 1047.24 148.175C1047.24 147.611 1046.98 147.197 1046.48 146.931C1045.98 146.649 1045.21 146.376 1044.16 146.109C1043.21 145.859 1042.42 145.608 1041.81 145.358C1041.22 145.092 1040.7 144.71 1040.27 144.209C1039.84 143.692 1039.63 143.02 1039.63 142.19C1039.63 141.533 1039.83 140.931 1040.22 140.383C1040.61 139.835 1041.17 139.406 1041.88 139.093C1042.61 138.764 1043.42 138.6 1044.35 138.6C1045.77 138.6 1046.92 138.96 1047.8 139.679C1048.68 140.399 1049.15 141.384 1049.21 142.636H1047.07C1047.02 141.964 1046.75 141.424 1046.25 141.017C1045.77 140.61 1045.11 140.407 1044.28 140.407C1043.51 140.407 1042.9 140.571 1042.44 140.9C1041.99 141.228 1041.77 141.659 1041.77 142.19C1041.77 142.613 1041.9 142.965 1042.17 143.246C1042.44 143.513 1042.79 143.731 1043.2 143.903C1043.62 144.06 1044.2 144.24 1044.93 144.443C1045.86 144.693 1046.61 144.944 1047.19 145.194C1047.77 145.429 1048.26 145.789 1048.67 146.274C1049.08 146.758 1049.31 147.392 1049.32 148.175C1049.32 148.879 1049.13 149.512 1048.74 150.075C1048.35 150.639 1047.79 151.084 1047.07 151.413C1046.37 151.726 1045.55 151.882 1044.63 151.882ZM1056.59 151.812C1056.19 151.812 1055.84 151.671 1055.55 151.39C1055.28 151.108 1055.14 150.764 1055.14 150.357C1055.14 149.95 1055.28 149.606 1055.55 149.324C1055.84 149.043 1056.19 148.902 1056.59 148.902C1056.98 148.902 1057.31 149.043 1057.57 149.324C1057.86 149.606 1058 149.95 1058 150.357C1058 150.764 1057.86 151.108 1057.57 151.39C1057.31 151.671 1056.98 151.812 1056.59 151.812Z" fill="black"/>
<mask id="mask0_1954_1109" style="mask-type:luminance" maskUnits="userSpaceOnUse" x="423" y="121" width="514" height="32">
<path d="M936.647 121.062H423.43V152.692H936.647V121.062Z" fill="white"/>
</mask>
<g mask="url(#mask0_1954_1109)">
<g opacity="0.8">
<path d="M504.391 60.8594H514.646V152.687H505.004V80.4494L473.017 152.687H464.905L433.225 80.1433V152.687H423.43V60.8594H433.837L469.038 140.903L504.391 60.8594Z" fill="#999999"/>
<path d="M537.785 152.687V60.8594H547.58V152.687H537.785Z" fill="#999999"/>
<path d="M636.459 60.8594H646.101V152.687H636.918L580.291 77.2354V152.687H570.496V60.8594H579.679L636.459 136.311V60.8594Z" fill="#999999"/>
<path d="M669.189 152.687V60.8594H678.984V152.687H669.189Z" fill="#999999"/>
<path d="M782.864 60.8594H793.118V152.687H783.476V80.4494L751.49 152.687H743.378L711.697 80.1433V152.687H701.902V60.8594H712.31L747.51 140.903L782.864 60.8594Z" fill="#999999"/>
<path d="M870.898 152.687L863.398 131.261H822.535L815.036 152.687H804.322L837.533 60.8594H848.4L881.611 152.687H870.898ZM825.749 121.925H860.184L843.043 72.4909L825.749 121.925Z" fill="#999999"/>
<path d="M902.525 142.892H936.655V152.687H892.73V60.8594H902.525V142.892Z" fill="#999999"/>
</g>
</g>
<mask id="mask1_1954_1109" style="mask-type:luminance" maskUnits="userSpaceOnUse" x="423" y="92" width="514" height="30">
<path d="M936.647 92.4883H423.43V121.057H936.647V92.4883Z" fill="white"/>
</mask>
<g mask="url(#mask1_1954_1109)">
<g opacity="0.8">
<path d="M504.391 60.8594H514.646V152.687H505.004V80.4494L473.017 152.687H464.905L433.225 80.1433V152.687H423.43V60.8594H433.837L469.038 140.903L504.391 60.8594Z" fill="#595959"/>
<path d="M537.785 152.687V60.8594H547.58V152.687H537.785Z" fill="#595959"/>
<path d="M636.459 60.8594H646.101V152.687H636.918L580.291 77.2354V152.687H570.496V60.8594H579.679L636.459 136.311V60.8594Z" fill="#595959"/>
<path d="M669.189 152.687V60.8594H678.984V152.687H669.189Z" fill="#595959"/>
<path d="M782.864 60.8594H793.118V152.687H783.476V80.4494L751.49 152.687H743.378L711.697 80.1433V152.687H701.902V60.8594H712.31L747.51 140.903L782.864 60.8594Z" fill="#595959"/>
<path d="M870.898 152.687L863.398 131.261H822.535L815.036 152.687H804.322L837.533 60.8594H848.4L881.611 152.687H870.898ZM825.749 121.925H860.184L843.043 72.4909L825.749 121.925Z" fill="#595959"/>
<path d="M902.525 142.892H936.655V152.687H892.73V60.8594H902.525V142.892Z" fill="#595959"/>
</g>
</g>
<mask id="mask2_1954_1109" style="mask-type:luminance" maskUnits="userSpaceOnUse" x="423" y="60" width="514" height="33">
<path d="M936.647 60.8594H423.43V92.4891H936.647V60.8594Z" fill="white"/>
</mask>
<g mask="url(#mask2_1954_1109)">
<g opacity="0.8">
<path d="M504.391 60.8594H514.646V152.687H505.004V80.4494L473.017 152.687H464.905L433.225 80.1433V152.687H423.43V60.8594H433.837L469.038 140.903L504.391 60.8594Z" fill="black"/>
<path d="M537.785 152.687V60.8594H547.58V152.687H537.785Z" fill="black"/>
<path d="M636.459 60.8594H646.101V152.687H636.918L580.291 77.2354V152.687H570.496V60.8594H579.679L636.459 136.311V60.8594Z" fill="black"/>
<path d="M669.189 152.687V60.8594H678.984V152.687H669.189Z" fill="black"/>
<path d="M782.864 60.8594H793.118V152.687H783.476V80.4494L751.49 152.687H743.378L711.697 80.1433V152.687H701.902V60.8594H712.31L747.51 140.903L782.864 60.8594Z" fill="black"/>
<path d="M870.898 152.687L863.398 131.261H822.535L815.036 152.687H804.322L837.533 60.8594H848.4L881.611 152.687H870.898ZM825.749 121.925H860.184L843.043 72.4909L825.749 121.925Z" fill="black"/>
<path d="M902.525 142.892H936.655V152.687H892.73V60.8594H902.525V142.892Z" fill="black"/>
</g>
</g>
</g>
</g>
</g>
<path d="M557.835 192.199H541.51V194.24H557.835V192.199Z" fill="#D9D9D9"/>
<path d="M572.234 179.697H576.334C581.168 179.744 581.808 187.067 578.964 189.934C582.187 192.375 581.76 200.171 576.831 200.219H572.234L572.779 195.337V184.531L572.234 179.697ZM574.675 181.569V189.199H577.021C577.898 188.323 578.49 186.948 578.49 185.384C578.49 183.82 577.874 182.446 576.997 181.569H574.675ZM577.495 191.024H574.675V198.418H577.495C578.348 197.565 578.917 196.238 578.917 194.721C578.917 193.204 578.348 191.877 577.495 191.024ZM583.468 200.219V188.204L583.041 184.318H585.53V198.11H587.378V184.318H589.914L589.44 188.204V200.219H583.468ZM591.905 184.341H602.379V186.403H598.185L597.948 188.275V200.219H595.886V186.403H595.791L591.905 186.877V184.341ZM614.981 184.294H617.493L617.042 188.228V196.285L617.516 200.242H614.483L610.431 190.313V200.219H607.942L608.393 196.285V188.228L607.942 184.294H610.336L614.815 195.29L614.981 195.977V184.294ZM619.513 184.318H627.808L627.357 188.228V196.285L627.808 200.219H619.513L619.964 196.309V188.204L619.513 184.318ZM622.025 186.427V198.11H625.296V186.427H622.025ZM629.789 184.341H640.263V186.403H636.068L635.831 188.275V200.219H633.77V186.403H633.675L629.789 186.877V184.341ZM645.921 184.318H647.983V196.285L648.22 198.157H652.414V200.219H645.921V184.318ZM654.528 186.261H657.467L657.016 190.147V196.332L657.467 200.219H654.528L654.978 196.285V190.195L654.528 186.261ZM654.552 183.37H657.087V185.834H654.836L654.552 183.37ZM659.504 184.294H661.992L665.215 192.493L668.438 184.318H670.926L670.499 188.204V196.332L670.926 200.242H668.438V190.313L666.281 195.645H664.148L661.992 190.313V200.219H659.504L659.93 196.285V188.228L659.504 184.294ZM672.972 186.261H675.911L675.461 190.147V196.332L675.911 200.219H672.972L673.423 196.285V190.195L672.972 186.261ZM672.996 183.37H675.532V185.834H673.28L672.996 183.37ZM677.924 184.341H688.399V186.403H684.204L683.967 188.275V200.219H681.905V186.403H681.811L677.924 186.877V184.341ZM690.422 184.318H696.109V186.427H692.934V191.356L696.109 190.977L696.085 193.512H692.934V198.11H696.109V200.219H690.422L690.872 196.285V188.228L690.422 184.318ZM701.421 184.294C709.099 184.294 709.834 200.242 701.445 200.314H701.421L698.127 200.219L698.578 196.332V188.204L698.127 184.318L701.421 184.294ZM700.639 186.427V198.11H702.535C703.91 196.759 704.834 194.65 704.834 192.256C704.834 189.887 703.933 187.778 702.559 186.427H700.639ZM713.008 184.341H723.482V186.403H719.288L719.051 188.275V200.219H716.989V186.403H716.894L713.008 186.877V184.341ZM725.481 184.318H733.776L733.325 188.228V196.285L733.776 200.219H725.481L725.932 196.309V188.204L725.481 184.318ZM727.993 186.427V198.11H731.264V186.427H727.993Z" fill="#ADADAD"/>
<path d="M764.491 192.199H748.166V194.24H764.491V192.199Z" fill="#D9D9D9"/>
<defs>
<clipPath id="clip0_1954_1109">
<rect width="1306" height="136.722" fill="white" transform="translate(0 21.0664)"/>
</clipPath>
<clipPath id="clip1_1954_1109">
<rect width="1306" height="136.722" fill="white" transform="translate(0 21.0664)"/>
</clipPath>
<clipPath id="clip2_1954_1109">
<rect width="1306" height="136.722" fill="white" transform="translate(0 21.0664)"/>
</clipPath>
</defs>
</svg>
