<svg width="382" height="54" viewBox="0 0 382 54" fill="none" xmlns="http://www.w3.org/2000/svg">
<rect x="120" y="5.5" width="8" height="1" fill="#D9D9D9"/>
<path d="M137.892 8H136.479V3.63636H137.937C138.364 3.63636 138.732 3.72372 139.038 3.89844C139.345 4.07173 139.58 4.32102 139.744 4.64631C139.908 4.97017 139.991 5.35866 139.991 5.81179C139.991 6.26634 139.908 6.65696 139.741 6.98366C139.577 7.31037 139.338 7.56179 139.026 7.73793C138.713 7.91264 138.335 8 137.892 8ZM137.138 7.42472H137.856C138.188 7.42472 138.464 7.36222 138.685 7.23722C138.905 7.1108 139.07 6.92827 139.179 6.68963C139.288 6.44957 139.343 6.15696 139.343 5.81179C139.343 5.46946 139.288 5.17898 139.179 4.94034C139.071 4.7017 138.91 4.5206 138.695 4.39702C138.481 4.27344 138.214 4.21165 137.896 4.21165H137.138V7.42472ZM144.559 8V3.63636H147.295V4.20312H145.218V5.53267H147.153V6.0973H145.218V7.43324H147.321V8H144.559ZM154.305 4.78267C154.282 4.58097 154.188 4.42472 154.023 4.31392C153.859 4.2017 153.651 4.1456 153.401 4.1456C153.222 4.1456 153.067 4.17401 152.937 4.23082C152.806 4.28622 152.705 4.36293 152.632 4.46094C152.561 4.55753 152.526 4.66761 152.526 4.79119C152.526 4.89489 152.55 4.98437 152.598 5.05966C152.648 5.13494 152.712 5.19815 152.792 5.24929C152.873 5.29901 152.96 5.34091 153.052 5.375C153.144 5.40767 153.233 5.43466 153.318 5.45597L153.744 5.56676C153.884 5.60085 154.026 5.64702 154.173 5.70526C154.319 5.76349 154.455 5.8402 154.58 5.93537C154.705 6.03054 154.805 6.14844 154.882 6.28906C154.96 6.42969 154.999 6.59801 154.999 6.79403C154.999 7.04119 154.935 7.26065 154.808 7.45241C154.681 7.64418 154.497 7.79545 154.256 7.90625C154.016 8.01705 153.725 8.07244 153.384 8.07244C153.058 8.07244 152.775 8.0206 152.536 7.9169C152.298 7.81321 152.111 7.66619 151.976 7.47585C151.841 7.28409 151.766 7.05682 151.752 6.79403H152.413C152.425 6.9517 152.477 7.0831 152.566 7.18821C152.657 7.2919 152.773 7.36932 152.913 7.42045C153.055 7.47017 153.211 7.49503 153.38 7.49503C153.566 7.49503 153.732 7.46591 153.876 7.40767C154.023 7.34801 154.138 7.26562 154.222 7.16051C154.305 7.05398 154.347 6.92969 154.347 6.78764C154.347 6.65838 154.31 6.55256 154.237 6.47017C154.164 6.38778 154.065 6.3196 153.94 6.26562C153.817 6.21165 153.677 6.16406 153.521 6.12287L153.005 5.98224C152.656 5.88707 152.379 5.74716 152.174 5.5625C151.971 5.37784 151.869 5.13352 151.869 4.82955C151.869 4.57812 151.938 4.35866 152.074 4.17116C152.21 3.98366 152.395 3.83807 152.628 3.73438C152.861 3.62926 153.124 3.5767 153.416 3.5767C153.712 3.5767 153.972 3.62855 154.198 3.73224C154.425 3.83594 154.604 3.97869 154.735 4.16051C154.866 4.34091 154.934 4.5483 154.94 4.78267H154.305ZM160.194 3.63636V8H159.536V3.63636H160.194ZM167.856 5.01491C167.815 4.88565 167.76 4.76989 167.69 4.66761C167.622 4.56392 167.54 4.47585 167.445 4.40341C167.35 4.32955 167.241 4.27344 167.119 4.23509C166.998 4.19673 166.866 4.17756 166.721 4.17756C166.475 4.17756 166.253 4.24077 166.056 4.36719C165.858 4.49361 165.702 4.67898 165.587 4.9233C165.474 5.16619 165.417 5.46378 165.417 5.81605C165.417 6.16974 165.474 6.46875 165.589 6.71307C165.704 6.95739 165.862 7.14276 166.062 7.26918C166.263 7.3956 166.491 7.45881 166.746 7.45881C166.983 7.45881 167.19 7.41051 167.366 7.31392C167.544 7.21733 167.681 7.08097 167.778 6.90483C167.876 6.72727 167.925 6.51847 167.925 6.27841L168.095 6.31037H166.846V5.76705H168.562V6.26349C168.562 6.62997 168.483 6.94815 168.327 7.21804C168.172 7.48651 167.958 7.69389 167.684 7.8402C167.411 7.98651 167.099 8.05966 166.746 8.05966C166.351 8.05966 166.005 7.96875 165.706 7.78693C165.41 7.60511 165.178 7.3473 165.012 7.01349C164.846 6.67827 164.763 6.28054 164.763 5.82031C164.763 5.4723 164.811 5.1598 164.907 4.88281C165.004 4.60582 165.14 4.37074 165.314 4.17756C165.491 3.98295 165.697 3.83452 165.934 3.73224C166.173 3.62855 166.434 3.5767 166.716 3.5767C166.952 3.5767 167.172 3.61151 167.375 3.68111C167.579 3.75071 167.761 3.84943 167.92 3.97727C168.081 4.10511 168.214 4.2571 168.319 4.43324C168.424 4.60795 168.495 4.80185 168.532 5.01491H167.856ZM176.669 3.63636V8H176.064L173.846 4.79972H173.806V8H173.147V3.63636H173.757L175.977 6.84091H176.017V3.63636H176.669ZM187.086 8H186.387L187.958 3.63636H188.718L190.289 8H189.59L188.356 4.42898H188.322L187.086 8ZM187.203 6.29119H189.471V6.84517H187.203V6.29119ZM194.669 8V3.63636H196.224C196.564 3.63636 196.845 3.69815 197.068 3.82173C197.291 3.94531 197.458 4.11435 197.569 4.32884C197.68 4.5419 197.735 4.78196 197.735 5.04901C197.735 5.31747 197.679 5.55895 197.567 5.77344C197.456 5.98651 197.288 6.15554 197.064 6.28054C196.841 6.40412 196.56 6.46591 196.222 6.46591H195.153V5.90767H196.162C196.377 5.90767 196.551 5.87074 196.684 5.79688C196.818 5.72159 196.916 5.61932 196.979 5.49006C197.041 5.3608 197.072 5.21378 197.072 5.04901C197.072 4.88423 197.041 4.73793 196.979 4.61009C196.916 4.48224 196.817 4.3821 196.682 4.30966C196.549 4.23722 196.373 4.20099 196.154 4.20099H195.327V8H194.669ZM202.257 8V3.63636H203.812C204.152 3.63636 204.433 3.69815 204.656 3.82173C204.879 3.94531 205.046 4.11435 205.157 4.32884C205.267 4.5419 205.323 4.78196 205.323 5.04901C205.323 5.31747 205.267 5.55895 205.154 5.77344C205.044 5.98651 204.876 6.15554 204.652 6.28054C204.429 6.40412 204.148 6.46591 203.81 6.46591H202.74V5.90767H203.75C203.965 5.90767 204.139 5.87074 204.272 5.79688C204.406 5.72159 204.504 5.61932 204.566 5.49006C204.629 5.3608 204.66 5.21378 204.66 5.04901C204.66 4.88423 204.629 4.73793 204.566 4.61009C204.504 4.48224 204.405 4.3821 204.27 4.30966C204.137 4.23722 203.961 4.20099 203.742 4.20099H202.915V8H202.257ZM209.845 8V3.63636H211.4C211.738 3.63636 212.019 3.6946 212.242 3.81108C212.466 3.92756 212.634 4.08878 212.744 4.29474C212.855 4.49929 212.911 4.7358 212.911 5.00426C212.911 5.27131 212.855 5.50639 212.742 5.70952C212.632 5.91122 212.464 6.06818 212.24 6.1804C212.017 6.29261 211.736 6.34872 211.398 6.34872H210.22V5.78196H211.338C211.551 5.78196 211.725 5.75142 211.858 5.69034C211.993 5.62926 212.092 5.54048 212.154 5.42401C212.217 5.30753 212.248 5.16761 212.248 5.00426C212.248 4.83949 212.216 4.69673 212.152 4.57599C212.09 4.45526 211.991 4.36293 211.856 4.29901C211.722 4.23366 211.547 4.20099 211.33 4.20099H210.503V8H209.845ZM211.999 6.03125L213.077 8H212.327L211.27 6.03125H211.999ZM221.252 5.81818C221.252 6.28409 221.167 6.68466 220.997 7.01989C220.826 7.35369 220.593 7.6108 220.296 7.79119C220 7.97017 219.664 8.05966 219.288 8.05966C218.91 8.05966 218.573 7.97017 218.276 7.79119C217.98 7.6108 217.747 7.35298 217.577 7.01776C217.406 6.68253 217.321 6.28267 217.321 5.81818C217.321 5.35227 217.406 4.95241 217.577 4.61861C217.747 4.28338 217.98 4.02628 218.276 3.8473C218.573 3.6669 218.91 3.5767 219.288 3.5767C219.664 3.5767 220 3.6669 220.296 3.8473C220.593 4.02628 220.826 4.28338 220.997 4.61861C221.167 4.95241 221.252 5.35227 221.252 5.81818ZM220.6 5.81818C220.6 5.46307 220.543 5.16406 220.428 4.92116C220.314 4.67685 220.158 4.49219 219.959 4.36719C219.762 4.24077 219.538 4.17756 219.288 4.17756C219.036 4.17756 218.812 4.24077 218.615 4.36719C218.417 4.49219 218.261 4.67685 218.146 4.92116C218.032 5.16406 217.975 5.46307 217.975 5.81818C217.975 6.1733 218.032 6.47301 218.146 6.71733C218.261 6.96023 218.417 7.14489 218.615 7.27131C218.812 7.39631 219.036 7.45881 219.288 7.45881C219.538 7.45881 219.762 7.39631 219.959 7.27131C220.158 7.14489 220.314 6.96023 220.428 6.71733C220.543 6.47301 220.6 6.1733 220.6 5.81818ZM225.975 8H225.276L226.846 3.63636H227.607L229.177 8H228.479L227.245 4.42898H227.211L225.975 8ZM226.092 6.29119H228.359V6.84517H226.092V6.29119ZM236.977 5.0554H236.312C236.286 4.91335 236.239 4.78835 236.169 4.6804C236.1 4.57244 236.014 4.48082 235.914 4.40554C235.813 4.33026 235.7 4.27344 235.575 4.23509C235.451 4.19673 235.32 4.17756 235.181 4.17756C234.929 4.17756 234.704 4.24077 234.505 4.36719C234.308 4.49361 234.151 4.67898 234.036 4.9233C233.923 5.16761 233.866 5.46591 233.866 5.81818C233.866 6.1733 233.923 6.47301 234.036 6.71733C234.151 6.96165 234.308 7.14631 234.507 7.27131C234.706 7.39631 234.93 7.45881 235.178 7.45881C235.316 7.45881 235.447 7.44034 235.57 7.40341C235.695 7.36506 235.808 7.30895 235.909 7.23509C236.01 7.16122 236.095 7.07102 236.165 6.96449C236.236 6.85653 236.285 6.73295 236.312 6.59375L236.977 6.59588C236.941 6.81037 236.872 7.00781 236.77 7.18821C236.669 7.36719 236.539 7.52202 236.38 7.6527C236.222 7.78196 236.042 7.8821 235.839 7.95312C235.636 8.02415 235.414 8.05966 235.174 8.05966C234.796 8.05966 234.46 7.97017 234.164 7.79119C233.869 7.6108 233.636 7.35298 233.465 7.01776C233.296 6.68253 233.212 6.28267 233.212 5.81818C233.212 5.35227 233.297 4.95241 233.468 4.61861C233.638 4.28338 233.871 4.02628 234.166 3.8473C234.462 3.6669 234.798 3.5767 235.174 3.5767C235.406 3.5767 235.622 3.61009 235.822 3.67685C236.024 3.74219 236.205 3.83878 236.365 3.96662C236.526 4.09304 236.659 4.24787 236.764 4.43111C236.869 4.61293 236.94 4.82102 236.977 5.0554ZM241.515 8V3.63636H242.173V5.53267H244.348V3.63636H245.009V8H244.348V6.0973H242.173V8H241.515Z" fill="#656D72"/>
<rect x="254" y="5.5" width="8" height="1" fill="#D9D9D9"/>
<path d="M24.8492 24.241V26.077H27.0092V26.914H24.8492V28.831H27.2792V29.668H23.8232V23.404H27.2792V24.241H24.8492ZM31.345 24.628C31.735 24.628 32.083 24.709 32.389 24.871C32.701 25.033 32.944 25.273 33.118 25.591C33.292 25.909 33.379 26.293 33.379 26.743V29.668H32.362V26.896C32.362 26.452 32.251 26.113 32.029 25.879C31.807 25.639 31.504 25.519 31.12 25.519C30.736 25.519 30.43 25.639 30.202 25.879C29.98 26.113 29.869 26.452 29.869 26.896V29.668H28.843V24.709H29.869V25.276C30.037 25.072 30.25 24.913 30.508 24.799C30.772 24.685 31.051 24.628 31.345 24.628ZM36.7877 29.749C36.3977 29.749 36.0467 29.68 35.7347 29.542C35.4287 29.398 35.1857 29.206 35.0057 28.966C34.8257 28.72 34.7297 28.447 34.7177 28.147H35.7797C35.7977 28.357 35.8967 28.534 36.0767 28.678C36.2627 28.816 36.4937 28.885 36.7697 28.885C37.0577 28.885 37.2797 28.831 37.4357 28.723C37.5977 28.609 37.6787 28.465 37.6787 28.291C37.6787 28.105 37.5887 27.967 37.4087 27.877C37.2347 27.787 36.9557 27.688 36.5717 27.58C36.1997 27.478 35.8967 27.379 35.6627 27.283C35.4287 27.187 35.2247 27.04 35.0507 26.842C34.8827 26.644 34.7987 26.383 34.7987 26.059C34.7987 25.795 34.8767 25.555 35.0327 25.339C35.1887 25.117 35.4107 24.943 35.6987 24.817C35.9927 24.691 36.3287 24.628 36.7067 24.628C37.2707 24.628 37.7237 24.772 38.0657 25.06C38.4137 25.342 38.5997 25.729 38.6237 26.221H37.5977C37.5797 25.999 37.4897 25.822 37.3277 25.69C37.1657 25.558 36.9467 25.492 36.6707 25.492C36.4007 25.492 36.1937 25.543 36.0497 25.645C35.9057 25.747 35.8337 25.882 35.8337 26.05C35.8337 26.182 35.8817 26.293 35.9777 26.383C36.0737 26.473 36.1907 26.545 36.3287 26.599C36.4667 26.647 36.6707 26.71 36.9407 26.788C37.3007 26.884 37.5947 26.983 37.8227 27.085C38.0567 27.181 38.2577 27.325 38.4257 27.517C38.5937 27.709 38.6807 27.964 38.6867 28.282C38.6867 28.564 38.6087 28.816 38.4527 29.038C38.2967 29.26 38.0747 29.434 37.7867 29.56C37.5047 29.686 37.1717 29.749 36.7877 29.749ZM44.5863 24.709V29.668H43.5603V29.083C43.3983 29.287 43.1853 29.449 42.9213 29.569C42.6633 29.683 42.3873 29.74 42.0933 29.74C41.7033 29.74 41.3523 29.659 41.0403 29.497C40.7343 29.335 40.4913 29.095 40.3113 28.777C40.1373 28.459 40.0503 28.075 40.0503 27.625V24.709H41.0673V27.472C41.0673 27.916 41.1783 28.258 41.4003 28.498C41.6223 28.732 41.9253 28.849 42.3093 28.849C42.6933 28.849 42.9963 28.732 43.2183 28.498C43.4463 28.258 43.5603 27.916 43.5603 27.472V24.709H44.5863ZM47.266 25.429C47.416 25.177 47.614 24.982 47.86 24.844C48.112 24.7 48.409 24.628 48.751 24.628V25.69H48.49C48.088 25.69 47.782 25.792 47.572 25.996C47.368 26.2 47.266 26.554 47.266 27.058V29.668H46.24V24.709H47.266V25.429ZM54.5391 27.067C54.5391 27.253 54.5271 27.421 54.5031 27.571H50.7141C50.7441 27.967 50.8911 28.285 51.1551 28.525C51.4191 28.765 51.7431 28.885 52.1271 28.885C52.6791 28.885 53.0691 28.654 53.2971 28.192H54.4041C54.2541 28.648 53.9811 29.023 53.5851 29.317C53.1951 29.605 52.7091 29.749 52.1271 29.749C51.6531 29.749 51.2271 29.644 50.8491 29.434C50.4771 29.218 50.1831 28.918 49.9671 28.534C49.7571 28.144 49.6521 27.694 49.6521 27.184C49.6521 26.674 49.7541 26.227 49.9581 25.843C50.1681 25.453 50.4591 25.153 50.8311 24.943C51.2091 24.733 51.6411 24.628 52.1271 24.628C52.5951 24.628 53.0121 24.73 53.3781 24.934C53.7441 25.138 54.0291 25.426 54.2331 25.798C54.4371 26.164 54.5391 26.587 54.5391 27.067ZM53.4681 26.743C53.4621 26.365 53.3271 26.062 53.0631 25.834C52.7991 25.606 52.4721 25.492 52.0821 25.492C51.7281 25.492 51.4251 25.606 51.1731 25.834C50.9211 26.056 50.7711 26.359 50.7231 26.743H53.4681ZM59.6837 25.546V28.291C59.6837 28.477 59.7257 28.612 59.8097 28.696C59.8997 28.774 60.0497 28.813 60.2597 28.813H60.8897V29.668H60.0797C59.6177 29.668 59.2637 29.56 59.0177 29.344C58.7717 29.128 58.6487 28.777 58.6487 28.291V25.546H58.0637V24.709H58.6487V23.476H59.6837V24.709H60.8897V25.546H59.6837ZM64.7004 24.628C65.0784 24.628 65.4144 24.709 65.7084 24.871C66.0084 25.033 66.2424 25.273 66.4104 25.591C66.5844 25.909 66.6714 26.293 66.6714 26.743V29.668H65.6544V26.896C65.6544 26.452 65.5434 26.113 65.3214 25.879C65.0994 25.639 64.7964 25.519 64.4124 25.519C64.0284 25.519 63.7224 25.639 63.4944 25.879C63.2724 26.113 63.1614 26.452 63.1614 26.896V29.668H62.1354V23.008H63.1614V25.285C63.3354 25.075 63.5544 24.913 63.8184 24.799C64.0884 24.685 64.3824 24.628 64.7004 24.628ZM72.8251 27.067C72.8251 27.253 72.8131 27.421 72.7891 27.571H69.0001C69.0301 27.967 69.1771 28.285 69.4411 28.525C69.7051 28.765 70.0291 28.885 70.4131 28.885C70.9651 28.885 71.3551 28.654 71.5831 28.192H72.6901C72.5401 28.648 72.2671 29.023 71.8711 29.317C71.4811 29.605 70.9951 29.749 70.4131 29.749C69.9391 29.749 69.5131 29.644 69.1351 29.434C68.7631 29.218 68.4691 28.918 68.2531 28.534C68.0431 28.144 67.9381 27.694 67.9381 27.184C67.9381 26.674 68.0401 26.227 68.2441 25.843C68.4541 25.453 68.7451 25.153 69.1171 24.943C69.4951 24.733 69.9271 24.628 70.4131 24.628C70.8811 24.628 71.2981 24.73 71.6641 24.934C72.0301 25.138 72.3151 25.426 72.5191 25.798C72.7231 26.164 72.8251 26.587 72.8251 27.067ZM71.7541 26.743C71.7481 26.365 71.6131 26.062 71.3491 25.834C71.0851 25.606 70.7581 25.492 70.3681 25.492C70.0141 25.492 69.7111 25.606 69.4591 25.834C69.2071 26.056 69.0571 26.359 69.0091 26.743H71.7541ZM77.7987 25.438C77.9727 25.21 78.2097 25.018 78.5097 24.862C78.8097 24.706 79.1487 24.628 79.5267 24.628C79.9587 24.628 80.3517 24.736 80.7057 24.952C81.0657 25.162 81.3477 25.459 81.5517 25.843C81.7557 26.227 81.8577 26.668 81.8577 27.166C81.8577 27.664 81.7557 28.111 81.5517 28.507C81.3477 28.897 81.0657 29.203 80.7057 29.425C80.3517 29.641 79.9587 29.749 79.5267 29.749C79.1487 29.749 78.8127 29.674 78.5187 29.524C78.2247 29.368 77.9847 29.176 77.7987 28.948V32.026H76.7727V24.709H77.7987V25.438ZM80.8137 27.166C80.8137 26.824 80.7417 26.53 80.5977 26.284C80.4597 26.032 80.2737 25.843 80.0397 25.717C79.8117 25.585 79.5657 25.519 79.3017 25.519C79.0437 25.519 78.7977 25.585 78.5637 25.717C78.3357 25.849 78.1497 26.041 78.0057 26.293C77.8677 26.545 77.7987 26.842 77.7987 27.184C77.7987 27.526 77.8677 27.826 78.0057 28.084C78.1497 28.336 78.3357 28.528 78.5637 28.66C78.7977 28.792 79.0437 28.858 79.3017 28.858C79.5657 28.858 79.8117 28.792 80.0397 28.66C80.2737 28.522 80.4597 28.324 80.5977 28.066C80.7417 27.808 80.8137 27.508 80.8137 27.166ZM84.1983 25.429C84.3483 25.177 84.5463 24.982 84.7923 24.844C85.0443 24.7 85.3413 24.628 85.6833 24.628V25.69H85.4223C85.0203 25.69 84.7143 25.792 84.5043 25.996C84.3003 26.2 84.1983 26.554 84.1983 27.058V29.668H83.1723V24.709H84.1983V25.429ZM89.0774 29.749C88.6094 29.749 88.1864 29.644 87.8084 29.434C87.4304 29.218 87.1334 28.918 86.9174 28.534C86.7014 28.144 86.5934 27.694 86.5934 27.184C86.5934 26.68 86.7044 26.233 86.9264 25.843C87.1484 25.453 87.4514 25.153 87.8354 24.943C88.2194 24.733 88.6484 24.628 89.1224 24.628C89.5964 24.628 90.0254 24.733 90.4094 24.943C90.7934 25.153 91.0964 25.453 91.3184 25.843C91.5404 26.233 91.6514 26.68 91.6514 27.184C91.6514 27.688 91.5374 28.135 91.3094 28.525C91.0814 28.915 90.7694 29.218 90.3734 29.434C89.9834 29.644 89.5514 29.749 89.0774 29.749ZM89.0774 28.858C89.3414 28.858 89.5874 28.795 89.8154 28.669C90.0494 28.543 90.2384 28.354 90.3824 28.102C90.5264 27.85 90.5984 27.544 90.5984 27.184C90.5984 26.824 90.5294 26.521 90.3914 26.275C90.2534 26.023 90.0704 25.834 89.8424 25.708C89.6144 25.582 89.3684 25.519 89.1044 25.519C88.8404 25.519 88.5944 25.582 88.3664 25.708C88.1444 25.834 87.9674 26.023 87.8354 26.275C87.7034 26.521 87.6374 26.824 87.6374 27.184C87.6374 27.718 87.7724 28.132 88.0424 28.426C88.3184 28.714 88.6634 28.858 89.0774 28.858ZM92.6236 27.166C92.6236 26.668 92.7256 26.227 92.9296 25.843C93.1396 25.459 93.4216 25.162 93.7756 24.952C94.1356 24.736 94.5346 24.628 94.9726 24.628C95.2966 24.628 95.6146 24.7 95.9266 24.844C96.2446 24.982 96.4966 25.168 96.6826 25.402V23.008H97.7176V29.668H96.6826V28.921C96.5146 29.161 96.2806 29.359 95.9806 29.515C95.6866 29.671 95.3476 29.749 94.9636 29.749C94.5316 29.749 94.1356 29.641 93.7756 29.425C93.4216 29.203 93.1396 28.897 92.9296 28.507C92.7256 28.111 92.6236 27.664 92.6236 27.166ZM96.6826 27.184C96.6826 26.842 96.6106 26.545 96.4666 26.293C96.3286 26.041 96.1456 25.849 95.9176 25.717C95.6896 25.585 95.4436 25.519 95.1796 25.519C94.9156 25.519 94.6696 25.585 94.4416 25.717C94.2136 25.843 94.0276 26.032 93.8836 26.284C93.7456 26.53 93.6766 26.824 93.6766 27.166C93.6766 27.508 93.7456 27.808 93.8836 28.066C94.0276 28.324 94.2136 28.522 94.4416 28.66C94.6756 28.792 94.9216 28.858 95.1796 28.858C95.4436 28.858 95.6896 28.792 95.9176 28.66C96.1456 28.528 96.3286 28.336 96.4666 28.084C96.6106 27.826 96.6826 27.526 96.6826 27.184ZM103.856 24.709V29.668H102.83V29.083C102.668 29.287 102.455 29.449 102.191 29.569C101.933 29.683 101.657 29.74 101.363 29.74C100.973 29.74 100.622 29.659 100.31 29.497C100.004 29.335 99.7612 29.095 99.5812 28.777C99.4072 28.459 99.3202 28.075 99.3202 27.625V24.709H100.337V27.472C100.337 27.916 100.448 28.258 100.67 28.498C100.892 28.732 101.195 28.849 101.579 28.849C101.963 28.849 102.266 28.732 102.488 28.498C102.716 28.258 102.83 27.916 102.83 27.472V24.709H103.856ZM105.168 27.184C105.168 26.674 105.27 26.227 105.474 25.843C105.684 25.453 105.972 25.153 106.338 24.943C106.704 24.733 107.124 24.628 107.598 24.628C108.198 24.628 108.693 24.772 109.083 25.06C109.479 25.342 109.746 25.747 109.884 26.275H108.777C108.687 26.029 108.543 25.837 108.345 25.699C108.147 25.561 107.898 25.492 107.598 25.492C107.178 25.492 106.842 25.642 106.59 25.942C106.344 26.236 106.221 26.65 106.221 27.184C106.221 27.718 106.344 28.135 106.59 28.435C106.842 28.735 107.178 28.885 107.598 28.885C108.192 28.885 108.585 28.624 108.777 28.102H109.884C109.74 28.606 109.47 29.008 109.074 29.308C108.678 29.602 108.186 29.749 107.598 29.749C107.124 29.749 106.704 29.644 106.338 29.434C105.972 29.218 105.684 28.918 105.474 28.534C105.27 28.144 105.168 27.694 105.168 27.184ZM112.403 25.546V28.291C112.403 28.477 112.445 28.612 112.529 28.696C112.619 28.774 112.769 28.813 112.979 28.813H113.609V29.668H112.799C112.337 29.668 111.983 29.56 111.737 29.344C111.491 29.128 111.368 28.777 111.368 28.291V25.546H110.783V24.709H111.368V23.476H112.403V24.709H113.609V25.546H112.403ZM118.015 24.052C117.829 24.052 117.673 23.989 117.547 23.863C117.421 23.737 117.358 23.581 117.358 23.395C117.358 23.209 117.421 23.053 117.547 22.927C117.673 22.801 117.829 22.738 118.015 22.738C118.195 22.738 118.348 22.801 118.474 22.927C118.6 23.053 118.663 23.209 118.663 23.395C118.663 23.581 118.6 23.737 118.474 23.863C118.348 23.989 118.195 24.052 118.015 24.052ZM118.519 24.709V29.668H117.493V24.709H118.519ZM121.966 29.749C121.576 29.749 121.225 29.68 120.913 29.542C120.607 29.398 120.364 29.206 120.184 28.966C120.004 28.72 119.908 28.447 119.896 28.147H120.958C120.976 28.357 121.075 28.534 121.255 28.678C121.441 28.816 121.672 28.885 121.948 28.885C122.236 28.885 122.458 28.831 122.614 28.723C122.776 28.609 122.857 28.465 122.857 28.291C122.857 28.105 122.767 27.967 122.587 27.877C122.413 27.787 122.134 27.688 121.75 27.58C121.378 27.478 121.075 27.379 120.841 27.283C120.607 27.187 120.403 27.04 120.229 26.842C120.061 26.644 119.977 26.383 119.977 26.059C119.977 25.795 120.055 25.555 120.211 25.339C120.367 25.117 120.589 24.943 120.877 24.817C121.171 24.691 121.507 24.628 121.885 24.628C122.449 24.628 122.902 24.772 123.244 25.06C123.592 25.342 123.778 25.729 123.802 26.221H122.776C122.758 25.999 122.668 25.822 122.506 25.69C122.344 25.558 122.125 25.492 121.849 25.492C121.579 25.492 121.372 25.543 121.228 25.645C121.084 25.747 121.012 25.882 121.012 26.05C121.012 26.182 121.06 26.293 121.156 26.383C121.252 26.473 121.369 26.545 121.507 26.599C121.645 26.647 121.849 26.71 122.119 26.788C122.479 26.884 122.773 26.983 123.001 27.085C123.235 27.181 123.436 27.325 123.604 27.517C123.772 27.709 123.859 27.964 123.865 28.282C123.865 28.564 123.787 28.816 123.631 29.038C123.475 29.26 123.253 29.434 122.965 29.56C122.683 29.686 122.35 29.749 121.966 29.749Z" fill="black"/>
<path d="M284.718 23.702C285.384 23.702 285.966 23.831 286.464 24.089C286.968 24.341 287.355 24.707 287.625 25.187C287.901 25.661 288.039 26.216 288.039 26.852C288.039 27.488 287.901 28.04 287.625 28.508C287.355 28.976 286.968 29.336 286.464 29.588C285.966 29.834 285.384 29.957 284.718 29.957H282.675V23.702H284.718ZM284.718 29.12C285.45 29.12 286.011 28.922 286.401 28.526C286.791 28.13 286.986 27.572 286.986 26.852C286.986 26.126 286.791 25.559 286.401 25.151C286.011 24.743 285.45 24.539 284.718 24.539H283.701V29.12H284.718ZM293.901 27.356C293.901 27.542 293.889 27.71 293.865 27.86H290.076C290.106 28.256 290.253 28.574 290.517 28.814C290.781 29.054 291.105 29.174 291.489 29.174C292.041 29.174 292.431 28.943 292.659 28.481H293.766C293.616 28.937 293.343 29.312 292.947 29.606C292.557 29.894 292.071 30.038 291.489 30.038C291.015 30.038 290.589 29.933 290.211 29.723C289.839 29.507 289.545 29.207 289.329 28.823C289.119 28.433 289.014 27.983 289.014 27.473C289.014 26.963 289.116 26.516 289.32 26.132C289.53 25.742 289.821 25.442 290.193 25.232C290.571 25.022 291.003 24.917 291.489 24.917C291.957 24.917 292.374 25.019 292.74 25.223C293.106 25.427 293.391 25.715 293.595 26.087C293.799 26.453 293.901 26.876 293.901 27.356ZM292.83 27.032C292.824 26.654 292.689 26.351 292.425 26.123C292.161 25.895 291.834 25.781 291.444 25.781C291.09 25.781 290.787 25.895 290.535 26.123C290.283 26.345 290.133 26.648 290.085 27.032H292.83ZM297.011 30.038C296.621 30.038 296.27 29.969 295.958 29.831C295.652 29.687 295.409 29.495 295.229 29.255C295.049 29.009 294.953 28.736 294.941 28.436H296.003C296.021 28.646 296.12 28.823 296.3 28.967C296.486 29.105 296.717 29.174 296.993 29.174C297.281 29.174 297.503 29.12 297.659 29.012C297.821 28.898 297.902 28.754 297.902 28.58C297.902 28.394 297.812 28.256 297.632 28.166C297.458 28.076 297.179 27.977 296.795 27.869C296.423 27.767 296.12 27.668 295.886 27.572C295.652 27.476 295.448 27.329 295.274 27.131C295.106 26.933 295.022 26.672 295.022 26.348C295.022 26.084 295.1 25.844 295.256 25.628C295.412 25.406 295.634 25.232 295.922 25.106C296.216 24.98 296.552 24.917 296.93 24.917C297.494 24.917 297.947 25.061 298.289 25.349C298.637 25.631 298.823 26.018 298.847 26.51H297.821C297.803 26.288 297.713 26.111 297.551 25.979C297.389 25.847 297.17 25.781 296.894 25.781C296.624 25.781 296.417 25.832 296.273 25.934C296.129 26.036 296.057 26.171 296.057 26.339C296.057 26.471 296.105 26.582 296.201 26.672C296.297 26.762 296.414 26.834 296.552 26.888C296.69 26.936 296.894 26.999 297.164 27.077C297.524 27.173 297.818 27.272 298.046 27.374C298.28 27.47 298.481 27.614 298.649 27.806C298.817 27.998 298.904 28.253 298.91 28.571C298.91 28.853 298.832 29.105 298.676 29.327C298.52 29.549 298.298 29.723 298.01 29.849C297.728 29.975 297.395 30.038 297.011 30.038ZM300.84 24.341C300.654 24.341 300.498 24.278 300.372 24.152C300.246 24.026 300.183 23.87 300.183 23.684C300.183 23.498 300.246 23.342 300.372 23.216C300.498 23.09 300.654 23.027 300.84 23.027C301.02 23.027 301.173 23.09 301.299 23.216C301.425 23.342 301.488 23.498 301.488 23.684C301.488 23.87 301.425 24.026 301.299 24.152C301.173 24.278 301.02 24.341 300.84 24.341ZM301.344 24.998V29.957H300.318V24.998H301.344ZM304.989 24.917C305.373 24.917 305.712 24.995 306.006 25.151C306.306 25.301 306.54 25.49 306.708 25.718V24.998H307.743V30.038C307.743 30.494 307.647 30.899 307.455 31.253C307.263 31.613 306.984 31.895 306.618 32.099C306.258 32.303 305.826 32.405 305.322 32.405C304.65 32.405 304.092 32.246 303.648 31.928C303.204 31.616 302.952 31.19 302.892 30.65H303.909C303.987 30.908 304.152 31.115 304.404 31.271C304.662 31.433 304.968 31.514 305.322 31.514C305.736 31.514 306.069 31.388 306.321 31.136C306.579 30.884 306.708 30.518 306.708 30.038V29.21C306.534 29.444 306.297 29.642 305.997 29.804C305.703 29.96 305.367 30.038 304.989 30.038C304.557 30.038 304.161 29.93 303.801 29.714C303.447 29.492 303.165 29.186 302.955 28.796C302.751 28.4 302.649 27.953 302.649 27.455C302.649 26.957 302.751 26.516 302.955 26.132C303.165 25.748 303.447 25.451 303.801 25.241C304.161 25.025 304.557 24.917 304.989 24.917ZM306.708 27.473C306.708 27.131 306.636 26.834 306.492 26.582C306.354 26.33 306.171 26.138 305.943 26.006C305.715 25.874 305.469 25.808 305.205 25.808C304.941 25.808 304.695 25.874 304.467 26.006C304.239 26.132 304.053 26.321 303.909 26.573C303.771 26.819 303.702 27.113 303.702 27.455C303.702 27.797 303.771 28.097 303.909 28.355C304.053 28.613 304.239 28.811 304.467 28.949C304.701 29.081 304.947 29.147 305.205 29.147C305.469 29.147 305.715 29.081 305.943 28.949C306.171 28.817 306.354 28.625 306.492 28.373C306.636 28.115 306.708 27.815 306.708 27.473ZM311.893 24.917C312.283 24.917 312.631 24.998 312.937 25.16C313.249 25.322 313.492 25.562 313.666 25.88C313.84 26.198 313.927 26.582 313.927 27.032V29.957H312.91V27.185C312.91 26.741 312.799 26.402 312.577 26.168C312.355 25.928 312.052 25.808 311.668 25.808C311.284 25.808 310.978 25.928 310.75 26.168C310.528 26.402 310.417 26.741 310.417 27.185V29.957H309.391V24.998H310.417V25.565C310.585 25.361 310.798 25.202 311.056 25.088C311.32 24.974 311.599 24.917 311.893 24.917ZM316.661 28.724L315.572 31.208H314.906L315.545 28.724H316.661Z" fill="black"/>
<path opacity="0.65" d="M55.6152 36.2032V38.9482C55.6152 39.1342 55.6572 39.2692 55.7412 39.3532C55.8312 39.4312 55.9812 39.4702 56.1912 39.4702H56.8212V40.3252H56.0112C55.5492 40.3252 55.1952 40.2172 54.9492 40.0012C54.7032 39.7852 54.5802 39.4342 54.5802 38.9482V36.2032H53.9952V35.3662H54.5802V34.1332H55.6152V35.3662H56.8212V36.2032H55.6152ZM60.6318 35.2852C61.0098 35.2852 61.3458 35.3662 61.6398 35.5282C61.9398 35.6902 62.1738 35.9302 62.3418 36.2482C62.5158 36.5662 62.6028 36.9502 62.6028 37.4002V40.3252H61.5858V37.5532C61.5858 37.1092 61.4748 36.7702 61.2528 36.5362C61.0308 36.2962 60.7278 36.1762 60.3438 36.1762C59.9598 36.1762 59.6538 36.2962 59.4258 36.5362C59.2038 36.7702 59.0928 37.1092 59.0928 37.5532V40.3252H58.0668V33.6652H59.0928V35.9422C59.2668 35.7322 59.4858 35.5702 59.7498 35.4562C60.0198 35.3422 60.3138 35.2852 60.6318 35.2852ZM63.8695 37.8232C63.8695 37.3252 63.9715 36.8842 64.1755 36.5002C64.3855 36.1162 64.6675 35.8192 65.0215 35.6092C65.3815 35.3932 65.7775 35.2852 66.2095 35.2852C66.5995 35.2852 66.9385 35.3632 67.2265 35.5192C67.5205 35.6692 67.7545 35.8582 67.9285 36.0862V35.3662H68.9635V40.3252H67.9285V39.5872C67.7545 39.8212 67.5175 40.0162 67.2175 40.1722C66.9175 40.3282 66.5755 40.4062 66.1915 40.4062C65.7655 40.4062 65.3755 40.2982 65.0215 40.0822C64.6675 39.8602 64.3855 39.5542 64.1755 39.1642C63.9715 38.7682 63.8695 38.3212 63.8695 37.8232ZM67.9285 37.8412C67.9285 37.4992 67.8565 37.2022 67.7125 36.9502C67.5745 36.6982 67.3915 36.5062 67.1635 36.3742C66.9355 36.2422 66.6895 36.1762 66.4255 36.1762C66.1615 36.1762 65.9155 36.2422 65.6875 36.3742C65.4595 36.5002 65.2735 36.6892 65.1295 36.9412C64.9915 37.1872 64.9225 37.4812 64.9225 37.8232C64.9225 38.1652 64.9915 38.4652 65.1295 38.7232C65.2735 38.9812 65.4595 39.1792 65.6875 39.3172C65.9215 39.4492 66.1675 39.5152 66.4255 39.5152C66.6895 39.5152 66.9355 39.4492 67.1635 39.3172C67.3915 39.1852 67.5745 38.9932 67.7125 38.7412C67.8565 38.4832 67.9285 38.1832 67.9285 37.8412ZM71.8081 36.2032V38.9482C71.8081 39.1342 71.8501 39.2692 71.9341 39.3532C72.0241 39.4312 72.1741 39.4702 72.3841 39.4702H73.0141V40.3252H72.2041C71.7421 40.3252 71.3881 40.2172 71.1421 40.0012C70.8961 39.7852 70.7731 39.4342 70.7731 38.9482V36.2032H70.1881V35.3662H70.7731V34.1332H71.8081V35.3662H73.0141V36.2032H71.8081ZM77.9237 36.0862C78.0737 35.8342 78.2717 35.6392 78.5177 35.5012C78.7697 35.3572 79.0667 35.2852 79.4087 35.2852V36.3472H79.1477C78.7457 36.3472 78.4397 36.4492 78.2297 36.6532C78.0257 36.8572 77.9237 37.2112 77.9237 37.7152V40.3252H76.8977V35.3662H77.9237V36.0862ZM85.1968 37.7242C85.1968 37.9102 85.1848 38.0782 85.1608 38.2282H81.3718C81.4018 38.6242 81.5488 38.9422 81.8128 39.1822C82.0768 39.4222 82.4008 39.5422 82.7848 39.5422C83.3368 39.5422 83.7268 39.3112 83.9548 38.8492H85.0618C84.9118 39.3052 84.6388 39.6802 84.2428 39.9742C83.8528 40.2622 83.3668 40.4062 82.7848 40.4062C82.3108 40.4062 81.8848 40.3012 81.5068 40.0912C81.1348 39.8752 80.8408 39.5752 80.6248 39.1912C80.4148 38.8012 80.3098 38.3512 80.3098 37.8412C80.3098 37.3312 80.4118 36.8842 80.6158 36.5002C80.8258 36.1102 81.1168 35.8102 81.4888 35.6002C81.8668 35.3902 82.2988 35.2852 82.7848 35.2852C83.2528 35.2852 83.6698 35.3872 84.0358 35.5912C84.4018 35.7952 84.6868 36.0832 84.8908 36.4552C85.0948 36.8212 85.1968 37.2442 85.1968 37.7242ZM84.1258 37.4002C84.1198 37.0222 83.9848 36.7192 83.7208 36.4912C83.4568 36.2632 83.1298 36.1492 82.7398 36.1492C82.3858 36.1492 82.0828 36.2632 81.8308 36.4912C81.5788 36.7132 81.4288 37.0162 81.3808 37.4002H84.1258ZM86.1644 37.8232C86.1644 37.3252 86.2664 36.8842 86.4704 36.5002C86.6804 36.1162 86.9624 35.8192 87.3164 35.6092C87.6764 35.3932 88.0754 35.2852 88.5134 35.2852C88.8974 35.2852 89.2364 35.3632 89.5304 35.5192C89.8304 35.6752 90.0614 35.8642 90.2234 36.0862V35.3662H91.2584V42.6832H90.2234V39.6052C90.0614 39.8272 89.8274 40.0162 89.5214 40.1722C89.2154 40.3282 88.8674 40.4062 88.4774 40.4062C88.0514 40.4062 87.6614 40.2982 87.3074 40.0822C86.9594 39.8602 86.6804 39.5542 86.4704 39.1642C86.2664 38.7682 86.1644 38.3212 86.1644 37.8232ZM90.2234 37.8412C90.2234 37.4992 90.1514 37.2022 90.0074 36.9502C89.8694 36.6982 89.6864 36.5062 89.4584 36.3742C89.2304 36.2422 88.9844 36.1762 88.7204 36.1762C88.4564 36.1762 88.2104 36.2422 87.9824 36.3742C87.7544 36.5002 87.5684 36.6892 87.4244 36.9412C87.2864 37.1872 87.2174 37.4812 87.2174 37.8232C87.2174 38.1652 87.2864 38.4652 87.4244 38.7232C87.5684 38.9812 87.7544 39.1792 87.9824 39.3172C88.2164 39.4492 88.4624 39.5152 88.7204 39.5152C88.9844 39.5152 89.2304 39.4492 89.4584 39.3172C89.6864 39.1852 89.8694 38.9932 90.0074 38.7412C90.1514 38.4832 90.2234 38.1832 90.2234 37.8412ZM97.3971 35.3662V40.3252H96.3711V39.7402C96.2091 39.9442 95.9961 40.1062 95.7321 40.2262C95.4741 40.3402 95.1981 40.3972 94.9041 40.3972C94.5141 40.3972 94.1631 40.3162 93.8511 40.1542C93.5451 39.9922 93.3021 39.7522 93.1221 39.4342C92.9481 39.1162 92.8611 38.7322 92.8611 38.2822V35.3662H93.8781V38.1292C93.8781 38.5732 93.9891 38.9152 94.2111 39.1552C94.4331 39.3892 94.7361 39.5062 95.1201 39.5062C95.5041 39.5062 95.8071 39.3892 96.0291 39.1552C96.2571 38.9152 96.3711 38.5732 96.3711 38.1292V35.3662H97.3971ZM99.5728 34.7092C99.3868 34.7092 99.2308 34.6462 99.1048 34.5202C98.9788 34.3942 98.9158 34.2382 98.9158 34.0522C98.9158 33.8662 98.9788 33.7102 99.1048 33.5842C99.2308 33.4582 99.3868 33.3952 99.5728 33.3952C99.7528 33.3952 99.9058 33.4582 100.032 33.5842C100.158 33.7102 100.221 33.8662 100.221 34.0522C100.221 34.2382 100.158 34.3942 100.032 34.5202C99.9058 34.6462 99.7528 34.7092 99.5728 34.7092ZM100.077 35.3662V40.3252H99.0508V35.3662H100.077ZM102.75 36.0862C102.9 35.8342 103.098 35.6392 103.344 35.5012C103.596 35.3572 103.893 35.2852 104.235 35.2852V36.3472H103.974C103.572 36.3472 103.266 36.4492 103.056 36.6532C102.852 36.8572 102.75 37.2112 102.75 37.7152V40.3252H101.724V35.3662H102.75V36.0862ZM110.023 37.7242C110.023 37.9102 110.011 38.0782 109.987 38.2282H106.198C106.228 38.6242 106.375 38.9422 106.639 39.1822C106.903 39.4222 107.227 39.5422 107.611 39.5422C108.163 39.5422 108.553 39.3112 108.781 38.8492H109.888C109.738 39.3052 109.465 39.6802 109.069 39.9742C108.679 40.2622 108.193 40.4062 107.611 40.4062C107.137 40.4062 106.711 40.3012 106.333 40.0912C105.961 39.8752 105.667 39.5752 105.451 39.1912C105.241 38.8012 105.136 38.3512 105.136 37.8412C105.136 37.3312 105.238 36.8842 105.442 36.5002C105.652 36.1102 105.943 35.8102 106.315 35.6002C106.693 35.3902 107.125 35.2852 107.611 35.2852C108.079 35.2852 108.496 35.3872 108.862 35.5912C109.228 35.7952 109.513 36.0832 109.717 36.4552C109.921 36.8212 110.023 37.2442 110.023 37.7242ZM108.952 37.4002C108.946 37.0222 108.811 36.7192 108.547 36.4912C108.283 36.2632 107.956 36.1492 107.566 36.1492C107.212 36.1492 106.909 36.2632 106.657 36.4912C106.405 36.7132 106.255 37.0162 106.207 37.4002H108.952ZM113.133 40.4062C112.743 40.4062 112.392 40.3372 112.08 40.1992C111.774 40.0552 111.531 39.8632 111.351 39.6232C111.171 39.3772 111.075 39.1042 111.063 38.8042H112.125C112.143 39.0142 112.242 39.1912 112.422 39.3352C112.608 39.4732 112.839 39.5422 113.115 39.5422C113.403 39.5422 113.625 39.4882 113.781 39.3802C113.943 39.2662 114.024 39.1222 114.024 38.9482C114.024 38.7622 113.934 38.6242 113.754 38.5342C113.58 38.4442 113.301 38.3452 112.917 38.2372C112.545 38.1352 112.242 38.0362 112.008 37.9402C111.774 37.8442 111.57 37.6972 111.396 37.4992C111.228 37.3012 111.144 37.0402 111.144 36.7162C111.144 36.4522 111.222 36.2122 111.378 35.9962C111.534 35.7742 111.756 35.6002 112.044 35.4742C112.338 35.3482 112.674 35.2852 113.052 35.2852C113.616 35.2852 114.069 35.4292 114.411 35.7172C114.759 35.9992 114.945 36.3862 114.969 36.8782H113.943C113.925 36.6562 113.835 36.4792 113.673 36.3472C113.511 36.2152 113.292 36.1492 113.016 36.1492C112.746 36.1492 112.539 36.2002 112.395 36.3022C112.251 36.4042 112.179 36.5392 112.179 36.7072C112.179 36.8392 112.227 36.9502 112.323 37.0402C112.419 37.1302 112.536 37.2022 112.674 37.2562C112.812 37.3042 113.016 37.3672 113.286 37.4452C113.646 37.5412 113.94 37.6402 114.168 37.7422C114.402 37.8382 114.603 37.9822 114.771 38.1742C114.939 38.3662 115.026 38.6212 115.032 38.9392C115.032 39.2212 114.954 39.4732 114.798 39.6952C114.642 39.9172 114.42 40.0912 114.132 40.2172C113.85 40.3432 113.517 40.4062 113.133 40.4062ZM118.736 37.8232C118.736 37.3252 118.838 36.8842 119.042 36.5002C119.252 36.1162 119.534 35.8192 119.888 35.6092C120.248 35.3932 120.644 35.2852 121.076 35.2852C121.466 35.2852 121.805 35.3632 122.093 35.5192C122.387 35.6692 122.621 35.8582 122.795 36.0862V35.3662H123.83V40.3252H122.795V39.5872C122.621 39.8212 122.384 40.0162 122.084 40.1722C121.784 40.3282 121.442 40.4062 121.058 40.4062C120.632 40.4062 120.242 40.2982 119.888 40.0822C119.534 39.8602 119.252 39.5542 119.042 39.1642C118.838 38.7682 118.736 38.3212 118.736 37.8232ZM122.795 37.8412C122.795 37.4992 122.723 37.2022 122.579 36.9502C122.441 36.6982 122.258 36.5062 122.03 36.3742C121.802 36.2422 121.556 36.1762 121.292 36.1762C121.028 36.1762 120.782 36.2422 120.554 36.3742C120.326 36.5002 120.14 36.6892 119.996 36.9412C119.858 37.1872 119.789 37.4812 119.789 37.8232C119.789 38.1652 119.858 38.4652 119.996 38.7232C120.14 38.9812 120.326 39.1792 120.554 39.3172C120.788 39.4492 121.034 39.5152 121.292 39.5152C121.556 39.5152 121.802 39.4492 122.03 39.3172C122.258 39.1852 122.441 38.9932 122.579 38.7412C122.723 38.4832 122.795 38.1832 122.795 37.8412Z" fill="black"/>
<path opacity="0.4" d="M5.78938 46.8604V49.6054C5.78938 49.7914 5.83138 49.9264 5.91538 50.0104C6.00538 50.0884 6.15538 50.1274 6.36538 50.1274H6.99538V50.9824H6.18538C5.72338 50.9824 5.36938 50.8744 5.12338 50.6584C4.87738 50.4424 4.75438 50.0914 4.75438 49.6054V46.8604H4.16938V46.0234H4.75438V44.7904H5.78938V46.0234H6.99538V46.8604H5.78938ZM10.392 51.0634C9.92401 51.0634 9.50101 50.9584 9.12301 50.7484C8.74501 50.5324 8.44801 50.2324 8.23201 49.8484C8.01601 49.4584 7.90801 49.0084 7.90801 48.4984C7.90801 47.9944 8.01901 47.5474 8.24101 47.1574C8.46301 46.7674 8.76601 46.4674 9.15001 46.2574C9.53401 46.0474 9.96301 45.9424 10.437 45.9424C10.911 45.9424 11.34 46.0474 11.724 46.2574C12.108 46.4674 12.411 46.7674 12.633 47.1574C12.855 47.5474 12.966 47.9944 12.966 48.4984C12.966 49.0024 12.852 49.4494 12.624 49.8394C12.396 50.2294 12.084 50.5324 11.688 50.7484C11.298 50.9584 10.866 51.0634 10.392 51.0634ZM10.392 50.1724C10.656 50.1724 10.902 50.1094 11.13 49.9834C11.364 49.8574 11.553 49.6684 11.697 49.4164C11.841 49.1644 11.913 48.8584 11.913 48.4984C11.913 48.1384 11.844 47.8354 11.706 47.5894C11.568 47.3374 11.385 47.1484 11.157 47.0224C10.929 46.8964 10.683 46.8334 10.419 46.8334C10.155 46.8334 9.90901 46.8964 9.68101 47.0224C9.45901 47.1484 9.28201 47.3374 9.15001 47.5894C9.01801 47.8354 8.95201 48.1384 8.95201 48.4984C8.95201 49.0324 9.08701 49.4464 9.35701 49.7404C9.63301 50.0284 9.97801 50.1724 10.392 50.1724ZM18.9972 46.8604H18.0792V50.9824H17.0442V46.8604H16.4592V46.0234H17.0442V45.6724C17.0442 45.1024 17.1942 44.6884 17.4942 44.4304C17.8002 44.1664 18.2772 44.0344 18.9252 44.0344V44.8894C18.6132 44.8894 18.3942 44.9494 18.2682 45.0694C18.1422 45.1834 18.0792 45.3844 18.0792 45.6724V46.0234H18.9972V46.8604ZM24.6974 46.0234V50.9824H23.6714V50.3974C23.5094 50.6014 23.2964 50.7634 23.0324 50.8834C22.7744 50.9974 22.4984 51.0544 22.2044 51.0544C21.8144 51.0544 21.4634 50.9734 21.1514 50.8114C20.8454 50.6494 20.6024 50.4094 20.4224 50.0914C20.2484 49.7734 20.1614 49.3894 20.1614 48.9394V46.0234H21.1784V48.7864C21.1784 49.2304 21.2894 49.5724 21.5114 49.8124C21.7334 50.0464 22.0364 50.1634 22.4204 50.1634C22.8044 50.1634 23.1074 50.0464 23.3294 49.8124C23.5574 49.5724 23.6714 49.2304 23.6714 48.7864V46.0234H24.6974ZM27.3772 44.3224V50.9824H26.3512V44.3224H27.3772ZM31.1032 46.8604H30.1852V50.9824H29.1502V46.8604H28.5652V46.0234H29.1502V45.6724C29.1502 45.1024 29.3002 44.6884 29.6002 44.4304C29.9062 44.1664 30.3832 44.0344 31.0312 44.0344V44.8894C30.7192 44.8894 30.5002 44.9494 30.3742 45.0694C30.2482 45.1834 30.1852 45.3844 30.1852 45.6724V46.0234H31.1032V46.8604ZM32.8345 45.3664C32.6485 45.3664 32.4925 45.3034 32.3665 45.1774C32.2405 45.0514 32.1775 44.8954 32.1775 44.7094C32.1775 44.5234 32.2405 44.3674 32.3665 44.2414C32.4925 44.1154 32.6485 44.0524 32.8345 44.0524C33.0145 44.0524 33.1675 44.1154 33.2935 44.2414C33.4195 44.3674 33.4825 44.5234 33.4825 44.7094C33.4825 44.8954 33.4195 45.0514 33.2935 45.1774C33.1675 45.3034 33.0145 45.3664 32.8345 45.3664ZM33.3385 46.0234V50.9824H32.3125V46.0234H33.3385ZM36.0115 44.3224V50.9824H34.9855V44.3224H36.0115ZM38.6846 44.3224V50.9824H37.6586V44.3224H38.6846ZM42.1316 51.0634C41.7416 51.0634 41.3906 50.9944 41.0786 50.8564C40.7726 50.7124 40.5296 50.5204 40.3496 50.2804C40.1696 50.0344 40.0736 49.7614 40.0616 49.4614H41.1236C41.1416 49.6714 41.2406 49.8484 41.4206 49.9924C41.6066 50.1304 41.8376 50.1994 42.1136 50.1994C42.4016 50.1994 42.6236 50.1454 42.7796 50.0374C42.9416 49.9234 43.0226 49.7794 43.0226 49.6054C43.0226 49.4194 42.9326 49.2814 42.7526 49.1914C42.5786 49.1014 42.2996 49.0024 41.9156 48.8944C41.5436 48.7924 41.2406 48.6934 41.0066 48.5974C40.7726 48.5014 40.5686 48.3544 40.3946 48.1564C40.2266 47.9584 40.1426 47.6974 40.1426 47.3734C40.1426 47.1094 40.2206 46.8694 40.3766 46.6534C40.5326 46.4314 40.7546 46.2574 41.0426 46.1314C41.3366 46.0054 41.6726 45.9424 42.0506 45.9424C42.6146 45.9424 43.0676 46.0864 43.4096 46.3744C43.7576 46.6564 43.9436 47.0434 43.9676 47.5354H42.9416C42.9236 47.3134 42.8336 47.1364 42.6716 47.0044C42.5096 46.8724 42.2906 46.8064 42.0146 46.8064C41.7446 46.8064 41.5376 46.8574 41.3936 46.9594C41.2496 47.0614 41.1776 47.1964 41.1776 47.3644C41.1776 47.4964 41.2256 47.6074 41.3216 47.6974C41.4176 47.7874 41.5346 47.8594 41.6726 47.9134C41.8106 47.9614 42.0146 48.0244 42.2846 48.1024C42.6446 48.1984 42.9386 48.2974 43.1666 48.3994C43.4006 48.4954 43.6016 48.6394 43.7696 48.8314C43.9376 49.0234 44.0246 49.2784 44.0306 49.5964C44.0306 49.8784 43.9526 50.1304 43.7966 50.3524C43.6406 50.5744 43.4186 50.7484 43.1306 50.8744C42.8486 51.0004 42.5156 51.0634 42.1316 51.0634ZM48.5991 45.3664C48.4131 45.3664 48.2571 45.3034 48.1311 45.1774C48.0051 45.0514 47.9421 44.8954 47.9421 44.7094C47.9421 44.5234 48.0051 44.3674 48.1311 44.2414C48.2571 44.1154 48.4131 44.0524 48.5991 44.0524C48.7791 44.0524 48.9321 44.1154 49.0581 44.2414C49.1841 44.3674 49.2471 44.5234 49.2471 44.7094C49.2471 44.8954 49.1841 45.0514 49.0581 45.1774C48.9321 45.3034 48.7791 45.3664 48.5991 45.3664ZM49.1031 46.0234V50.9824H48.0771V46.0234H49.1031ZM51.9472 46.8604V49.6054C51.9472 49.7914 51.9892 49.9264 52.0732 50.0104C52.1632 50.0884 52.3132 50.1274 52.5232 50.1274H53.1532V50.9824H52.3432C51.8812 50.9824 51.5272 50.8744 51.2812 50.6584C51.0352 50.4424 50.9122 50.0914 50.9122 49.6054V46.8604H50.3272V46.0234H50.9122V44.7904H51.9472V46.0234H53.1532V46.8604H51.9472ZM56.1988 51.0634C55.8088 51.0634 55.4578 50.9944 55.1458 50.8564C54.8398 50.7124 54.5968 50.5204 54.4168 50.2804C54.2368 50.0344 54.1408 49.7614 54.1288 49.4614H55.1908C55.2088 49.6714 55.3078 49.8484 55.4878 49.9924C55.6738 50.1304 55.9048 50.1994 56.1808 50.1994C56.4688 50.1994 56.6908 50.1454 56.8468 50.0374C57.0088 49.9234 57.0898 49.7794 57.0898 49.6054C57.0898 49.4194 56.9998 49.2814 56.8198 49.1914C56.6458 49.1014 56.3668 49.0024 55.9828 48.8944C55.6108 48.7924 55.3078 48.6934 55.0738 48.5974C54.8398 48.5014 54.6358 48.3544 54.4618 48.1564C54.2938 47.9584 54.2098 47.6974 54.2098 47.3734C54.2098 47.1094 54.2878 46.8694 54.4438 46.6534C54.5998 46.4314 54.8218 46.2574 55.1098 46.1314C55.4038 46.0054 55.7398 45.9424 56.1178 45.9424C56.6818 45.9424 57.1348 46.0864 57.4768 46.3744C57.8248 46.6564 58.0108 47.0434 58.0348 47.5354H57.0088C56.9908 47.3134 56.9008 47.1364 56.7388 47.0044C56.5768 46.8724 56.3578 46.8064 56.0818 46.8064C55.8118 46.8064 55.6048 46.8574 55.4608 46.9594C55.3168 47.0614 55.2448 47.1964 55.2448 47.3644C55.2448 47.4964 55.2928 47.6074 55.3888 47.6974C55.4848 47.7874 55.6018 47.8594 55.7398 47.9134C55.8778 47.9614 56.0818 48.0244 56.3518 48.1024C56.7118 48.1984 57.0058 48.2974 57.2338 48.3994C57.4678 48.4954 57.6688 48.6394 57.8368 48.8314C58.0048 49.0234 58.0918 49.2784 58.0978 49.5964C58.0978 49.8784 58.0198 50.1304 57.8638 50.3524C57.7078 50.5744 57.4858 50.7484 57.1978 50.8744C56.9158 51.0004 56.5828 51.0634 56.1988 51.0634ZM63.1703 46.7524C63.3443 46.5244 63.5813 46.3324 63.8813 46.1764C64.1813 46.0204 64.5203 45.9424 64.8983 45.9424C65.3303 45.9424 65.7233 46.0504 66.0773 46.2664C66.4373 46.4764 66.7193 46.7734 66.9233 47.1574C67.1273 47.5414 67.2293 47.9824 67.2293 48.4804C67.2293 48.9784 67.1273 49.4254 66.9233 49.8214C66.7193 50.2114 66.4373 50.5174 66.0773 50.7394C65.7233 50.9554 65.3303 51.0634 64.8983 51.0634C64.5203 51.0634 64.1843 50.9884 63.8903 50.8384C63.5963 50.6824 63.3563 50.4904 63.1703 50.2624V53.3404H62.1443V46.0234H63.1703V46.7524ZM66.1853 48.4804C66.1853 48.1384 66.1133 47.8444 65.9693 47.5984C65.8313 47.3464 65.6453 47.1574 65.4113 47.0314C65.1833 46.8994 64.9373 46.8334 64.6733 46.8334C64.4153 46.8334 64.1693 46.8994 63.9353 47.0314C63.7073 47.1634 63.5213 47.3554 63.3773 47.6074C63.2393 47.8594 63.1703 48.1564 63.1703 48.4984C63.1703 48.8404 63.2393 49.1404 63.3773 49.3984C63.5213 49.6504 63.7073 49.8424 63.9353 49.9744C64.1693 50.1064 64.4153 50.1724 64.6733 50.1724C64.9373 50.1724 65.1833 50.1064 65.4113 49.9744C65.6453 49.8364 65.8313 49.6384 65.9693 49.3804C66.1133 49.1224 66.1853 48.8224 66.1853 48.4804ZM73.0349 46.0234V50.9824H72.0089V50.3974C71.8469 50.6014 71.6339 50.7634 71.3699 50.8834C71.1119 50.9974 70.8359 51.0544 70.5419 51.0544C70.1519 51.0544 69.8009 50.9734 69.4889 50.8114C69.1829 50.6494 68.9399 50.4094 68.7599 50.0914C68.5859 49.7734 68.4989 49.3894 68.4989 48.9394V46.0234H69.5159V48.7864C69.5159 49.2304 69.6269 49.5724 69.8489 49.8124C70.0709 50.0464 70.3739 50.1634 70.7579 50.1634C71.1419 50.1634 71.4449 50.0464 71.6669 49.8124C71.8949 49.5724 72.0089 49.2304 72.0089 48.7864V46.0234H73.0349ZM75.7147 46.7434C75.8647 46.4914 76.0627 46.2964 76.3087 46.1584C76.5607 46.0144 76.8577 45.9424 77.1997 45.9424V47.0044H76.9387C76.5367 47.0044 76.2307 47.1064 76.0207 47.3104C75.8167 47.5144 75.7147 47.8684 75.7147 48.3724V50.9824H74.6887V46.0234H75.7147V46.7434ZM79.4688 46.7524C79.6428 46.5244 79.8798 46.3324 80.1798 46.1764C80.4798 46.0204 80.8188 45.9424 81.1968 45.9424C81.6288 45.9424 82.0218 46.0504 82.3758 46.2664C82.7358 46.4764 83.0178 46.7734 83.2218 47.1574C83.4258 47.5414 83.5278 47.9824 83.5278 48.4804C83.5278 48.9784 83.4258 49.4254 83.2218 49.8214C83.0178 50.2114 82.7358 50.5174 82.3758 50.7394C82.0218 50.9554 81.6288 51.0634 81.1968 51.0634C80.8188 51.0634 80.4828 50.9884 80.1888 50.8384C79.8948 50.6824 79.6548 50.4904 79.4688 50.2624V53.3404H78.4428V46.0234H79.4688V46.7524ZM82.4838 48.4804C82.4838 48.1384 82.4118 47.8444 82.2678 47.5984C82.1298 47.3464 81.9438 47.1574 81.7098 47.0314C81.4818 46.8994 81.2358 46.8334 80.9718 46.8334C80.7138 46.8334 80.4678 46.8994 80.2338 47.0314C80.0058 47.1634 79.8198 47.3554 79.6758 47.6074C79.5378 47.8594 79.4688 48.1564 79.4688 48.4984C79.4688 48.8404 79.5378 49.1404 79.6758 49.3984C79.8198 49.6504 80.0058 49.8424 80.2338 49.9744C80.4678 50.1064 80.7138 50.1724 80.9718 50.1724C81.2358 50.1724 81.4818 50.1064 81.7098 49.9744C81.9438 49.8364 82.1298 49.6384 82.2678 49.3804C82.4118 49.1224 82.4838 48.8224 82.4838 48.4804ZM86.9934 51.0634C86.5254 51.0634 86.1024 50.9584 85.7244 50.7484C85.3464 50.5324 85.0494 50.2324 84.8334 49.8484C84.6174 49.4584 84.5094 49.0084 84.5094 48.4984C84.5094 47.9944 84.6204 47.5474 84.8424 47.1574C85.0644 46.7674 85.3674 46.4674 85.7514 46.2574C86.1354 46.0474 86.5644 45.9424 87.0384 45.9424C87.5124 45.9424 87.9414 46.0474 88.3254 46.2574C88.7094 46.4674 89.0124 46.7674 89.2344 47.1574C89.4564 47.5474 89.5674 47.9944 89.5674 48.4984C89.5674 49.0024 89.4534 49.4494 89.2254 49.8394C88.9974 50.2294 88.6854 50.5324 88.2894 50.7484C87.8994 50.9584 87.4674 51.0634 86.9934 51.0634ZM86.9934 50.1724C87.2574 50.1724 87.5034 50.1094 87.7314 49.9834C87.9654 49.8574 88.1544 49.6684 88.2984 49.4164C88.4424 49.1644 88.5144 48.8584 88.5144 48.4984C88.5144 48.1384 88.4454 47.8354 88.3074 47.5894C88.1694 47.3374 87.9864 47.1484 87.7584 47.0224C87.5304 46.8964 87.2844 46.8334 87.0204 46.8334C86.7564 46.8334 86.5104 46.8964 86.2824 47.0224C86.0604 47.1484 85.8834 47.3374 85.7514 47.5894C85.6194 47.8354 85.5534 48.1384 85.5534 48.4984C85.5534 49.0324 85.6884 49.4464 85.9584 49.7404C86.2344 50.0284 86.5794 50.1724 86.9934 50.1724ZM92.6816 51.0634C92.2916 51.0634 91.9406 50.9944 91.6286 50.8564C91.3226 50.7124 91.0796 50.5204 90.8996 50.2804C90.7196 50.0344 90.6236 49.7614 90.6116 49.4614H91.6736C91.6916 49.6714 91.7906 49.8484 91.9706 49.9924C92.1566 50.1304 92.3876 50.1994 92.6636 50.1994C92.9516 50.1994 93.1736 50.1454 93.3296 50.0374C93.4916 49.9234 93.5726 49.7794 93.5726 49.6054C93.5726 49.4194 93.4826 49.2814 93.3026 49.1914C93.1286 49.1014 92.8496 49.0024 92.4656 48.8944C92.0936 48.7924 91.7906 48.6934 91.5566 48.5974C91.3226 48.5014 91.1186 48.3544 90.9446 48.1564C90.7766 47.9584 90.6926 47.6974 90.6926 47.3734C90.6926 47.1094 90.7706 46.8694 90.9266 46.6534C91.0826 46.4314 91.3046 46.2574 91.5926 46.1314C91.8866 46.0054 92.2226 45.9424 92.6006 45.9424C93.1646 45.9424 93.6176 46.0864 93.9596 46.3744C94.3076 46.6564 94.4936 47.0434 94.5176 47.5354H93.4916C93.4736 47.3134 93.3836 47.1364 93.2216 47.0044C93.0596 46.8724 92.8406 46.8064 92.5646 46.8064C92.2946 46.8064 92.0876 46.8574 91.9436 46.9594C91.7996 47.0614 91.7276 47.1964 91.7276 47.3644C91.7276 47.4964 91.7756 47.6074 91.8716 47.6974C91.9676 47.7874 92.0846 47.8594 92.2226 47.9134C92.3606 47.9614 92.5646 48.0244 92.8346 48.1024C93.1946 48.1984 93.4886 48.2974 93.7166 48.3994C93.9506 48.4954 94.1516 48.6394 94.3196 48.8314C94.4876 49.0234 94.5746 49.2784 94.5806 49.5964C94.5806 49.8784 94.5026 50.1304 94.3466 50.3524C94.1906 50.5744 93.9686 50.7484 93.6806 50.8744C93.3986 51.0004 93.0656 51.0634 92.6816 51.0634ZM100.534 48.3814C100.534 48.5674 100.522 48.7354 100.498 48.8854H96.7093C96.7393 49.2814 96.8863 49.5994 97.1503 49.8394C97.4143 50.0794 97.7383 50.1994 98.1223 50.1994C98.6743 50.1994 99.0643 49.9684 99.2923 49.5064H100.399C100.249 49.9624 99.9763 50.3374 99.5803 50.6314C99.1903 50.9194 98.7043 51.0634 98.1223 51.0634C97.6483 51.0634 97.2223 50.9584 96.8443 50.7484C96.4723 50.5324 96.1783 50.2324 95.9623 49.8484C95.7523 49.4584 95.6473 49.0084 95.6473 48.4984C95.6473 47.9884 95.7493 47.5414 95.9533 47.1574C96.1633 46.7674 96.4543 46.4674 96.8263 46.2574C97.2043 46.0474 97.6363 45.9424 98.1223 45.9424C98.5903 45.9424 99.0073 46.0444 99.3733 46.2484C99.7393 46.4524 100.024 46.7404 100.228 47.1124C100.432 47.4784 100.534 47.9014 100.534 48.3814ZM99.4633 48.0574C99.4573 47.6794 99.3223 47.3764 99.0583 47.1484C98.7943 46.9204 98.4673 46.8064 98.0773 46.8064C97.7233 46.8064 97.4203 46.9204 97.1683 47.1484C96.9163 47.3704 96.7663 47.6734 96.7183 48.0574H99.4633ZM111.142 46.0234L109.603 50.9824H108.523L107.524 47.3194L106.525 50.9824H105.445L103.897 46.0234H104.941L105.976 50.0104L107.029 46.0234H108.1L109.108 49.9924L110.134 46.0234H111.142ZM112.731 45.3664C112.545 45.3664 112.389 45.3034 112.263 45.1774C112.137 45.0514 112.074 44.8954 112.074 44.7094C112.074 44.5234 112.137 44.3674 112.263 44.2414C112.389 44.1154 112.545 44.0524 112.731 44.0524C112.911 44.0524 113.064 44.1154 113.19 44.2414C113.316 44.3674 113.379 44.5234 113.379 44.7094C113.379 44.8954 113.316 45.0514 113.19 45.1774C113.064 45.3034 112.911 45.3664 112.731 45.3664ZM113.235 46.0234V50.9824H112.209V46.0234H113.235ZM116.079 46.8604V49.6054C116.079 49.7914 116.121 49.9264 116.205 50.0104C116.295 50.0884 116.445 50.1274 116.655 50.1274H117.285V50.9824H116.475C116.013 50.9824 115.659 50.8744 115.413 50.6584C115.167 50.4424 115.044 50.0914 115.044 49.6054V46.8604H114.459V46.0234H115.044V44.7904H116.079V46.0234H117.285V46.8604H116.079ZM121.095 45.9424C121.473 45.9424 121.809 46.0234 122.103 46.1854C122.403 46.3474 122.637 46.5874 122.805 46.9054C122.979 47.2234 123.066 47.6074 123.066 48.0574V50.9824H122.049V48.2104C122.049 47.7664 121.938 47.4274 121.716 47.1934C121.494 46.9534 121.191 46.8334 120.807 46.8334C120.423 46.8334 120.117 46.9534 119.889 47.1934C119.667 47.4274 119.556 47.7664 119.556 48.2104V50.9824H118.53V44.3224H119.556V46.5994C119.73 46.3894 119.949 46.2274 120.213 46.1134C120.483 45.9994 120.777 45.9424 121.095 45.9424Z" fill="black"/>
<path opacity="0.65" d="M283.701 39.7872H285.816V40.6152H282.675V34.3602H283.701V39.7872ZM291.519 38.0142C291.519 38.2002 291.507 38.3682 291.483 38.5182H287.694C287.724 38.9142 287.871 39.2322 288.135 39.4722C288.399 39.7122 288.723 39.8322 289.107 39.8322C289.659 39.8322 290.049 39.6012 290.277 39.1392H291.384C291.234 39.5952 290.961 39.9702 290.565 40.2642C290.175 40.5522 289.689 40.6962 289.107 40.6962C288.633 40.6962 288.207 40.5912 287.829 40.3812C287.457 40.1652 287.163 39.8652 286.947 39.4812C286.737 39.0912 286.632 38.6412 286.632 38.1312C286.632 37.6212 286.734 37.1742 286.938 36.7902C287.148 36.4002 287.439 36.1002 287.811 35.8902C288.189 35.6802 288.621 35.5752 289.107 35.5752C289.575 35.5752 289.992 35.6772 290.358 35.8812C290.724 36.0852 291.009 36.3732 291.213 36.7452C291.417 37.1112 291.519 37.5342 291.519 38.0142ZM290.448 37.6902C290.442 37.3122 290.307 37.0092 290.043 36.7812C289.779 36.5532 289.452 36.4392 289.062 36.4392C288.708 36.4392 288.405 36.5532 288.153 36.7812C287.901 37.0032 287.751 37.3062 287.703 37.6902H290.448ZM292.487 38.1132C292.487 37.6152 292.589 37.1742 292.793 36.7902C293.003 36.4062 293.285 36.1092 293.639 35.8992C293.999 35.6832 294.395 35.5752 294.827 35.5752C295.217 35.5752 295.556 35.6532 295.844 35.8092C296.138 35.9592 296.372 36.1482 296.546 36.3762V35.6562H297.581V40.6152H296.546V39.8772C296.372 40.1112 296.135 40.3062 295.835 40.4622C295.535 40.6182 295.193 40.6962 294.809 40.6962C294.383 40.6962 293.993 40.5882 293.639 40.3722C293.285 40.1502 293.003 39.8442 292.793 39.4542C292.589 39.0582 292.487 38.6112 292.487 38.1132ZM296.546 38.1312C296.546 37.7892 296.474 37.4922 296.33 37.2402C296.192 36.9882 296.009 36.7962 295.781 36.6642C295.553 36.5322 295.307 36.4662 295.043 36.4662C294.779 36.4662 294.533 36.5322 294.305 36.6642C294.077 36.7902 293.891 36.9792 293.747 37.2312C293.609 37.4772 293.54 37.7712 293.54 38.1132C293.54 38.4552 293.609 38.7552 293.747 39.0132C293.891 39.2712 294.077 39.4692 294.305 39.6072C294.539 39.7392 294.785 39.8052 295.043 39.8052C295.307 39.8052 295.553 39.7392 295.781 39.6072C296.009 39.4752 296.192 39.2832 296.33 39.0312C296.474 38.7732 296.546 38.4732 296.546 38.1312ZM300.254 36.3762C300.404 36.1242 300.602 35.9292 300.848 35.7912C301.1 35.6472 301.397 35.5752 301.739 35.5752V36.6372H301.478C301.076 36.6372 300.77 36.7392 300.56 36.9432C300.356 37.1472 300.254 37.5012 300.254 38.0052V40.6152H299.228V35.6562H300.254V36.3762ZM305.484 35.5752C305.874 35.5752 306.222 35.6562 306.528 35.8182C306.84 35.9802 307.083 36.2202 307.257 36.5382C307.431 36.8562 307.518 37.2402 307.518 37.6902V40.6152H306.501V37.8432C306.501 37.3992 306.39 37.0602 306.168 36.8262C305.946 36.5862 305.643 36.4662 305.259 36.4662C304.875 36.4662 304.569 36.5862 304.341 36.8262C304.119 37.0602 304.008 37.3992 304.008 37.8432V40.6152H302.982V35.6562H304.008V36.2232C304.176 36.0192 304.389 35.8602 304.647 35.7462C304.911 35.6322 305.19 35.5752 305.484 35.5752ZM309.649 34.9992C309.463 34.9992 309.307 34.9362 309.181 34.8102C309.055 34.6842 308.992 34.5282 308.992 34.3422C308.992 34.1562 309.055 34.0002 309.181 33.8742C309.307 33.7482 309.463 33.6852 309.649 33.6852C309.829 33.6852 309.982 33.7482 310.108 33.8742C310.234 34.0002 310.297 34.1562 310.297 34.3422C310.297 34.5282 310.234 34.6842 310.108 34.8102C309.982 34.9362 309.829 34.9992 309.649 34.9992ZM310.153 35.6562V40.6152H309.127V35.6562H310.153ZM314.302 35.5752C314.692 35.5752 315.04 35.6562 315.346 35.8182C315.658 35.9802 315.901 36.2202 316.075 36.5382C316.249 36.8562 316.336 37.2402 316.336 37.6902V40.6152H315.319V37.8432C315.319 37.3992 315.208 37.0602 314.986 36.8262C314.764 36.5862 314.461 36.4662 314.077 36.4662C313.693 36.4662 313.387 36.5862 313.159 36.8262C312.937 37.0602 312.826 37.3992 312.826 37.8432V40.6152H311.8V35.6562H312.826V36.2232C312.994 36.0192 313.207 35.8602 313.465 35.7462C313.729 35.6322 314.008 35.5752 314.302 35.5752ZM319.943 35.5752C320.327 35.5752 320.666 35.6532 320.96 35.8092C321.26 35.9592 321.494 36.1482 321.662 36.3762V35.6562H322.697V40.6962C322.697 41.1522 322.601 41.5572 322.409 41.9112C322.217 42.2712 321.938 42.5532 321.572 42.7572C321.212 42.9612 320.78 43.0632 320.276 43.0632C319.604 43.0632 319.046 42.9042 318.602 42.5862C318.158 42.2742 317.906 41.8482 317.846 41.3082H318.863C318.941 41.5662 319.106 41.7732 319.358 41.9292C319.616 42.0912 319.922 42.1722 320.276 42.1722C320.69 42.1722 321.023 42.0462 321.275 41.7942C321.533 41.5422 321.662 41.1762 321.662 40.6962V39.8682C321.488 40.1022 321.251 40.3002 320.951 40.4622C320.657 40.6182 320.321 40.6962 319.943 40.6962C319.511 40.6962 319.115 40.5882 318.755 40.3722C318.401 40.1502 318.119 39.8442 317.909 39.4542C317.705 39.0582 317.603 38.6112 317.603 38.1132C317.603 37.6152 317.705 37.1742 317.909 36.7902C318.119 36.4062 318.401 36.1092 318.755 35.8992C319.115 35.6832 319.511 35.5752 319.943 35.5752ZM321.662 38.1312C321.662 37.7892 321.59 37.4922 321.446 37.2402C321.308 36.9882 321.125 36.7962 320.897 36.6642C320.669 36.5322 320.423 36.4662 320.159 36.4662C319.895 36.4662 319.649 36.5322 319.421 36.6642C319.193 36.7902 319.007 36.9792 318.863 37.2312C318.725 37.4772 318.656 37.7712 318.656 38.1132C318.656 38.4552 318.725 38.7552 318.863 39.0132C319.007 39.2712 319.193 39.4692 319.421 39.6072C319.655 39.7392 319.901 39.8052 320.159 39.8052C320.423 39.8052 320.669 39.7392 320.897 39.6072C321.125 39.4752 321.308 39.2832 321.446 39.0312C321.59 38.7732 321.662 38.4732 321.662 38.1312ZM326.64 38.1312C326.64 37.6212 326.742 37.1742 326.946 36.7902C327.156 36.4002 327.444 36.1002 327.81 35.8902C328.176 35.6802 328.596 35.5752 329.07 35.5752C329.67 35.5752 330.165 35.7192 330.555 36.0072C330.951 36.2892 331.218 36.6942 331.356 37.2222H330.249C330.159 36.9762 330.015 36.7842 329.817 36.6462C329.619 36.5082 329.37 36.4392 329.07 36.4392C328.65 36.4392 328.314 36.5892 328.062 36.8892C327.816 37.1832 327.693 37.5972 327.693 38.1312C327.693 38.6652 327.816 39.0822 328.062 39.3822C328.314 39.6822 328.65 39.8322 329.07 39.8322C329.664 39.8322 330.057 39.5712 330.249 39.0492H331.356C331.212 39.5532 330.942 39.9552 330.546 40.2552C330.15 40.5492 329.658 40.6962 329.07 40.6962C328.596 40.6962 328.176 40.5912 327.81 40.3812C327.444 40.1652 327.156 39.8652 326.946 39.4812C326.742 39.0912 326.64 38.6412 326.64 38.1312ZM337.17 35.6562V40.6152H336.144V40.0302C335.982 40.2342 335.769 40.3962 335.505 40.5162C335.247 40.6302 334.971 40.6872 334.677 40.6872C334.287 40.6872 333.936 40.6062 333.624 40.4442C333.318 40.2822 333.075 40.0422 332.895 39.7242C332.721 39.4062 332.634 39.0222 332.634 38.5722V35.6562H333.651V38.4192C333.651 38.8632 333.762 39.2052 333.984 39.4452C334.206 39.6792 334.509 39.7962 334.893 39.7962C335.277 39.7962 335.58 39.6792 335.802 39.4452C336.03 39.2052 336.144 38.8632 336.144 38.4192V35.6562H337.17ZM339.85 36.3762C340 36.1242 340.198 35.9292 340.444 35.7912C340.696 35.6472 340.993 35.5752 341.335 35.5752V36.6372H341.074C340.672 36.6372 340.366 36.7392 340.156 36.9432C339.952 37.1472 339.85 37.5012 339.85 38.0052V40.6152H338.824V35.6562H339.85V36.3762ZM344.495 39.6972L345.899 35.6562H346.988L345.098 40.6152H343.874L341.993 35.6562H343.091L344.495 39.6972ZM352.608 38.0142C352.608 38.2002 352.596 38.3682 352.572 38.5182H348.783C348.813 38.9142 348.96 39.2322 349.224 39.4722C349.488 39.7122 349.812 39.8322 350.196 39.8322C350.748 39.8322 351.138 39.6012 351.366 39.1392H352.473C352.323 39.5952 352.05 39.9702 351.654 40.2642C351.264 40.5522 350.778 40.6962 350.196 40.6962C349.722 40.6962 349.296 40.5912 348.918 40.3812C348.546 40.1652 348.252 39.8652 348.036 39.4812C347.826 39.0912 347.721 38.6412 347.721 38.1312C347.721 37.6212 347.823 37.1742 348.027 36.7902C348.237 36.4002 348.528 36.1002 348.9 35.8902C349.278 35.6802 349.71 35.5752 350.196 35.5752C350.664 35.5752 351.081 35.6772 351.447 35.8812C351.813 36.0852 352.098 36.3732 352.302 36.7452C352.506 37.1112 352.608 37.5342 352.608 38.0142ZM351.537 37.6902C351.531 37.3122 351.396 37.0092 351.132 36.7812C350.868 36.5532 350.541 36.4392 350.151 36.4392C349.797 36.4392 349.494 36.5532 349.242 36.7812C348.99 37.0032 348.84 37.3062 348.792 37.6902H351.537ZM355.043 39.3822L353.954 41.8662H353.288L353.927 39.3822H355.043Z" fill="black"/>
<path opacity="0.4" d="M283.701 45.845V47.681H285.861V48.518H283.701V50.435H286.131V51.272H282.675V45.008H286.131V45.845H283.701ZM289.774 47.15H288.856V51.272H287.821V47.15H287.236V46.313H287.821V45.962C287.821 45.392 287.971 44.978 288.271 44.72C288.577 44.456 289.054 44.324 289.702 44.324V45.179C289.39 45.179 289.171 45.239 289.045 45.359C288.919 45.473 288.856 45.674 288.856 45.962V46.313H289.774V47.15ZM293.062 47.15H292.144V51.272H291.109V47.15H290.524V46.313H291.109V45.962C291.109 45.392 291.259 44.978 291.559 44.72C291.865 44.456 292.342 44.324 292.99 44.324V45.179C292.678 45.179 292.459 45.239 292.333 45.359C292.207 45.473 292.144 45.674 292.144 45.962V46.313H293.062V47.15ZM296.422 51.353C295.954 51.353 295.531 51.248 295.153 51.038C294.775 50.822 294.478 50.522 294.262 50.138C294.046 49.748 293.938 49.298 293.938 48.788C293.938 48.284 294.049 47.837 294.271 47.447C294.493 47.057 294.796 46.757 295.18 46.547C295.564 46.337 295.993 46.232 296.467 46.232C296.941 46.232 297.37 46.337 297.754 46.547C298.138 46.757 298.441 47.057 298.663 47.447C298.885 47.837 298.996 48.284 298.996 48.788C298.996 49.292 298.882 49.739 298.654 50.129C298.426 50.519 298.114 50.822 297.718 51.038C297.328 51.248 296.896 51.353 296.422 51.353ZM296.422 50.462C296.686 50.462 296.932 50.399 297.16 50.273C297.394 50.147 297.583 49.958 297.727 49.706C297.871 49.454 297.943 49.148 297.943 48.788C297.943 48.428 297.874 48.125 297.736 47.879C297.598 47.627 297.415 47.438 297.187 47.312C296.959 47.186 296.713 47.123 296.449 47.123C296.185 47.123 295.939 47.186 295.711 47.312C295.489 47.438 295.312 47.627 295.18 47.879C295.048 48.125 294.982 48.428 294.982 48.788C294.982 49.322 295.117 49.736 295.387 50.03C295.663 50.318 296.008 50.462 296.422 50.462ZM301.337 47.033C301.487 46.781 301.685 46.586 301.931 46.448C302.183 46.304 302.48 46.232 302.822 46.232V47.294H302.561C302.159 47.294 301.853 47.396 301.643 47.6C301.439 47.804 301.337 48.158 301.337 48.662V51.272H300.311V46.313H301.337V47.033ZM305.262 47.15V49.895C305.262 50.081 305.304 50.216 305.388 50.3C305.478 50.378 305.628 50.417 305.838 50.417H306.468V51.272H305.658C305.196 51.272 304.842 51.164 304.596 50.948C304.35 50.732 304.227 50.381 304.227 49.895V47.15H303.642V46.313H304.227V45.08H305.262V46.313H306.468V47.15H305.262ZM309.513 51.353C309.123 51.353 308.772 51.284 308.46 51.146C308.154 51.002 307.911 50.81 307.731 50.57C307.551 50.324 307.455 50.051 307.443 49.751H308.505C308.523 49.961 308.622 50.138 308.802 50.282C308.988 50.42 309.219 50.489 309.495 50.489C309.783 50.489 310.005 50.435 310.161 50.327C310.323 50.213 310.404 50.069 310.404 49.895C310.404 49.709 310.314 49.571 310.134 49.481C309.96 49.391 309.681 49.292 309.297 49.184C308.925 49.082 308.622 48.983 308.388 48.887C308.154 48.791 307.95 48.644 307.776 48.446C307.608 48.248 307.524 47.987 307.524 47.663C307.524 47.399 307.602 47.159 307.758 46.943C307.914 46.721 308.136 46.547 308.424 46.421C308.718 46.295 309.054 46.232 309.432 46.232C309.996 46.232 310.449 46.376 310.791 46.664C311.139 46.946 311.325 47.333 311.349 47.825H310.323C310.305 47.603 310.215 47.426 310.053 47.294C309.891 47.162 309.672 47.096 309.396 47.096C309.126 47.096 308.919 47.147 308.775 47.249C308.631 47.351 308.559 47.486 308.559 47.654C308.559 47.786 308.607 47.897 308.703 47.987C308.799 48.077 308.916 48.149 309.054 48.203C309.192 48.251 309.396 48.314 309.666 48.392C310.026 48.488 310.32 48.587 310.548 48.689C310.782 48.785 310.983 48.929 311.151 49.121C311.319 49.313 311.406 49.568 311.412 49.886C311.412 50.168 311.334 50.42 311.178 50.642C311.022 50.864 310.8 51.038 310.512 51.164C310.23 51.29 309.897 51.353 309.513 51.353ZM313.235 51.335C313.049 51.335 312.893 51.272 312.767 51.146C312.641 51.02 312.578 50.864 312.578 50.678C312.578 50.492 312.641 50.336 312.767 50.21C312.893 50.084 313.049 50.021 313.235 50.021C313.415 50.021 313.568 50.084 313.694 50.21C313.82 50.336 313.883 50.492 313.883 50.678C313.883 50.864 313.82 51.02 313.694 51.146C313.568 51.272 313.415 51.335 313.235 51.335Z" fill="black"/>
<g clip-path="url(#clip0_518_324)">
<g opacity="0.8">
<path d="M152.505 24.1572H155.482V50.8172H152.683V29.8447L143.396 50.8172H141.041L131.844 29.7558V50.8172H129V24.1572H132.021L142.241 47.3959L152.505 24.1572Z" fill="#999999"/>
<path d="M162.2 50.8172V24.1572H165.044V50.8172H162.2Z" fill="#999999"/>
<path d="M190.848 24.1572H193.648V50.8172H190.982L174.541 28.9116V50.8172H171.698V24.1572H174.364L190.848 46.0629V24.1572Z" fill="#999999"/>
<path d="M200.35 50.8172V24.1572H203.194V50.8172H200.35Z" fill="#999999"/>
<path d="M233.353 24.1572H236.33V50.8172H233.531V29.8447L224.244 50.8172H221.889L212.692 29.7558V50.8172H209.848V24.1572H212.869L223.089 47.3959L233.353 24.1572Z" fill="#999999"/>
<path d="M258.911 50.8172L256.733 44.5966H244.87L242.692 50.8172H239.582L249.224 24.1572H252.379L262.021 50.8172H258.911ZM245.803 41.8861H255.8L250.824 27.5342L245.803 41.8861Z" fill="#999999"/>
<path d="M268.094 47.9735H278.003V50.8172H265.251V24.1572H268.094V47.9735Z" fill="#999999"/>
</g>
</g>
<g clip-path="url(#clip1_518_324)">
<g opacity="0.8">
<path d="M152.505 24.1577H155.482V50.8177H152.683V29.8452L143.396 50.8177H141.041L131.844 29.7563V50.8177H129V24.1577H132.021L142.241 47.3964L152.505 24.1577Z" fill="#595959"/>
<path d="M162.2 50.8177V24.1577H165.044V50.8177H162.2Z" fill="#595959"/>
<path d="M190.848 24.1577H193.648V50.8177H190.982L174.541 28.9121V50.8177H171.698V24.1577H174.364L190.848 46.0634V24.1577Z" fill="#595959"/>
<path d="M200.35 50.8177V24.1577H203.194V50.8177H200.35Z" fill="#595959"/>
<path d="M233.353 24.1577H236.33V50.8177H233.531V29.8452L224.244 50.8177H221.889L212.692 29.7563V50.8177H209.848V24.1577H212.869L223.089 47.3964L233.353 24.1577Z" fill="#595959"/>
<path d="M258.911 50.8177L256.733 44.5971H244.87L242.692 50.8177H239.582L249.224 24.1577H252.379L262.021 50.8177H258.911ZM245.803 41.8866H255.8L250.824 27.5347L245.803 41.8866Z" fill="#595959"/>
<path d="M268.094 47.974H278.003V50.8177H265.251V24.1577H268.094V47.974Z" fill="#595959"/>
</g>
</g>
<g clip-path="url(#clip2_518_324)">
<g opacity="0.8">
<path d="M152.505 24.1572H155.482V50.8172H152.683V29.8447L143.396 50.8172H141.041L131.844 29.7558V50.8172H129V24.1572H132.021L142.241 47.3959L152.505 24.1572Z" fill="black"/>
<path d="M162.2 50.8172V24.1572H165.044V50.8172H162.2Z" fill="black"/>
<path d="M190.848 24.1572H193.648V50.8172H190.982L174.541 28.9116V50.8172H171.698V24.1572H174.364L190.848 46.0629V24.1572Z" fill="black"/>
<path d="M200.35 50.8172V24.1572H203.194V50.8172H200.35Z" fill="black"/>
<path d="M233.353 24.1572H236.33V50.8172H233.531V29.8447L224.244 50.8172H221.889L212.692 29.7558V50.8172H209.848V24.1572H212.869L223.089 47.3959L233.353 24.1572Z" fill="black"/>
<path d="M258.911 50.8172L256.733 44.5966H244.87L242.692 50.8172H239.582L249.224 24.1572H252.379L262.021 50.8172H258.911ZM245.803 41.8861H255.8L250.824 27.5342L245.803 41.8861Z" fill="black"/>
<path d="M268.094 47.9735H278.003V50.8172H265.251V24.1572H268.094V47.9735Z" fill="black"/>
</g>
</g>
<defs>
<clipPath id="clip0_518_324">
<rect width="149" height="9.18289" fill="white" transform="translate(129 41.6343)"/>
</clipPath>
<clipPath id="clip1_518_324">
<rect width="149" height="8.29422" fill="white" transform="translate(129 33.3408)"/>
</clipPath>
<clipPath id="clip2_518_324">
<rect width="149" height="9.18289" fill="white" transform="translate(129 24.1572)"/>
</clipPath>
</defs>
</svg>
