<svg width="265" height="31" viewBox="0 0 265 31" fill="none" xmlns="http://www.w3.org/2000/svg">
<g opacity="0.1">
<path d="M18.7964 0.908958H24.947V19.801C24.947 21.9222 24.4403 23.7783 23.4271 25.3692C22.4233 26.9601 21.017 28.2006 19.2083 29.0908C17.3996 29.9715 15.2926 30.4118 12.8873 30.4118C10.4725 30.4118 8.36078 29.9715 6.55207 29.0908C4.74336 28.2006 3.33711 26.9601 2.33332 25.3692C1.32953 23.7783 0.827637 21.9222 0.827637 19.801V0.908958H6.97821V19.2754C6.97821 20.3834 7.21968 21.3682 7.70264 22.23C8.19506 23.0917 8.88635 23.7688 9.7765 24.2612C10.6667 24.7537 11.7036 24.9999 12.8873 24.9999C14.0805 24.9999 15.1174 24.7537 15.9981 24.2612C16.8882 23.7688 17.5748 23.0917 18.0578 22.23C18.5502 21.3682 18.7964 20.3834 18.7964 19.2754V0.908958Z" fill="black"/>
<path d="M32.9579 0.908958V29.9999H26.8073V0.908958H32.9579Z" fill="black"/>
<path d="M83.0761 0.908958H89.2266V19.801C89.2266 21.9222 88.72 23.7783 87.7068 25.3692C86.703 26.9601 85.2967 28.2006 83.488 29.0908C81.6793 29.9715 79.5723 30.4118 77.167 30.4118C74.7522 30.4118 72.6405 29.9715 70.8318 29.0908C69.023 28.2006 67.6168 26.9601 66.613 25.3692C65.6092 23.7783 65.1073 21.9222 65.1073 19.801V0.908958H71.2579V19.2754C71.2579 20.3834 71.4994 21.3682 71.9823 22.23C72.4747 23.0917 73.166 23.7688 74.0562 24.2612C74.9463 24.7537 75.9833 24.9999 77.167 24.9999C78.3602 24.9999 79.3971 24.7537 80.2778 24.2612C81.1679 23.7688 81.8545 23.0917 82.3374 22.23C82.8299 21.3682 83.0761 20.3834 83.0761 19.2754V0.908958Z" fill="black"/>
<path d="M96.8541 0.908958L102.721 10.8237H102.948L108.843 0.908958H115.789L106.911 15.4544L115.988 29.9999H108.914L102.948 20.0709H102.721L96.7546 29.9999H89.7092L98.8143 15.4544L89.8796 0.908958H96.8541Z" fill="black"/>
<path d="M166.38 11.0936H160.158C160.044 10.2887 159.812 9.57373 159.462 8.94873C159.112 8.31426 158.662 7.77449 158.113 7.32941C157.563 6.88434 156.929 6.54343 156.209 6.30669C155.499 6.06994 154.727 5.95157 153.894 5.95157C152.388 5.95157 151.077 6.32563 149.959 7.07373C148.842 7.81237 147.975 8.89191 147.36 10.3124C146.744 11.7234 146.436 13.4374 146.436 15.4544C146.436 17.5283 146.744 19.2707 147.36 20.6817C147.985 22.0927 148.856 23.158 149.973 23.8777C151.091 24.5974 152.383 24.9573 153.851 24.9573C154.675 24.9573 155.437 24.8484 156.138 24.6306C156.848 24.4127 157.478 24.0955 158.027 23.6788C158.577 23.2527 159.031 22.7366 159.391 22.1306C159.76 21.5245 160.016 20.8332 160.158 20.0567L166.38 20.0851C166.219 21.4203 165.816 22.7082 165.172 23.9487C164.538 25.1798 163.681 26.283 162.601 27.2584C161.531 28.2243 160.253 28.9913 158.766 29.5595C157.289 30.1182 155.617 30.3976 153.752 30.3976C151.157 30.3976 148.837 29.8105 146.792 28.6362C144.756 27.462 143.146 25.7622 141.962 23.5368C140.788 21.3114 140.201 18.6173 140.201 15.4544C140.201 12.2821 140.797 9.5832 141.99 7.35782C143.184 5.13244 144.803 3.43737 146.848 2.2726C148.894 1.09835 151.195 0.51123 153.752 0.51123C155.437 0.51123 157 0.747973 158.439 1.22146C159.888 1.69494 161.171 2.38623 162.289 3.29532C163.406 4.19494 164.315 5.29816 165.016 6.60498C165.726 7.9118 166.181 9.40801 166.38 11.0936Z" fill="black"/>
<path d="M172.732 0.908958L178.599 10.8237H178.826L184.721 0.908958H191.667L182.789 15.4544L191.866 29.9999H184.792L178.826 20.0709H178.599L172.633 29.9999H165.587L174.692 15.4544L165.758 0.908958H172.732Z" fill="black"/>
<path d="M216.59 29.9999V0.908958H228.238C230.378 0.908958 232.163 1.22619 233.593 1.86066C235.023 2.49513 236.098 3.37581 236.817 4.50271C237.537 5.62013 237.897 6.90801 237.897 8.36635C237.897 9.50271 237.67 10.5018 237.215 11.3635C236.761 12.2158 236.136 12.9165 235.34 13.4658C234.554 14.0055 233.655 14.3891 232.641 14.6163V14.9004C233.749 14.9478 234.786 15.2603 235.752 15.8379C236.727 16.4156 237.518 17.2252 238.124 18.2669C238.73 19.2991 239.033 20.5302 239.033 21.9601C239.033 23.5037 238.65 24.8815 237.883 26.0936C237.125 27.2963 236.003 28.248 234.516 28.9487C233.03 29.6495 231.197 29.9999 229.019 29.9999H216.59ZM222.741 24.9715H227.755C229.469 24.9715 230.719 24.6448 231.505 23.9913C232.291 23.3285 232.684 22.4478 232.684 21.3493C232.684 20.5444 232.49 19.8341 232.102 19.2186C231.713 18.6031 231.159 18.1201 230.44 17.7698C229.729 17.4194 228.882 17.2442 227.897 17.2442H222.741V24.9715ZM222.741 13.0823H227.3C228.143 13.0823 228.891 12.9355 229.545 12.6419C230.208 12.3389 230.728 11.9127 231.107 11.3635C231.495 10.8143 231.69 10.1561 231.69 9.38907C231.69 8.33794 231.316 7.4904 230.567 6.84646C229.829 6.20252 228.778 5.88055 227.414 5.88055H222.741V13.0823Z" fill="black"/>
<path d="M245.602 0.908958L251.469 10.8237H251.696L257.591 0.908958H264.537L255.659 15.4544L264.736 29.9999H257.662L251.696 20.0709H251.469L245.503 29.9999H238.458L247.563 15.4544L238.628 0.908958H245.602Z" fill="black"/>
</g>
</svg>
