<svg width="24" height="24" viewBox="0 0 24 24" fill="none" xmlns="http://www.w3.org/2000/svg">
<g clip-path="url(#clip0_342_52)">
<path d="M23.4791 10.924C23.9515 10.4636 24.1182 9.78792 23.9145 9.1598C23.7102 8.53169 23.1782 8.08331 22.5247 7.98816L16.7135 7.14378C16.466 7.10774 16.2522 6.95251 16.1416 6.72808L13.5436 1.4624C13.2519 0.870815 12.6599 0.503174 12 0.503174C11.3407 0.503174 10.7486 0.870815 10.4569 1.4624L7.85841 6.72808C7.74788 6.95251 7.53354 7.10774 7.28605 7.14378L1.47491 7.98864C0.821809 8.08331 0.28981 8.53169 0.085565 9.1598C-0.1182 9.78792 0.0485606 10.4636 0.520967 10.924L4.72553 15.0224C4.90479 15.1973 4.98697 15.4491 4.94468 15.6952L3.95228 21.4827C3.84079 22.133 4.10271 22.7774 4.63663 23.1657C5.17007 23.5545 5.8645 23.605 6.44936 23.2969L11.6463 20.5644C11.8679 20.4481 12.1322 20.4481 12.3537 20.5644L17.5512 23.2969C17.8049 23.4305 18.0798 23.4964 18.3532 23.4964C18.7084 23.4964 19.0621 23.3854 19.3639 23.1657C19.8978 22.7774 20.1597 22.133 20.0482 21.4827L19.0554 15.6956C19.0131 15.4491 19.0953 15.1978 19.2745 15.0228L23.4791 10.924ZM18.1086 15.8581L19.101 21.6452C19.151 21.9364 19.0381 22.2147 18.7987 22.3886C18.5589 22.5621 18.2605 22.5833 17.9986 22.4468L12.8011 19.7137C12.5508 19.5825 12.2749 19.5162 12 19.5162C11.7251 19.5162 11.4498 19.5825 11.1989 19.7142L6.00243 22.4468C5.73955 22.5833 5.44111 22.5621 5.20178 22.3886C4.96246 22.2147 4.85 21.9369 4.8995 21.6452L5.89189 15.8581C5.98753 15.2997 5.80251 14.7297 5.3969 14.3347L1.19185 10.2358C0.979918 10.0292 0.907832 9.73794 0.999622 9.4568C1.09093 9.17518 1.32017 8.98199 1.61284 8.93922L7.42349 8.09484C7.98432 8.01363 8.46922 7.66184 8.71961 7.15339L11.3181 1.88772C11.4488 1.62244 11.704 1.46433 11.9995 1.46433C12.2956 1.46433 12.5503 1.62244 12.6815 1.88772L15.28 7.15339C15.5303 7.66184 16.0148 8.01363 16.5756 8.09484L22.3867 8.93922C22.6794 8.98199 22.9086 9.17518 22.9999 9.4568C23.0913 9.73794 23.0196 10.0292 22.8077 10.2358L18.6031 14.3342C18.1975 14.7297 18.0125 15.2992 18.1086 15.8581Z" fill="black"/>
</g>
<defs>
<clipPath id="clip0_342_52">
<rect width="24" height="24" fill="white"/>
</clipPath>
</defs>
</svg>


