<svg width="16" height="17" viewBox="0 0 16 17" fill="none" xmlns="http://www.w3.org/2000/svg">
<g clip-path="url(#clip0_1166_738)">
<path d="M3.47917 1.15039H12.5208C13.8918 1.15039 15 2.28714 15 3.69313V12.6077C15 14.0136 13.8918 15.1504 12.5208 15.1504H3.47917C2.10833 15.1504 1 14.0136 1 12.6077V3.69313C1 2.28714 2.10833 1.15039 3.47917 1.15039Z" fill="#00005B"/>
<path d="M4.79227 8.33559H6.27381C6.23881 8.20995 6.19215 8.0605 6.13965 7.90494C6.08727 7.74328 6.03465 7.5699 5.98227 7.39041C5.92381 7.20482 5.87131 7.02533 5.81298 6.83999C5.75477 6.65452 5.70227 6.48101 5.65548 6.30751C5.60881 6.13999 5.56798 5.98431 5.52715 5.84072H5.51548C5.46298 6.09811 5.39881 6.35525 5.31715 6.61264C5.22965 6.89982 5.14227 7.19896 5.04881 7.49811C4.97298 7.80324 4.87977 8.08443 4.79227 8.33559ZM6.62381 9.52631H4.45381L4.01048 10.9382C3.99881 10.9921 3.95227 11.028 3.89977 11.022H2.80298C2.73881 11.022 2.72131 10.9861 2.73881 10.9143L4.61715 5.39212C4.63465 5.3323 4.65215 5.27845 4.67548 5.20665C4.69881 5.08101 4.71048 4.94939 4.71048 4.81777C4.70477 4.78785 4.72798 4.75794 4.75727 4.75195H6.2681C6.30881 4.75195 6.33798 4.7699 6.34381 4.79969L8.47298 10.9323C8.49048 10.998 8.47298 11.028 8.41465 11.028H7.19548C7.15465 11.0339 7.11381 11.0041 7.10227 10.9622" fill="#9999FF"/>
<path d="M10.083 8.10255H11.3138C11.4655 8.10255 11.5763 8.10255 11.6463 8.09669C11.693 8.0907 11.7398 8.07874 11.7805 8.04882V7.98899C11.7805 7.91122 11.7687 7.83942 11.7455 7.76763C11.6405 7.43258 11.3313 7.20511 10.9873 7.2172C10.6663 7.19925 10.363 7.37276 10.2113 7.6719C10.1413 7.80951 10.1004 7.9531 10.083 8.10255ZM11.9323 8.97617H10.083C10.1063 9.16164 10.1646 9.34711 10.2638 9.50865C10.3688 9.67019 10.5146 9.79583 10.6898 9.86763C10.923 9.96934 11.1796 10.0232 11.4363 10.0172C11.6405 10.0112 11.8446 9.99327 12.043 9.95139C12.2238 9.92746 12.3988 9.87959 12.5621 9.81378C12.5913 9.78985 12.6088 9.80169 12.6088 9.86164V10.777C12.6088 10.801 12.603 10.8249 12.5971 10.8488C12.5855 10.8668 12.5738 10.8787 12.5563 10.8907C12.3696 10.9745 12.1771 11.0343 11.973 11.0702C11.6988 11.124 11.4246 11.148 11.1446 11.142C10.7013 11.142 10.328 11.0702 10.0246 10.9326C9.73869 10.8069 9.48798 10.6095 9.28965 10.3641C9.10298 10.1309 8.96882 9.86763 8.88727 9.58045C8.80548 9.29925 8.76465 9.00609 8.76465 8.70682C8.76465 8.38387 8.81132 8.06665 8.91048 7.75554C9.00382 7.45652 9.14965 7.1813 9.34798 6.936C9.54048 6.69669 9.77965 6.50523 10.0538 6.36763C10.328 6.23002 10.6548 6.18203 11.028 6.18203C11.3371 6.17617 11.6463 6.23588 11.9323 6.36763C12.1713 6.47532 12.3813 6.63686 12.5446 6.84614C12.6963 7.04968 12.8188 7.2769 12.8946 7.52831C12.9705 7.76763 13.0055 8.01293 13.0055 8.25823C13.0055 8.40182 12.9996 8.52746 12.9938 8.64113C12.9823 8.75481 12.9763 8.83857 12.9705 8.89241C12.9646 8.93429 12.9296 8.97019 12.8888 8.97019C12.8538 8.97019 12.7896 8.97617 12.6963 8.98216C12.603 8.99412 12.4921 9.00011 12.358 9.00011C12.2238 9.00011 12.0838 8.97617 11.9323 8.97617Z" fill="#9999FF"/>
</g>
<defs>
<clipPath id="clip0_1166_738">
<rect width="14" height="14" fill="white" transform="translate(1 1.15039)"/>
</clipPath>
</defs>
</svg>
