<svg width="16" height="17" viewBox="0 0 16 17" fill="none" xmlns="http://www.w3.org/2000/svg">
<g clip-path="url(#clip0_1192_2)">
<path d="M5.25053 15.4999C6.49228 15.4999 7.50008 14.4546 7.50008 13.1666V10.8333H5.25053C4.00877 10.8333 3.00098 11.8786 3.00098 13.1666C3.00098 14.4546 4.00877 15.4999 5.25053 15.4999Z" fill="#0ACF83"/>
<path d="M3.00098 8.50008C3.00098 7.21208 4.00877 6.16675 5.25053 6.16675H7.50008V10.8334H5.25053C4.00877 10.8334 3.00098 9.78808 3.00098 8.50008Z" fill="#A259FF"/>
<path d="M3.00098 3.83333C3.00098 2.54533 4.00877 1.5 5.25053 1.5H7.50008V6.16667H5.25053C4.00877 6.16667 3.00098 5.12133 3.00098 3.83333Z" fill="#F24E1E"/>
<path d="M7.5 1.5H9.74955C10.9913 1.5 11.9991 2.54533 11.9991 3.83333C11.9991 5.12133 10.9913 6.16667 9.74955 6.16667H7.5V1.5Z" fill="#FF7262"/>
<path d="M11.9991 8.50008C11.9991 9.78808 10.9913 10.8334 9.74955 10.8334C8.5078 10.8334 7.5 9.78808 7.5 8.50008C7.5 7.21208 8.5078 6.16675 9.74955 6.16675C10.9913 6.16675 11.9991 7.21208 11.9991 8.50008Z" fill="#1ABCFE"/>
</g>
<defs>
<clipPath id="clip0_1192_2">
<rect width="9" height="14" fill="white" transform="translate(3 1.5)"/>
</clipPath>
</defs>
</svg>
