<svg width="16" height="17" viewBox="0 0 16 17" fill="none" xmlns="http://www.w3.org/2000/svg">
<g clip-path="url(#clip0_1166_727)">
<path d="M3.47917 1.5H12.5208C12.8465 1.49969 13.169 1.56524 13.4699 1.69291C13.7709 1.82059 14.0443 2.00787 14.2746 2.24405C14.5048 2.48023 14.6874 2.76066 14.8119 3.0693C14.9364 3.37794 15.0003 3.70873 15 4.04274V12.9573C15.0003 13.2913 14.9364 13.6221 14.8119 13.9307C14.6874 14.2393 14.5048 14.5198 14.2746 14.756C14.0443 14.9921 13.7709 15.1794 13.4699 15.3071C13.169 15.4348 12.8465 15.5003 12.5208 15.5H3.47917C3.15351 15.5003 2.83099 15.4348 2.53007 15.3071C2.22914 15.1794 1.95572 14.9921 1.72545 14.756C1.49517 14.5198 1.31257 14.2393 1.18809 13.9307C1.06361 13.6221 0.999694 13.2913 1 12.9573V4.04274C0.999694 3.70873 1.06361 3.37794 1.18809 3.0693C1.31257 2.76066 1.49517 2.48023 1.72545 2.24405C1.95572 2.00787 2.22914 1.82059 2.53007 1.69291C2.83099 1.56524 3.15351 1.49969 3.47917 1.5Z" fill="#330000"/>
<path d="M7.78397 9.89988H5.61397L5.17064 11.3059C5.16568 11.3315 5.15156 11.3543 5.13106 11.3698C5.11055 11.3853 5.08513 11.3924 5.0598 11.3896H3.96314C3.89897 11.3896 3.88147 11.3537 3.89897 11.2819L5.7773 5.73577C5.7948 5.67594 5.8123 5.61013 5.83564 5.53834C5.85911 5.41011 5.87083 5.27991 5.87064 5.14945C5.86889 5.13446 5.87273 5.11936 5.88138 5.10715C5.89003 5.09495 5.90286 5.08655 5.9173 5.08364H7.42813C7.4748 5.08364 7.49814 5.10159 7.50397 5.1315L9.63313 11.2939C9.65064 11.3597 9.63313 11.3896 9.5748 11.3896H8.35564C8.33502 11.3917 8.31436 11.3862 8.29729 11.3741C8.28022 11.3621 8.26783 11.3443 8.2623 11.3238L7.78397 9.89988ZM5.9523 8.68535H7.43397C7.39897 8.5597 7.3523 8.41013 7.2998 8.25458C7.2473 8.09902 7.1948 7.91953 7.1423 7.74005C7.0898 7.56056 7.03147 7.37509 6.97314 7.18962C6.9148 7.00415 6.8623 6.83064 6.81563 6.65714C6.76897 6.48364 6.72814 6.33406 6.6873 6.19047H6.67564C6.62321 6.45124 6.557 6.70888 6.4773 6.96227C6.3898 7.24945 6.3023 7.54859 6.20897 7.84774C6.1273 8.15287 6.0398 8.43406 5.9523 8.68535ZM10.9048 6.10671C10.8091 6.10886 10.7138 6.09145 10.6247 6.05551C10.5356 6.01956 10.4543 5.96578 10.3856 5.89731C10.252 5.74743 10.1808 5.54988 10.1873 5.34688C10.1839 5.24798 10.2008 5.14944 10.237 5.05769C10.2731 4.96594 10.3278 4.88304 10.3973 4.81441C10.5375 4.67848 10.7235 4.60345 10.9165 4.605C11.144 4.605 11.319 4.6768 11.4473 4.81441C11.5765 4.95948 11.6456 5.15047 11.6398 5.34688C11.6434 5.44797 11.6271 5.54876 11.5921 5.6433C11.557 5.73784 11.5038 5.82421 11.4356 5.89731C11.3669 5.96912 11.2839 6.02497 11.1924 6.06109C11.1008 6.09722 11.0027 6.11277 10.9048 6.10671ZM10.2515 11.2999V6.69304C10.2515 6.63321 10.2748 6.60928 10.3273 6.60928H11.4823C11.5348 6.60928 11.5581 6.63919 11.5581 6.69304V11.2999C11.5581 11.3657 11.5348 11.3956 11.4823 11.3956H10.339C10.3267 11.3966 10.3144 11.3948 10.3029 11.3903C10.2914 11.3858 10.2811 11.3786 10.2727 11.3694C10.2643 11.3602 10.258 11.3492 10.2543 11.3371C10.2506 11.3251 10.2497 11.3124 10.2515 11.2999Z" fill="#FF9A00"/>
</g>
<defs>
<clipPath id="clip0_1166_727">
<rect width="14" height="14" fill="white" transform="translate(1 1.5)"/>
</clipPath>
</defs>
</svg>
