<svg width="16" height="17" viewBox="0 0 16 17" fill="none" xmlns="http://www.w3.org/2000/svg">
<g clip-path="url(#clip0_1166_715)">
<path d="M3.47917 1.60986H12.5208C13.8917 1.60986 15 2.74638 15 4.15208V13.0648C15 14.4705 13.8917 15.607 12.5208 15.607H3.47917C2.10833 15.607 1 14.4705 1 13.0648V4.15208C1 2.74638 2.10833 1.60986 3.47917 1.60986Z" fill="#001E36"/>
<path d="M4.15039 11.4258V5.27063C4.15039 5.22876 4.16789 5.20484 4.20872 5.20484C4.30789 5.20484 4.40122 5.20484 4.53539 5.19885C4.67539 5.19287 4.82122 5.19287 4.97872 5.18689C5.13622 5.18091 5.30539 5.18091 5.48622 5.17493C5.66706 5.16895 5.84206 5.16895 6.01706 5.16895C6.49539 5.16895 6.89206 5.22876 7.21872 5.35438C7.51039 5.45607 7.77872 5.62355 8.00039 5.84488C8.18706 6.03629 8.33289 6.26957 8.42622 6.52679C8.51372 6.77802 8.56039 7.03523 8.56039 7.3044C8.56039 7.81883 8.44372 8.24353 8.21039 8.5785C7.97706 8.91348 7.65039 9.16471 7.27122 9.30827C6.87456 9.45781 6.43706 9.51164 5.95872 9.51164C5.81872 9.51164 5.72539 9.51164 5.66706 9.50566C5.60872 9.49968 5.52706 9.49968 5.41622 9.49968V11.4198C5.42206 11.4617 5.39289 11.4976 5.35206 11.5035H4.22039C4.17372 11.5035 4.15039 11.4796 4.15039 11.4258ZM5.42206 6.3593V8.36914C5.50372 8.37513 5.57956 8.38111 5.64956 8.38111H5.95872C6.18622 8.38111 6.41372 8.34522 6.62956 8.27344C6.81622 8.2196 6.97956 8.10595 7.10789 7.95641C7.23039 7.80687 7.28872 7.60349 7.28872 7.3403C7.29456 7.15486 7.24789 6.96943 7.15456 6.80793C7.05539 6.6524 6.91539 6.53277 6.74622 6.46697C6.53039 6.37724 6.29706 6.34135 6.05789 6.34734C5.90622 6.34734 5.77206 6.34734 5.66122 6.35332C5.54456 6.34734 5.46289 6.35332 5.42206 6.3593ZM12.2004 8.00426C12.0254 7.90855 11.8387 7.84276 11.6404 7.80088C11.4246 7.75303 11.2087 7.72312 10.9871 7.72312C10.8704 7.71714 10.7479 7.73509 10.6371 7.76499C10.5612 7.78294 10.4971 7.82481 10.4562 7.88463C10.4271 7.93248 10.4096 7.9923 10.4096 8.04613C10.4096 8.09997 10.4329 8.1538 10.4679 8.20166C10.5204 8.26746 10.5904 8.32129 10.6662 8.36316C10.8004 8.43494 10.9404 8.50074 11.0804 8.56056C11.3954 8.66823 11.6987 8.81777 11.9787 8.99722C12.1712 9.12284 12.3287 9.29032 12.4396 9.4937C12.5329 9.68511 12.5796 9.89447 12.5737 10.1098C12.5796 10.391 12.4979 10.6721 12.3462 10.9054C12.1829 11.1446 11.9554 11.3301 11.6929 11.4377C11.4071 11.5634 11.0571 11.6292 10.6371 11.6292C10.3687 11.6292 10.1062 11.6052 9.84372 11.5514C9.63956 11.5155 9.43539 11.4497 9.24872 11.36C9.20789 11.3361 9.17872 11.2942 9.18456 11.2463V10.2055C9.18456 10.1876 9.19039 10.1636 9.20789 10.1517C9.22539 10.1397 9.24289 10.1457 9.26039 10.1577C9.48789 10.2952 9.72706 10.391 9.98372 10.4508C10.2054 10.5106 10.4387 10.5405 10.6721 10.5405C10.8937 10.5405 11.0512 10.5106 11.1562 10.4567C11.2496 10.4149 11.3137 10.3132 11.3137 10.2055C11.3137 10.1218 11.2671 10.044 11.1737 9.96625C11.0804 9.88849 10.8879 9.79877 10.6021 9.68511C10.3046 9.57744 10.0304 9.43388 9.77372 9.25443C9.59289 9.12284 9.44122 8.94937 9.33039 8.74599C9.23706 8.55458 9.19039 8.34522 9.19622 8.13586C9.19622 7.87865 9.26622 7.6334 9.39456 7.41208C9.54039 7.17281 9.75622 6.98139 10.0071 6.86176C10.2812 6.7182 10.6254 6.6524 11.0396 6.6524C11.2787 6.6524 11.5237 6.67035 11.7629 6.70624C11.9379 6.73016 12.1071 6.77802 12.2646 6.84382C12.2879 6.8498 12.3112 6.87372 12.3229 6.89765C12.3287 6.92158 12.3346 6.9455 12.3346 6.96943V7.94444C12.3346 7.96837 12.3229 7.9923 12.3054 8.00426C12.2529 8.01622 12.2237 8.01622 12.2004 8.00426Z" fill="#31A8FF"/>
</g>
<defs>
<clipPath id="clip0_1166_715">
<rect width="14" height="14" fill="white" transform="translate(1 1.6084)"/>
</clipPath>
</defs>
</svg>
