<svg width="16" height="17" viewBox="0 0 16 17" fill="none" xmlns="http://www.w3.org/2000/svg">
<g clip-path="url(#clip0_1166_751)">
<path d="M3.47917 1.57861H12.5208C13.8917 1.57861 15 2.71513 15 4.12083V13.0335C15 14.4392 13.8917 15.5757 12.5208 15.5757H3.47917C2.10833 15.5757 1 14.4392 1 13.0335V4.12083C1 2.71513 2.10833 1.57861 3.47917 1.57861Z" fill="#00005B"/>
<path d="M4.3252 11.3945V5.23938C4.3252 5.19751 4.3427 5.17359 4.38353 5.17359C4.4827 5.17359 4.57603 5.17359 4.7102 5.1676C4.8502 5.16162 4.99603 5.16162 5.15353 5.15564C5.31103 5.14966 5.4802 5.14966 5.66103 5.14368C5.84186 5.1377 6.01686 5.1377 6.19186 5.1377C6.6702 5.1377 7.06686 5.19751 7.39353 5.32313C7.6852 5.42482 7.95353 5.5923 8.1752 5.81363C8.36186 6.00504 8.5077 6.23832 8.60103 6.49554C8.68853 6.74677 8.7352 7.00398 8.7352 7.27315C8.7352 7.78758 8.61853 8.21228 8.3852 8.54725C8.15186 8.88223 7.8252 9.13346 7.44603 9.27702C7.04936 9.42656 6.61186 9.4804 6.13353 9.4804C5.99353 9.4804 5.9002 9.48039 5.84186 9.47441C5.78353 9.46843 5.70186 9.46843 5.59103 9.46843V11.3886C5.59686 11.4304 5.5677 11.4663 5.52686 11.4723H4.3952C4.34853 11.4723 4.3252 11.4484 4.3252 11.3945ZM5.59686 6.32805V8.33789C5.67853 8.34388 5.75436 8.34986 5.82436 8.34986H6.13353C6.36103 8.34986 6.58853 8.31397 6.80436 8.24219C6.99103 8.18835 7.15436 8.0747 7.2827 7.92516C7.4052 7.77562 7.46353 7.57224 7.46353 7.30905C7.46936 7.12361 7.4227 6.93818 7.32936 6.77668C7.2302 6.62115 7.0902 6.50152 6.92103 6.43572C6.7052 6.34599 6.47186 6.3101 6.2327 6.31609C6.08103 6.31609 5.94686 6.31609 5.83603 6.32207C5.71936 6.31609 5.6377 6.32207 5.59686 6.32805ZM9.55186 6.67499H10.5727C10.631 6.67499 10.6777 6.71686 10.6952 6.77069C10.7127 6.81855 10.7244 6.8664 10.7302 6.92024C10.7419 6.98005 10.7535 7.04585 10.7594 7.10567C10.7652 7.17147 10.771 7.24325 10.771 7.32101C10.946 7.11165 11.156 6.93818 11.3952 6.80658C11.6635 6.65106 11.9727 6.5733 12.2819 6.5733C12.3227 6.56732 12.3577 6.59723 12.3635 6.6391V7.82945C12.3635 7.8773 12.3344 7.89525 12.2702 7.89525C12.0602 7.88927 11.8444 7.90721 11.6402 7.95507C11.471 7.99096 11.3077 8.04479 11.1502 8.11657C11.0394 8.17041 10.9344 8.24219 10.8527 8.33789V11.3886C10.8527 11.4484 10.8294 11.4723 10.7769 11.4723H9.6277C9.58103 11.4783 9.5402 11.4484 9.53436 11.4005V8.06274C9.53436 7.91918 9.53436 7.76963 9.52853 7.61411C9.5227 7.45859 9.5227 7.30306 9.51686 7.14754C9.51686 7.00996 9.5052 6.87836 9.49353 6.74079C9.4877 6.71088 9.5052 6.68097 9.53436 6.67499C9.53436 6.66901 9.54603 6.66901 9.55186 6.67499Z" fill="#9999FF"/>
</g>
<defs>
<clipPath id="clip0_1166_751">
<rect width="14" height="14" fill="white" transform="translate(1 1.57715)"/>
</clipPath>
</defs>
</svg>
