<svg width="16" height="17" viewBox="0 0 16 17" fill="none" xmlns="http://www.w3.org/2000/svg">
<g clip-path="url(#clip0_1166_697)">
<path d="M3.47746 1.6748H12.5206C13.893 1.6748 14.999 2.78387 14.999 4.15324V12.8461C14.999 14.2185 13.89 15.3245 12.5206 15.3245H3.47746C2.10508 15.3245 0.999023 14.2155 0.999023 12.8461V4.15324C0.999023 2.78113 2.10809 1.6748 3.47746 1.6748Z" fill="#470137"/>
<path d="M8.36132 5.26246L6.61105 8.14996L8.4789 11.2138C8.49011 11.2363 8.49558 11.2614 8.49011 11.2838C8.48464 11.3063 8.46222 11.2893 8.42558 11.295H7.08984C6.99741 11.295 6.93288 11.2896 6.89105 11.2305C6.76773 10.9841 6.63894 10.746 6.51862 10.5023C6.3953 10.2642 6.26105 10.0178 6.12105 9.7657C5.98105 9.51359 5.84105 9.26449 5.70105 9.00664H5.68984C5.56651 9.25875 5.43226 9.50785 5.29773 9.75996C5.16319 10.0121 5.02894 10.2612 4.90015 10.5078C4.76562 10.7542 4.63136 11.0036 4.49683 11.2445C4.47441 11.3032 4.42683 11.309 4.3623 11.309H3.08234C3.05991 11.309 3.04023 11.3202 3.04023 11.2923C3.03476 11.2699 3.04023 11.2447 3.05144 11.2278L4.86624 8.24785L3.09929 5.25699C3.08261 5.23457 3.07687 5.20941 3.08808 5.1982C3.09929 5.18152 3.12444 5.17578 3.14687 5.17578H4.4714C4.49929 5.17578 4.53019 5.18125 4.55261 5.18699C4.57503 5.1982 4.59472 5.21488 4.6114 5.24031C4.72351 5.49242 4.84956 5.74152 4.98382 5.99363C5.12382 6.24574 5.25835 6.48938 5.40382 6.73574C5.54382 6.97938 5.67261 7.22574 5.79593 7.47785H5.80714C5.93046 7.22027 6.05925 6.9709 6.1853 6.72453C6.31409 6.4809 6.44862 6.23453 6.58288 5.98789C6.71741 5.74426 6.8462 5.49215 6.97499 5.25426C6.98046 5.23184 6.99167 5.20668 7.01136 5.19547C7.03378 5.18426 7.05894 5.17879 7.0871 5.18426H8.31948C8.34737 5.17879 8.37827 5.19547 8.38402 5.22637C8.38675 5.22609 8.37253 5.25125 8.36132 5.26246Z" fill="#FF61F6"/>
<path d="M11.0586 11.4181C10.6273 11.4236 10.1959 11.3369 9.80402 11.1548C9.43707 10.9867 9.13191 10.7067 8.92191 10.3624C8.70617 10.0067 8.5998 9.56424 8.5998 9.03213C8.59433 8.60092 8.70617 8.17517 8.92191 7.79974C9.14312 7.42158 9.46523 7.10521 9.84886 6.89521C10.2577 6.66826 10.7479 6.55642 11.3249 6.55642C11.3528 6.55642 11.3949 6.55642 11.4482 6.56189C11.5015 6.56736 11.5603 6.56736 11.6303 6.5731V4.73041C11.6303 4.6883 11.647 4.66588 11.6891 4.66588H12.8736C12.9015 4.66041 12.9269 4.68256 12.9324 4.70799C12.9324 4.71345 12.9324 4.7192 12.9324 4.7192V10.2727C12.9324 10.3791 12.9379 10.4939 12.9436 10.6227C12.9548 10.746 12.9603 10.8609 12.9661 10.9615C12.9661 11.0036 12.9494 11.0372 12.9073 11.0539C12.6048 11.1827 12.2827 11.2751 11.9552 11.3339C11.6579 11.3875 11.3612 11.4181 11.0586 11.4181ZM11.63 10.2503V7.68217C11.5767 7.67095 11.5237 7.65974 11.4731 7.65428C11.4086 7.64881 11.3443 7.64306 11.2798 7.64306C11.0528 7.64306 10.8234 7.69064 10.6216 7.79428C10.4228 7.89217 10.2546 8.03791 10.1259 8.22549C9.99707 8.41306 9.93253 8.66244 9.93253 8.9676C9.92707 9.17213 9.96043 9.37638 10.0304 9.5697C10.0892 9.72666 10.1762 9.86666 10.2937 9.98424C10.4059 10.0906 10.5401 10.1718 10.6913 10.2167C10.8483 10.27 11.0134 10.2924 11.1759 10.2924C11.2628 10.2924 11.344 10.2869 11.4222 10.2812C11.4955 10.2867 11.56 10.2727 11.63 10.2503Z" fill="#FF61F6"/>
</g>
<defs>
<clipPath id="clip0_1166_697">
<rect width="14" height="14" fill="white" transform="translate(1 1.5)"/>
</clipPath>
</defs>
</svg>
